<svg t="1573838576444" class="icon" viewBox="0 0 1024 1024" version="1.1" xmlns="http://www.w3.org/2000/svg" p-id="10140" width="128" height="128"><path d="M368 560h-128a32 32 0 0 0 0 64h128a32 32 0 0 0 0-64zM740.8 391.68a32 32 0 0 0-45.12 3.52L624 478.88l-71.68-83.68a32 32 0 1 0-48 41.6l64 75.2H480a32 32 0 0 0 0 64h112v32h-112a32 32 0 0 0 0 64h112v96a32 32 0 0 0 64 0v-96h112a32 32 0 0 0 0-64h-112v-32h112a32 32 0 0 0 0-64h-88.16l64-75.2a32 32 0 0 0-3.04-45.12z" p-id="10141" fill="#e6e6e6"></path><path d="M896 120H736v-16a40 40 0 0 0-80 0v16H352v-16a40 40 0 0 0-80 0v16H128A40 40 0 0 0 88 160v768A40 40 0 0 0 128 968h768a40 40 0 0 0 40-40V160A40 40 0 0 0 896 120z m-40 768h-688v-688H272v32a40 40 0 0 0 80 0v-32h304v32a40 40 0 0 0 80 0v-32h120z" p-id="10142" fill="#ffffff"></path></svg>