<?xml version="1.0" standalone="no"?><!DOCTYPE svg PUBLIC "-//W3C//DTD SVG 1.1//EN" "http://www.w3.org/Graphics/SVG/1.1/DTD/svg11.dtd"><svg class="icon" width="32px" height="32.00px" viewBox="0 0 1024 1024" version="1.1" xmlns="http://www.w3.org/2000/svg"><path fill="#FFFFFF" d="M120.6 865c-11 0-20-9-20-20V174.7c0-11 9-20 20-20s20 9 20 20V845c0 11-8.9 20-20 20z"  /><path fill="#FFFFFF" d="M903.4 869.3H120.6c-11 0-20-9-20-20s9-20 20-20h782.7c11 0 20 9 20 20s-8.9 20-19.9 20zM404 738.3H214V481.9h190v256.4z m-150-40h110V521.9H254v176.4z m600 40H664V392h190v346.3z m-150-40h110V432H704v266.3z m-75 40H439V302.2h190v436.1z m-150-40h110V342.2H479v356.1z"  /></svg>