<?xml version="1.0" standalone="no"?><!DOCTYPE svg PUBLIC "-//W3C//DTD SVG 1.1//EN" "http://www.w3.org/Graphics/SVG/1.1/DTD/svg11.dtd"><svg class="icon" width="32px" height="31.84px" viewBox="0 0 1029 1024" version="1.1" xmlns="http://www.w3.org/2000/svg"><path fill="#FFFFFF" d="M876.032 747.008c0 15.872-5.632 30.208-16.896 40.96-11.776 11.776-25.088 16.896-41.472 16.896h-235.52v115.712H875.52c16.384 0 31.744-3.072 46.08-8.704 13.824-6.144 27.136-13.824 37.376-24.576 10.752-10.24 18.944-22.528 25.6-36.864 6.656-13.824 9.216-29.184 9.216-45.056V228.864c0-15.872-3.072-31.232-9.216-44.544-6.144-13.312-14.848-25.6-25.6-36.864-10.752-10.24-23.04-18.944-37.376-25.088-13.824-6.144-29.184-9.216-46.08-9.216H166.912c-16.384 0-31.744 3.072-46.08 9.216-13.824 6.144-27.136 14.848-37.376 25.088-10.752 10.24-18.944 22.528-25.6 36.864-6.144 13.824-9.216 28.672-9.216 44.544V399.36l118.272 3.584v-2.048c0-15.872 6.144-29.184 17.92-40.448s25.6-16.384 41.984-16.384h590.848c16.384 0 30.208 5.632 41.472 16.384 11.776 10.752 16.896 24.576 16.896 40.448v346.112zM315.904 397.824c-37.376 0-72.192 6.656-104.448 20.992-32.256 13.824-60.416 32.256-84.992 56.32-24.576 24.064-43.52 51.2-57.344 83.968-13.824 31.744-21.504 66.048-21.504 101.888s7.168 70.144 21.504 101.888c13.824 31.744 33.792 59.392 57.344 82.432 24.576 23.04 52.736 41.984 84.992 55.808 32.256 13.824 67.072 20.992 104.448 20.992 37.376 0 72.192-6.656 104.448-20.992 32.256-13.824 60.416-32.256 84.992-55.808s43.52-50.688 57.344-82.432c13.824-31.744 21.504-65.536 21.504-101.888 0-36.864-7.168-70.144-21.504-101.888-13.824-31.744-33.792-59.904-57.344-83.968-24.064-24.064-52.736-41.984-84.992-56.32-32.256-13.312-67.072-20.992-104.448-20.992z m-66.048 233.984l-82.944-76.288 41.472-41.984 93.696 88.576-30.208 30.72h98.816l-30.208-37.888L427.52 512l35.84 46.08L384 632.832h79.36v57.856H345.088v57.344H463.36v57.856H345.088v57.344h-59.392v-57.344H167.424v-57.856h118.272v-57.344H167.424v-57.856h82.432v-1.024z"  /></svg>