<?xml version="1.0" standalone="no"?><!DOCTYPE svg PUBLIC "-//W3C//DTD SVG 1.1//EN" "http://www.w3.org/Graphics/SVG/1.1/DTD/svg11.dtd"><svg class="icon" width="200px" height="200.00px" viewBox="0 0 1024 1024" version="1.1" xmlns="http://www.w3.org/2000/svg"><path fill="#000000" d="M219.136 604.672c-84.48 0-153.088-68.608-153.088-153.088s68.608-153.088 153.088-153.088 153.088 68.608 153.088 153.088-68.608 153.088-153.088 153.088z m0-244.736c-50.688 0-91.648 40.96-91.648 91.648s40.96 91.648 91.648 91.648 91.648-40.96 91.648-91.648-40.96-91.648-91.648-91.648z m585.728 15.872c-84.48 0-153.088-68.608-153.088-153.088S720.384 69.632 804.864 69.632 957.952 138.24 957.952 222.72s-68.608 153.088-153.088 153.088z m0-244.736c-50.688 0-91.648 40.96-91.648 91.648s40.96 91.648 91.648 91.648c50.688 0 91.648-40.96 91.648-91.648s-41.472-91.648-91.648-91.648zM682.496 954.368c-84.48 0-153.088-68.608-153.088-153.088s68.608-153.088 153.088-153.088S835.584 716.8 835.584 801.28s-69.12 153.088-153.088 153.088z m0-245.248c-50.688 0-91.648 40.96-91.648 91.648s40.96 91.648 91.648 91.648c50.688 0 91.648-40.96 91.648-91.648s-41.472-91.648-91.648-91.648z"  /><path fill="#000000" d="M563.712 839.68c-158.208 0-295.424-101.376-342.528-251.904l58.88-18.432C318.976 694.272 433.152 778.24 563.712 778.24v61.44z m241.152-92.672l-41.472-45.568c61.952-56.32 97.792-136.704 97.792-220.16 0-47.616-10.752-93.184-32.256-135.168l54.784-28.16c26.112 50.688 38.912 105.472 38.912 163.328 0 100.864-43.008 198.144-117.76 265.728z m-511.488-389.12l-55.808-25.6c58.368-127.488 186.368-209.92 326.656-209.92 41.984 0 82.432 7.168 121.344 20.992l-20.992 57.856c-32.256-11.776-66.048-17.408-100.864-17.408-116.224 0-222.208 68.608-270.336 174.08z"  /></svg>