<svg t="1573838754529" class="icon" viewBox="0 0 1024 1024" version="1.1" xmlns="http://www.w3.org/2000/svg" p-id="10747" width="128" height="128"><path d="M659.911111 492.202667a131.982222 131.982222 0 0 1-91.022222-34.588445l-19.569778-17.749333 20.48-16.611556a86.243556 86.243556 0 0 0 32.085333-68.266666 85.105778 85.105778 0 0 0-28.444444-63.943111l-18.659556-17.976889 20.48-16.611556A132.209778 132.209778 0 1 1 659.911111 492.202667z m-38.684444-54.613334A86.698667 86.698667 0 1 0 659.911111 273.066667a83.740444 83.740444 0 0 0-34.360889 7.054222 131.982222 131.982222 0 0 1-4.323555 157.240889z" p-id="10748" fill="#e6e6e6"></path><path d="M816.696889 787.569778h-183.864889l2.503111-25.031111a73.955556 73.955556 0 0 0 0-10.012445v-113.777778a130.161778 130.161778 0 0 0-58.709333-110.364444L546.133333 508.131556l33.450667-18.432a165.205333 165.205333 0 0 1 245.304889 144.497777v106.951111a136.533333 136.533333 0 0 1-3.185778 28.672z m-135.168-45.511111h96.938667v-107.861334A119.921778 119.921778 0 0 0 659.911111 514.503111a129.251556 129.251556 0 0 0-24.803555 2.503111A176.810667 176.810667 0 0 1 682.666667 638.976zM365.226667 492.202667a132.209778 132.209778 0 1 1 83.512889-234.837334l20.48 16.611556-19.569778 17.976889a85.105778 85.105778 0 0 0-28.444445 63.943111 86.243556 86.243556 0 0 0 32.085334 68.266667l20.48 16.611555-19.569778 17.749333a131.982222 131.982222 0 0 1-88.974222 33.678223z m0-218.908445a86.698667 86.698667 0 1 0 38.684444 164.295111 131.982222 131.982222 0 0 1-4.323555-157.240889 83.740444 83.740444 0 0 0-34.360889-7.281777z" p-id="10749" fill="#e6e6e6"></path><path d="M391.168 787.569778H207.075556l-3.868445-17.976889a132.892444 132.892444 0 0 1-3.185778-28.444445v-106.951111a165.205333 165.205333 0 0 1 245.304889-144.497777l33.450667 18.432-32.085333 20.48a130.161778 130.161778 0 0 0-58.709334 110.364444v113.777778a73.955556 73.955556 0 0 0 0 10.012444z m-145.635556-45.511111h96.938667v-103.082667a176.810667 176.810667 0 0 1 47.559111-121.969778 129.251556 129.251556 0 0 0-24.803555-2.503111 119.921778 119.921778 0 0 0-119.694223 119.694222v107.861334zM516.096 488.106667a132.209778 132.209778 0 1 1 132.209778-132.209778 132.437333 132.437333 0 0 1-132.209778 132.209778z m0-218.908445a86.698667 86.698667 0 1 0 86.698667 86.698667 86.926222 86.926222 0 0 0-86.698667-86.698667z" p-id="10750" fill="#e6e6e6"></path><path d="M674.474667 800.312889H357.717333l-3.640889-18.204445a145.408 145.408 0 0 1-3.185777-29.582222v-113.777778a169.984 169.984 0 0 1 165.205333-174.08A169.984 169.984 0 0 1 682.666667 638.976v113.777778a147.000889 147.000889 0 0 1-3.185778 29.582222z m-278.072889-45.511111h239.388444a8.647111 8.647111 0 0 0 0-2.275556v-113.777778a124.472889 124.472889 0 0 0-119.921778-128.568888 124.472889 124.472889 0 0 0-119.694222 128.568888v115.825778z" p-id="10751" fill="#ffffff"></path></svg>