<?xml version="1.0" standalone="no"?><!DOCTYPE svg PUBLIC "-//W3C//DTD SVG 1.1//EN" "http://www.w3.org/Graphics/SVG/1.1/DTD/svg11.dtd"><svg t="1577435789082" class="icon" viewBox="0 0 1024 1024" version="1.1" xmlns="http://www.w3.org/2000/svg" p-id="7571" xmlns:xlink="http://www.w3.org/1999/xlink" width="200" height="200"><defs><style type="text/css"></style></defs><path d="M355.84 962.56a168.96 43.52 0 1 0 337.92 0 168.96 43.52 0 1 0-337.92 0Z" fill="#C6C4C4" p-id="7572"></path><path d="M501.76 95.232c-0.512-3.584-4.608-23.552-4.096-41.472-12.288-5.632-18.432-18.944-16.384-36.352l5.12 0.512c-2.048 18.432 5.632 26.624 11.776 30.208 1.024-8.704 3.072-16.384 7.68-20.48 3.584-3.584 8.704-4.096 14.336-2.048h0.512l0.512 0.512c11.264 11.264 8.192 19.456 6.144 22.016-4.096 6.656-14.848 9.728-24.576 7.168 0 14.336 2.048 30.208 3.584 38.4l-4.608 1.536z m1.536-44.544c8.192 2.56 16.896 0.512 19.968-4.608 2.56-4.096 1.024-9.728-5.12-15.36-3.584-1.024-6.656-0.512-9.216 1.024-3.072 3.584-5.12 10.24-5.632 18.944z" fill="#B47065" p-id="7573"></path><path d="M623.104 595.968s51.2 54.784 5.632 113.152l-54.272-96.256 48.64-16.896z" fill="#FEE6E2" p-id="7574"></path><path d="M628.224 713.728l-57.344-101.888 53.248-18.432 1.024 1.024c0.512 0.512 52.224 57.344 5.632 116.736l-2.56 2.56zM578.56 614.4l50.688 90.112c36.352-50.176 0.512-97.28-6.656-105.472l-44.032 15.36z" fill="#B47065" p-id="7575"></path><path d="M413.696 581.12s-91.648 76.288-5.12 174.08l51.2-163.84-46.08-10.24z" fill="#FEE6E2" p-id="7576"></path><path d="M409.6 760.32l-3.072-3.584c-27.136-31.232-39.936-62.976-37.376-95.232 3.584-49.152 41.472-80.896 43.008-82.432l1.024-1.024 50.176 11.264L409.6 760.32z m4.608-176.128c-5.632 5.12-36.864 35.328-39.936 78.336-2.048 29.696 8.704 59.392 33.28 88.064l49.152-156.672-42.496-9.728z" fill="#B47065" p-id="7577"></path><path d="M592.896 591.36s153.6 279.04-66.56 353.28c-1.024-22.528-5.12-45.056-12.288-66.56 14.848-15.36 27.648-32.256 37.888-51.2 0 0-27.136 19.968-66.56 0 0 0 42.496 43.52 40.96 133.12h-40.96s-191.488-112.64-46.08-368.64h153.6z" fill="#FEE6E2" p-id="7578"></path><path d="M528.896 962.56h-44.032l-0.512-0.512c-0.512-0.512-48.64-29.184-78.336-89.6-27.136-55.296-44.032-149.504 31.232-282.624l0.512-1.536H593.92l0.512 1.536c1.024 1.536 82.432 152.064 39.936 261.12-17.408 44.544-53.248 76.8-106.496 95.232v13.312l1.024 3.072z m-43.008-5.12h37.888c1.024-86.016-39.936-128.512-40.448-128.512l3.072-4.096c37.376 18.944 62.976 1.024 64 0l3.584 3.072c-9.728 18.432-22.528 35.84-36.864 50.688 1.024 2.56 1.536 5.12 2.56 7.68 2.56 8.704 5.12 18.432 6.656 29.184 1.536 8.192 2.048 16.384 2.56 25.088 50.688-17.92 84.992-48.64 101.888-91.648 39.424-101.376-31.232-240.64-39.424-255.488H440.32c-40.96 72.192-78.848 178.688-30.72 276.48 27.648 55.808 70.656 84.48 76.288 87.552z m8.192-123.904c5.632 7.68 13.824 20.992 20.992 39.936 11.776-12.288 22.016-25.6 30.208-40.448-9.728 4.608-28.16 9.216-51.2 0.512z" fill="#B47065" p-id="7579"></path><path d="M512 74.24c176.64 0 321.536 120.32 320 268.8-3.072 235.52-143.36 268.8-320 268.8S186.368 561.152 192 343.04c4.096-148.48 143.36-268.8 320-268.8z" fill="#FEE6E2" p-id="7580"></path><path d="M512 614.4c-123.904 0-209.408-25.6-261.12-78.848C207.872 491.52 187.392 426.496 189.44 343.04c4.096-152.064 145.92-271.36 322.56-271.36 96.768 0 187.392 35.84 249.344 98.304 48.128 48.64 74.24 110.08 73.216 173.056-1.536 110.08-32.768 183.296-95.744 224.768-62.464 40.96-149.504 46.592-226.816 46.592z m0-537.6c-174.08 0-313.344 116.736-317.44 266.24-2.048 81.92 17.92 145.408 59.904 188.928 51.2 52.224 135.168 77.312 257.536 77.312 194.048 0 314.368-44.544 317.44-266.24 0.512-61.44-24.576-121.856-71.68-169.472-60.928-61.44-150.528-96.768-245.76-96.768z" fill="#B47065" p-id="7581"></path><path d="M693.76 414.72a30.72 17.92 0 1 0 61.44 0 30.72 17.92 0 1 0-61.44 0Z" fill="#FFAEAA" p-id="7582"></path><path d="M289.28 424.96a30.72 17.92 0 1 0 61.44 0 30.72 17.92 0 1 0-61.44 0Z" fill="#FFAEAA" p-id="7583"></path><path d="M364.032 237.056l-6.144-8.192 29.184-23.04 18.432 18.432-7.168 7.168-12.288-11.776zM641.87904 238.09024l30.80704-5.12512 1.67936 10.09664-30.80704 5.12512zM371.2 401.92h10.24v51.2h-10.24zM386.56 407.04h10.24v81.92h-10.24zM401.92 407.04h10.24v56.32h-10.24zM422.4 407.04h10.24v66.56h-10.24zM642.56 391.68h10.24v66.56h-10.24zM663.04 396.8h10.24v87.04h-10.24zM683.52 386.56h10.24v76.8h-10.24z" fill="#B47065" p-id="7584"></path><path d="M396.8 268.8c39.424 0 71.68 32.256 71.68 71.68s-32.256 71.68-71.68 71.68-71.68-32.256-71.68-71.68 32.256-71.68 71.68-71.68z m263.68 20.48c29.696 0 53.76 24.064 53.76 53.76s-24.064 53.76-53.76 53.76-53.76-24.064-53.76-53.76 24.064-53.76 53.76-53.76z" fill="#FFFFFF" p-id="7585"></path><path d="M396.8 417.28c-42.496 0-76.8-34.304-76.8-76.8s34.304-76.8 76.8-76.8 76.8 34.304 76.8 76.8-34.304 76.8-76.8 76.8z m0-143.36c-36.864 0-66.56 29.696-66.56 66.56s29.696 66.56 66.56 66.56 66.56-29.696 66.56-66.56-29.696-66.56-66.56-66.56z m263.68 128c-32.256 0-58.88-26.624-58.88-58.88s26.624-58.88 58.88-58.88 58.88 26.624 58.88 58.88-26.624 58.88-58.88 58.88z m0-107.52c-26.624 0-48.64 22.016-48.64 48.64s22.016 48.64 48.64 48.64 48.64-22.016 48.64-48.64-22.016-48.64-48.64-48.64z" fill="#B47065" p-id="7586"></path><path d="M555.52 483.84l-30.72-10.24 30.72 66.56 30.72-66.56-30.72 10.24z" fill="#FFAEAA" p-id="7587"></path><path d="M555.52 552.448l-40.448-87.552 40.448 13.312 40.448-13.312-40.448 87.552z m-20.992-70.144l20.992 45.568 20.992-45.568-20.992 7.168-20.992-7.168z" fill="#B47065" p-id="7588"></path></svg>