<?xml version="1.0" standalone="no"?><!DOCTYPE svg PUBLIC "-//W3C//DTD SVG 1.1//EN" "http://www.w3.org/Graphics/SVG/1.1/DTD/svg11.dtd"><svg class="icon" width="200px" height="200.00px" viewBox="0 0 1024 1024" version="1.1" xmlns="http://www.w3.org/2000/svg"><path d="M403.74 403.41a119.45 119.45 0 1 0 35-84.46 119.46 119.46 0 0 0-35 84.46z m228.39 145.74h-9.79a28.29 28.29 0 0 0-11.71 2.85c-3.65 1.79-7.89 4.54-15 7.65A185.85 185.85 0 0 1 523.9 574a180.25 180.25 0 0 1-71.67-14.33c-7.16-3.11-15.29-7.65-15.29-7.65a23.76 23.76 0 0 0-11.7-2.86H415a122.79 122.79 0 0 0-92.45 76.45 203.06 203.06 0 0 0-14.34 75.25A23.89 23.89 0 0 0 320.12 719c6.66 3.78 66.89 42.76 203.07 42.76S726.26 719 726.26 719a23.88 23.88 0 0 0 11.94-18.4 194.22 194.22 0 0 0-13.85-74.06 122.58 122.58 0 0 0-92.22-78.36z m0 0" fill="#FFFFFF" /><path d="M511.12 64.47C264 64.47 63.62 264.82 63.62 512S264 959.47 511.12 959.47 958.62 759.11 958.62 512 758.27 64.47 511.12 64.47z m11.5 208a120 120 0 1 1-120 120 120 120 0 0 1 120-120z m213.24 414.34a28.4 28.4 0 0 1-15.93 22.82A457 457 0 0 1 569.26 752a465.67 465.67 0 0 1-47.64 2.44 458.17 458.17 0 0 1-194.91-43.23 28.17 28.17 0 0 1-16.12-22.17 142.07 142.07 0 0 1 95.5-151.13 26.14 26.14 0 0 1 21.11 1.9 197.34 197.34 0 0 0 115.41 23.62c-1.41-1.17-2.83-2.33-4.29-3.45q2.19 1.68 4.3 3.45a195.66 195.66 0 0 0 75.72-23.78 25.74 25.74 0 0 1 20.56-2.15 142.12 142.12 0 0 1 97 149.28z" fill="#ADADAD" /></svg>