<?xml version="1.0" standalone="no"?><!DOCTYPE svg PUBLIC "-//W3C//DTD SVG 1.1//EN" "http://www.w3.org/Graphics/SVG/1.1/DTD/svg11.dtd"><svg class="icon" width="200px" height="200.00px" viewBox="0 0 1024 1024" version="1.1" xmlns="http://www.w3.org/2000/svg"><path fill="#000000" d="M698.88 388.608c-2.56 19.968-6.656 39.936-11.264 59.904l-23.04 91.648h71.68l-22.016-86.528c-7.168-26.624-12.288-48.128-15.36-65.024z"  /><path fill="#000000" d="M512 66.56C266.24 66.56 66.56 266.24 66.56 512S266.24 957.44 512 957.44 957.44 757.76 957.44 512 757.76 66.56 512 66.56z m-120.32 601.6l-75.264-158.208-34.304 49.664V668.16h-28.16V355.84H281.6v155.136L386.56 355.84h37.888l-88.576 126.464 92.672 185.856H391.68z m120.32 0l-81.92-312.32h30.208l54.784 227.328c4.608 18.432 8.192 35.328 11.264 51.2 3.072-16.896 7.168-34.304 11.264-51.2l56.832-227.328h28.672l-82.432 312.832H512z m257.024 0l-24.576-94.72h-88.064l-23.04 94.72h-29.696l80.896-312.832h30.208L801.28 668.16h-32.256z"  /></svg>