<?xml version="1.0" standalone="no"?><!DOCTYPE svg PUBLIC "-//W3C//DTD SVG 1.1//EN" "http://www.w3.org/Graphics/SVG/1.1/DTD/svg11.dtd"><svg class="icon" width="200px" height="168.98px" viewBox="0 0 1212 1024" version="1.1" xmlns="http://www.w3.org/2000/svg"><path fill="#000000" d="M938.105923 1023.10901a40.519565 40.519565 0 0 1-36.114612-35.234622l-9.689896-38.317588a198.631866 198.631866 0 0 1-27.746702-11.449877l-34.793626 22.019763a46.244503 46.244503 0 0 1-25.984721 7.927915 35.674617 35.674617 0 0 1-25.544726-10.129891l-22.461759-22.460759a40.519565 40.519565 0 0 1 0-50.209461l22.021764-36.995602a190.263956 190.263956 0 0 1-8.808906-21.579768l-39.197578-9.689896a40.519565 40.519565 0 0 1-35.234622-36.114612V748.721957a41.399555 41.399555 0 0 1 35.234622-37.876593l38.316588-8.36791a187.180989 187.180989 0 0 1 9.689896-23.782745l-22.021764-36.995602a40.519565 40.519565 0 0 1 0-50.209461l22.461759-22.460759a35.674617 35.674617 0 0 1 25.544726-10.129891 47.565489 47.565489 0 0 1 25.984721 7.927915l34.353631 22.020763a202.595824 202.595824 0 0 1 27.306706-11.450877l9.688896-38.757583a40.519565 40.519565 0 0 1 36.114612-35.233622h31.71066a44.042527 44.042527 0 0 1 37.876593 35.233622l8.36791 38.757583a196.42989 196.42989 0 0 1 25.544725 10.569887l33.912636-21.579768a46.685498 46.685498 0 0 1 26.425716-7.047925 35.233622 35.233622 0 0 1 25.544726 10.129892l22.461758 22.461758a40.519565 40.519565 0 0 1 0 50.209461l-20.699777 34.792626a186.739994 186.739994 0 0 1 10.569886 25.544726l38.757584 8.36791a41.399555 41.399555 0 0 1 34.793626 37.876593v31.710659a40.519565 40.519565 0 0 1-35.233621 36.114612l-39.198579 9.689896a185.860003 185.860003 0 0 1-9.689896 23.782745l21.141773 35.234621a40.519565 40.519565 0 0 1 0 50.208461l-22.461759 22.460759a36.114612 36.114612 0 0 1-25.985721 11.010882 46.244503 46.244503 0 0 1-25.984721-7.927915l-33.912635-21.579768a188.06198 188.06198 0 0 1-25.104731 10.569886l-8.807905 39.197579A41.399555 41.399555 0 0 1 969.376587 1023.989h-31.269664z m32.151654-33.913636a13.652853 13.652853 0 0 0 4.403953-7.046924l12.771863-57.255385a4.403953 4.403953 0 0 1 2.642971-3.082967l14.093849-4.403953a170.444169 170.444169 0 0 0 24.22274-10.129891l13.212858-7.046924 49.32747 31.710659a13.212858 13.212858 0 0 0 6.606929 0l21.579768-21.580768a20.259782 20.259782 0 0 0-3.522962-9.248901l-29.507683-49.768465a4.403953 4.403953 0 0 1 0-3.962958l6.605929-12.772862a164.278235 164.278235 0 0 0 9.689896-22.901754l4.403953-13.653854a4.403953 4.403953 0 0 1 3.082967-2.641971l55.053408-13.653854a21.580768 21.580768 0 0 0 9.248901-4.403952v-28.627693a13.652853 13.652853 0 0 0-7.046925-4.403953l-55.493403-12.331867a4.403953 4.403953 0 0 1-3.082967-2.642972l-4.404953-14.093848a164.718231 164.718231 0 0 0-10.569886-24.663735l-6.605929-12.771863a4.403953 4.403953 0 0 1 0-3.963958l29.507683-48.887474a22.021763 22.021763 0 0 0 3.523962-9.689896l-21.139773-22.019764a13.212858 13.212858 0 0 0-6.606929 0l-48.44748 30.829669a3.963957 3.963957 0 0 1-4.403952 0l-13.212859-6.606929a160.755273 160.755273 0 0 0-24.663735-10.569887l-14.093848-4.404952a3.963957 3.963957 0 0 1-2.641972-3.082967l-12.331867-55.052409a12.331868 12.331868 0 0 0-3.523962-7.046924h-30.389674a21.139773 21.139773 0 0 0-3.962957 8.807905l-13.653854 55.053409a4.403953 4.403953 0 0 1-3.082967 3.082967l-13.652853 4.403953a160.755273 160.755273 0 0 0-26.425716 11.010881l-13.212858 7.046925h-4.403953l-50.208461-32.59165a13.212858 13.212858 0 0 0-6.605929 0l-21.581768 21.580768a20.699778 20.699778 0 0 0 3.523962 9.249901l30.829669 51.529446a3.963957 3.963957 0 0 1 0 3.963957l-6.165934 12.771863a162.958249 162.958249 0 0 0-9.689895 23.342749l-4.403953 14.093849a4.403953 4.403953 0 0 1-3.082967 2.641972l-55.493404 12.331867a11.450877 11.450877 0 0 0-7.046924 4.844948v30.389674a19.819787 19.819787 0 0 0 8.808905 3.962957l55.493404 14.093849a4.403953 4.403953 0 0 1 3.082967 2.642971l4.403953 13.652854a169.564179 169.564179 0 0 0 8.808905 21.580768l6.165934 12.772863a3.963957 3.963957 0 0 1 0 3.963957l-30.389674 50.648456a24.22374 24.22374 0 0 0-3.522962 9.689896l21.579768 21.579768a12.771863 12.771863 0 0 0 6.606929 0l50.649456-32.149655a4.403953 4.403953 0 0 1 4.403953 0l13.212858 7.045925a166.040216 166.040216 0 0 0 26.425716 11.009881l13.652853 4.404953a4.403953 4.403953 0 0 1 3.082967 3.082967l13.652854 54.612413a22.901754 22.901754 0 0 0 4.404952 9.249901h28.186698zM954.401748 870.280651a106.582855 106.582855 0 1 1 106.582855-106.582855A106.582855 106.582855 0 0 1 954.401748 870.280651z m0-178.813079a72.670219 72.670219 0 1 0 73.110214 72.670219 72.670219 72.670219 0 0 0-73.110214-72.669219z m-296.846812 317.106594H180.57406A180.57406 180.57406 0 0 1 0 828.000105V180.57406A180.57406 180.57406 0 0 1 180.57406 0h792.766484a180.57406 180.57406 0 0 1 180.57406 180.57406v277.46802a24.22374 24.22374 0 1 1-48.006484 0v-277.46702a132.127581 132.127581 0 0 0-132.127581-132.12858H180.57406a132.127581 132.127581 0 0 0-132.12758 132.12858v646.98405a132.127581 132.127581 0 0 0 132.12858 132.128581h476.979876a24.22374 24.22374 0 1 1 6.606929 48.005484h-6.606929z m-224.617587-440.425269a205.237795 205.237795 0 1 1 205.238796-205.237795 205.237795 205.237795 0 0 1-205.237796 204.7978z m0-362.470106a157.232311 157.232311 0 1 0 157.232311 157.231311 157.232311 157.232311 0 0 0-157.672306-156.350321zM151.947368 850.020869a24.22374 24.22374 0 0 1-24.22274-24.22474A304.774726 304.774726 0 0 1 676.492733 643.021093a24.22374 24.22374 0 0 1-34.353631 33.912635l-3.082967-3.522962a256.767242 256.767242 0 0 0-462.887027 152.386363 24.22374 24.22374 0 0 1-24.22374 24.22374z m854.425821-541.724181H774.267683a24.22374 24.22374 0 0 1-3.082967-48.006484h235.187473a24.22374 24.22374 0 0 1 0 48.006484z m0 151.946368H774.267683a24.22374 24.22374 0 0 1 0-48.005484h232.104506a24.22374 24.22374 0 0 1 0 48.005484z" /></svg>