<?xml version="1.0" standalone="no"?><!DOCTYPE svg PUBLIC "-//W3C//DTD SVG 1.1//EN" "http://www.w3.org/Graphics/SVG/1.1/DTD/svg11.dtd"><svg class="icon" width="200px" height="200.00px" viewBox="0 0 1024 1024" version="1.1" xmlns="http://www.w3.org/2000/svg"><path fill="#000000" d="M477.696 477.696h-273.92C128 477.696 66.56 415.744 66.56 340.48V203.776C66.56 128 128 66.56 203.776 66.56h137.216c75.264 0 137.216 61.44 137.216 137.216l-0.512 273.92zM222.208 128C174.08 128 128 174.08 128 222.208v99.84c0 48.128 46.08 94.208 94.208 94.208h194.048V222.208c0-48.128-46.08-94.208-94.208-94.208h-99.84z m324.096 349.696v-273.92c0-75.264 61.44-137.216 137.216-137.216h137.216C896 66.56 957.44 128 957.44 203.776v137.216c0 75.264-61.44 137.216-137.216 137.216l-273.92-0.512zM701.952 128c-48.128 0-94.208 46.08-94.208 94.208v194.048h194.048c48.128 0 94.208-46.08 94.208-94.208v-99.84C896 174.08 849.92 128 801.792 128h-99.84zM477.696 546.304v273.92c0 75.264-61.44 137.216-137.216 137.216H203.776C128 957.44 66.56 896 66.56 820.224V683.008c0-75.264 61.44-137.216 137.216-137.216l273.92 0.512zM322.048 896c48.128 0 94.208-46.08 94.208-94.208V607.744H222.208c-48.128 0-94.208 46.08-94.208 94.208v99.84C128 849.92 174.08 896 222.208 896h99.84z m224.256-349.696h273.92c75.264 0 137.216 61.44 137.216 137.216v137.216c0 75.264-61.44 137.216-137.216 137.216H683.008c-75.264 0-137.216-61.44-137.216-137.216l0.512-274.432zM806.912 896C855.04 896 896 849.92 896 801.792v-99.84c0-48.128-46.08-94.208-94.208-94.208H607.744v194.048c0 48.128 46.08 94.208 94.208 94.208h104.96z"  /></svg>