<?xml version="1.0" standalone="no"?><!DOCTYPE svg PUBLIC "-//W3C//DTD SVG 1.1//EN" "http://www.w3.org/Graphics/SVG/1.1/DTD/svg11.dtd"><svg t="1574152220937" class="icon" viewBox="0 0 1340 1024" version="1.1" xmlns="http://www.w3.org/2000/svg" p-id="3901" xmlns:xlink="http://www.w3.org/1999/xlink" width="167.5" height="128"><defs><style type="text/css"></style></defs><path d="M506.136812 364.907599C459.368212 364.907599 421.373952 400.946334 421.373952 445.245676 421.373952 489.587318 459.368212 525.588165 506.136812 525.588165 552.862878 525.588165 590.857216 489.587318 590.855641 445.245676 590.855641 400.944916 552.862878 364.907599 506.136812 364.907599L506.136812 364.907599ZM892.201039 480.378486C859.121034 480.378486 832.209526 505.901214 832.209526 537.319503 832.209526 568.67651 859.121034 594.177339 892.201039 594.177339 925.285612 594.177339 952.192551 568.67651 952.192551 537.319503 952.192551 505.901214 925.285612 480.378486 892.201039 480.378486L892.201039 480.378486ZM1173.08865 876.345423C1202.580086 861.424876 1222.846779 831.682875 1222.846779 797.314599L1222.846779 89.323678C1222.846779 39.996889 1181.207788 0 1129.937526 0L199.024798 0C147.743902 0 106.256542 39.996889 106.256542 89.323678L106.256542 797.314599C106.256542 831.684293 126.380662 861.424876 155.967646 876.345423L0 876.345423 0 894.194137C0 962.160404 57.188588 1017.215055 127.856404 1017.215055L1201.201388 1017.215055C1271.679606 1017.215055 1329.000212 962.160404 1329.000212 894.194137L1329.000212 876.345423 1173.08865 876.345423 1173.08865 876.345423ZM545.182169 599.00353 545.182169 663.818476 462.392556 663.818476 462.392556 597.853893C448.288453 594.177339 434.977556 588.744231 422.635835 581.879966L370.872635 631.713004 312.264389 575.338023 363.64989 525.951449C356.049526 513.777979 350.129703 500.570191 346.187697 486.618348L272.254346 486.618348 272.254346 406.904674 345.344394 406.904674C349.459298 391.315929 355.92515 376.640433 364.406784 363.250215L362.557834 365.028667 309.955899 314.431094 368.520192 258.078011 421.122127 308.695985 419.148879 310.614567C432.414247 302.778526 446.984034 296.699116 462.39106 292.68417L462.39106 227.203938 545.180672 227.203938 545.180672 291.530122C561.047237 295.186196 575.908234 301.004485 589.596751 308.592404L641.399414 258.822065 699.92574 315.134346 648.540239 364.523914C656.680566 377.565342 662.893095 391.803195 666.83967 406.904674L737.622725 406.904674 737.622725 486.618348 666.002432 486.618348C661.973937 500.934971 655.844825 514.465162 648.033595 526.918656L697.656714 574.630439 639.053036 631.00542 588.588111 582.446001C575.196869 589.778629 560.628578 595.410156 545.182169 599.00353L545.182169 599.00353ZM664.500854 956.877588C634.875904 956.877588 610.781026 933.619161 610.781026 904.895488 610.781026 876.117858 634.875904 852.814139 664.500854 852.814139 694.134863 852.814139 718.182715 876.117858 718.182715 904.895488 718.181218 933.619161 694.134863 956.877588 664.500854 956.877588L664.500854 956.877588ZM1056.184635 566.553758 1005.42401 566.553758C1002.569492 576.688994 998.243722 586.339958 992.703094 595.086257L1027.800379 628.90307 986.367685 668.803702 950.595426 634.416443C941.106727 639.668618 930.824743 643.645676 919.866368 646.147781L919.866368 692.025659 861.215586 692.025659 861.215586 645.323461C851.224891 642.739673 841.819609 638.901248 833.087724 634.038587L796.396308 669.33185 754.91966 629.410816 791.275835 594.439956C785.902041 585.817639 781.746176 576.473088 778.934114 566.556672L726.538476 566.556672 726.538476 510.165701 778.34563 510.165701C781.200148 499.099569 785.817127 488.700219 791.861327 479.230267L790.520517 480.463084 753.240615 444.644588 794.717342 404.743956 831.997164 440.582932 830.569945 441.939732C839.975227 436.386974 850.302661 432.106417 861.217162 429.216295L861.217162 382.877381 919.867865 382.877381 919.867865 428.409462C931.074993 430.994747 941.611796 435.092874 951.309785 440.546462L988.001201 405.289669 1029.482496 445.127522 993.083786 480.139185C998.836775 489.327616 1003.24289 499.420554 1006.015488 510.164204L1056.184635 510.164204 1056.184635 566.553758 1056.184635 566.553758Z" p-id="3902" fill="#1296db"></path></svg>