<?xml version="1.0" standalone="no"?><!DOCTYPE svg PUBLIC "-//W3C//DTD SVG 1.1//EN" "http://www.w3.org/Graphics/SVG/1.1/DTD/svg11.dtd"><svg class="icon" width="200px" height="200.00px" viewBox="0 0 1024 1024" version="1.1" xmlns="http://www.w3.org/2000/svg"><path fill="#000000" d="M974.504 756.928l-1.408-0.52c-40.808-14.472-58.968-58.264-40.376-97.312l0.768-1.592a209.8 209.8 0 0 0-37.744-38l-1.832 0.856c-39.096 18.568-82.952 0.424-97.44-40.32l-0.904-2.504a211.472 211.472 0 0 0-27.736-1.88c-8.528 0-16.968 0.584-25.224 1.568l-1.024 2.832c-14.512 40.736-58.376 58.888-97.456 40.32l-2.864-1.36a3.432 3.432 0 0 0-0.464-0.208 211.448 211.448 0 0 0-37.136 36.768c0.12 0.248 0.192 0.456 0.296 0.696l1.344 2.848c18.6 39.048 0.424 82.832-40.36 97.304l-2.976 1.072c-0.352 0.128-0.64 0.256-0.944 0.376a207.592 207.592 0 0 0-1.68 25.968c0 8.8 0.608 17.456 1.68 25.952 0.304 0.128 0.592 0.264 0.944 0.376l2.976 1.064c40.784 14.488 58.96 58.296 40.36 97.328l-1.344 2.856c-0.104 0.232-0.176 0.456-0.296 0.664a209.04 209.04 0 0 0 37.136 36.776c0.16-0.08 0.312-0.12 0.464-0.192l2.864-1.352c39.08-18.568 82.928-0.44 97.456 40.32l1.024 2.824c8.256 1 16.696 1.576 25.224 1.576 9.408 0 18.656-0.68 27.72-1.888l0.92-2.504c14.488-40.768 58.344-58.888 97.44-40.32l1.856 0.864a211.744 211.744 0 0 0 37.736-37.984l-0.784-1.64c-18.592-39.032-0.432-82.832 40.376-97.312l1.408-0.512c1.152-8.8 1.816-17.76 1.816-26.872a210.464 210.464 0 0 0-1.816-26.936zM767.832 901.016c-64.816 0-117.344-52.472-117.344-117.184s52.528-117.168 117.344-117.168c64.824 0 117.36 52.456 117.36 117.168s-52.544 117.184-117.36 117.184zM644.544 415.64L529.28 349.08V215.984l115.264-66.56 115.28 66.552V349.08l-115.28 66.56z m-59.264-98.888l59.264 34.224 59.28-34.224V248.32l-59.28-34.224-59.264 34.224v68.432zM333.144 415.64l-115.272-66.56V215.984l115.272-66.56 115.28 66.552V349.08l-115.28 66.56z m-59.272-98.888l59.272 34.224 59.28-34.224v-68.448l-59.28-34.224-59.272 34.224v68.448z m59.416 397.536l-115.272-66.536v-133.12l115.272-66.544 115.272 66.544v133.12l-115.272 66.536z m-59.272-98.864l59.272 34.208 59.272-34.208v-68.456l-59.272-34.216-59.272 34.216v68.456z"  /><path fill="#000000" d="M100.024 968V56h752.104v456h56V46.888C908.128 21.04 886.992 0 861.008 0H91.16C65.168 0 44.024 21.04 44.024 46.888v930.224c0 25.848 21.144 46.88 47.136 46.88h395.136v-56L100.024 968z"  /></svg>