<?xml version="1.0" standalone="no"?><!DOCTYPE svg PUBLIC "-//W3C//DTD SVG 1.1//EN" "http://www.w3.org/Graphics/SVG/1.1/DTD/svg11.dtd"><svg class="icon" width="200px" height="196.17px" viewBox="0 0 1044 1024" version="1.1" xmlns="http://www.w3.org/2000/svg"><path fill="#000000" d="M183.706 926.72c-10.24 0-15.36 0-25.6-5.12l-102.4-35.84c-40.96-15.36-66.56-61.44-51.2-107.52l189.44-680.96c5.12-25.6 20.48-46.08 40.96-56.32 20.48-10.24 40.96-10.24 61.44-5.12l102.4 35.84c40.96 15.36 66.56 61.44 51.2 107.52l-189.44 686.08c-5.12 25.6-20.48 40.96-40.96 56.32-15.36 5.12-25.6 5.12-35.84 5.12z m87.04-855.04c-5.12 0-10.24 0-15.36 5.12-15.36 5.12-20.48 15.36-25.6 30.72L40.346 788.48c-5.12 25.6 5.12 56.32 30.72 61.44l102.4 35.84c10.24 5.12 20.48 0 30.72 0 5.12-5.12 15.36-15.36 20.48-30.72l184.32-686.08c5.12-25.6-5.12-56.32-30.72-61.44l-102.4-35.84h-5.12z"  /><path fill="#000000" d="M226.56 186.88l11.622-33.894 145.255 49.92-11.623 33.894z m-34.048 124.672l11.674-33.894 145.254 49.92-11.674 33.894z m-32.358 119.86l11.673-33.895 145.255 49.92-11.674 33.894zM956.826 926.72h-87.04c-51.2 0-87.04-40.96-87.04-87.04v-716.8c0-51.2 40.96-87.04 87.04-87.04h87.04c51.2 0 87.04 40.96 87.04 87.04v711.68c5.12 51.2-35.84 92.16-87.04 92.16z m-87.04-855.04c-30.72 0-51.2 20.48-51.2 51.2v711.68c0 30.72 20.48 51.2 51.2 51.2h87.04c30.72 0 51.2-20.48 51.2-51.2V122.88c0-30.72-20.48-51.2-51.2-51.2h-87.04z"  /><path fill="#000000" d="M839.066 163.84h153.6v40.96h-153.6z m0 128h153.6v40.96h-153.6z m0 128h153.6v40.96h-153.6z m-184.32 506.88h-87.04c-51.2 0-87.04-40.96-87.04-87.04v-716.8c0-51.2 40.96-87.04 87.04-87.04h87.04c51.2 0 87.04 40.96 87.04 87.04v711.68c0 51.2-40.96 92.16-87.04 92.16z m-92.16-855.04c-30.72 0-51.2 20.48-51.2 51.2v711.68c0 30.72 20.48 51.2 51.2 51.2h87.04c30.72 0 51.2-20.48 51.2-51.2V122.88c0-30.72-20.48-51.2-51.2-51.2h-87.04z"  /><path fill="#000000" d="M531.866 163.84h153.6v40.96h-153.6z m0 128h153.6v40.96h-153.6z m0 128h153.6v40.96h-153.6z m378.88 384c-40.96 0-71.68-30.72-71.68-71.68s30.72-71.68 71.68-71.68 71.68 30.72 71.68 71.68-30.72 71.68-71.68 71.68z m0-102.4c-15.36 0-30.72 15.36-30.72 30.72s15.36 30.72 30.72 30.72 30.72-15.36 30.72-30.72-10.24-30.72-30.72-30.72z m-302.08 102.4c-40.96 0-71.68-30.72-71.68-71.68s30.72-71.68 71.68-71.68 71.68 30.72 71.68 71.68-30.72 71.68-71.68 71.68z m0-102.4c-15.36 0-30.72 15.36-30.72 30.72s15.36 30.72 30.72 30.72 30.72-15.36 30.72-30.72-10.24-30.72-30.72-30.72z m-450.56 102.4c-40.96 0-71.68-30.72-71.68-71.68s30.72-71.68 71.68-71.68 71.68 30.72 71.68 71.68-35.84 71.68-71.68 71.68z m0-102.4c-15.36 0-30.72 15.36-30.72 30.72s15.36 30.72 30.72 30.72 30.72-15.36 30.72-30.72-15.36-30.72-30.72-30.72z"  /></svg>