<?xml version="1.0" standalone="no"?><!DOCTYPE svg PUBLIC "-//W3C//DTD SVG 1.1//EN" "http://www.w3.org/Graphics/SVG/1.1/DTD/svg11.dtd"><svg class="icon" width="200px" height="200.00px" viewBox="0 0 1024 1024" version="1.1" xmlns="http://www.w3.org/2000/svg"><path fill="#000000" d="M898.822 417.182L405.795 910.221l-7.58 60.697c0 7.58-3.796 26.535 11.376 41.706C420.978 1024 432.354 1024 439.933 1024h11.388l60.673-7.58 493.027-493.05z m0 0"  /><path fill="#000000" d="M303.403 948.178H140.326c-26.547 0-45.502-19.013-45.502-41.764v-788.85c0-22.752 18.967-41.719 45.513-41.719h667.469c26.558 0 45.514 18.967 45.514 41.718v185.84c0 22.751 15.171 37.957 37.957 37.957s37.957-15.171 37.957-37.957v-185.84C929.234 53.093 876.14 0 807.864 0H140.326C72.061 0 18.967 53.094 18.967 117.563v788.85c0 64.482 53.094 117.564 121.359 117.564h163.077c22.751 0 37.957-15.16 37.957-37.957s-15.171-37.957-37.957-37.957z m0 0"  /><path fill="#000000" d="M322.37 682.651h-75.856c-22.752 0-37.957 15.172-37.957 37.957s15.16 37.957 37.957 37.957h75.856c22.751 0 37.957-15.16 37.957-37.957s-15.171-37.957-37.957-37.957z m417.182-455.104c0-22.752-18.978-37.957-41.718-37.957H250.31c-22.762 0-41.718 15.16-41.718 37.957s18.956 37.957 41.718 37.957h447.525c22.74 0 41.718-15.172 41.718-37.957zM250.31 417.182c-22.762 0-41.718 15.16-41.718 37.957s18.956 37.957 41.718 37.957h333.746c22.751 0 41.718-15.171 41.718-37.957s-18.967-37.957-41.718-37.957z m0 0"  /></svg>