<?xml version="1.0" standalone="no"?><!DOCTYPE svg PUBLIC "-//W3C//DTD SVG 1.1//EN" "http://www.w3.org/Graphics/SVG/1.1/DTD/svg11.dtd"><svg t="1540956113033" class="icon" style="" viewBox="0 0 1127 1024" version="1.1" xmlns="http://www.w3.org/2000/svg" p-id="1656" xmlns:xlink="http://www.w3.org/1999/xlink" width="140.875" height="128"><defs><style type="text/css"></style></defs><path d="M741.23141575 289.82629718L434.18750066 596.87021227 294.33530709 457.0180187 98.75253931 652.60078649l28.39104626 70.4518565 167.19172152-168.24324096L434.18750066 694.66159673l334.38344192-335.43496249 56.78209365 56.78209366 55.73057422-237.64357803L685.50084267 234.09572409z" p-id="1657"></path><path d="M547.7516891 953.33557931H239.65625344c-89.37922219 0-162.98563925-73.60641821-162.98563925-162.98563925v-599.36654678c0-89.37922219 73.60641821-162.98563925 162.98563925-162.98563925h476.33867662v73.60641821H239.65625344c-49.42145195 0-89.37922219 39.95777024-89.37922219 89.37922104v599.36654678c0 49.42145195 39.95777024 89.37922219 89.37922219 89.37922104h308.09543566v73.60641821zM902.11401501 953.33557931H671.83107869v-73.60641821h230.28293632c49.42145195 0 89.37922219-39.95777024 89.37922218-89.37922104V341.35079026h73.6064182v447.94762923c0 90.43074162-73.60641821 164.03715982-162.98564038 164.03715982z" p-id="1658"></path></svg>