<?xml version="1.0" standalone="no"?><!DOCTYPE svg PUBLIC "-//W3C//DTD SVG 1.1//EN" "http://www.w3.org/Graphics/SVG/1.1/DTD/svg11.dtd"><svg t="1532142645240" class="icon" style="" viewBox="0 0 1024 1024" version="1.1" xmlns="http://www.w3.org/2000/svg" p-id="3087" xmlns:xlink="http://www.w3.org/1999/xlink" width="64" height="64"><defs><style type="text/css"></style></defs><path d="M670.86336 263.51616c-42.98752-38.8608-101.5808-62.17728-160.19456-58.29632-113.3056 7.7824-199.2704 97.15712-203.17184 205.9776-3.91168 73.84064 31.25248 139.90912 89.86624 182.66112 3.90144 3.8912 11.71456 19.42528 35.16416 81.6128 7.81312 19.42528 27.3408 31.08864 46.87872 31.08864h85.9648c19.52768 0 39.0656-11.66336 46.87872-31.08864 27.35104-62.18752 35.16416-77.7216 35.16416-81.6128C702.11584 554.98752 737.28 488.92928 737.28 418.9696c0-58.29632-23.4496-112.70144-66.41664-155.45344z m-42.98752 303.13472c-3.90144 3.8912-11.71456 7.7824-46.87872 97.15712-3.91168 7.7824-7.81312 11.66336-15.62624 11.66336h-85.9648c-7.81312 0-11.71456-3.8912-15.62624-11.66336-35.16416-85.504-42.97728-93.26592-46.88896-93.26592-50.7904-34.97984-78.1312-93.2864-78.1312-155.45344 3.8912-93.2864 78.1312-171.008 171.90912-174.8992h11.71456c46.8992 0 89.86624 15.55456 125.0304 50.5344 35.16416 34.9696 58.61376 81.6128 58.61376 132.13696-3.91168 54.40512-31.26272 112.70144-78.15168 143.79008z" fill="#bfbfbf" p-id="3088"></path><path d="M588.8 710.8096H442.88c-7.68 0-15.36 7.74144-15.36 15.48288s7.68 15.48288 15.36 15.48288H588.8c7.68 0 15.36-7.74144 15.36-15.48288s-7.68-15.48288-15.36-15.48288z m-7.68 38.7072H450.56c-7.68 0-15.36 7.75168-15.36 15.49312-3.84 11.61216 3.84 19.3536 15.36 19.3536h134.4c7.68 0 15.36-7.74144 15.36-15.48288-3.84-11.61216-7.68-19.3536-19.2-19.3536z m-23.04 38.7072h-84.48c-7.68 0-15.36 7.75168-15.36 15.49312 0 7.74144 7.68 15.48288 15.36 15.48288h84.48c7.68 0 15.36-7.74144 15.36-15.48288s-7.68-15.48288-15.36-15.48288z m-72.96-479.98976c-46.08 11.61216-84.48 50.31936-96 96.768 0 11.61216 3.84 19.3536 15.36 19.3536h3.84c7.68 0 15.36-3.87072 15.36-11.61216 7.68-34.83648 34.56-65.80224 72.96-73.54368 3.84 0 11.52-11.61216 7.68-19.3536 0-7.74144-7.68-15.48288-19.2-11.61216z" fill="#bfbfbf" p-id="3089"></path><path d="M680.96 778.24C621.57824 778.24 573.44 730.10176 573.44 670.72S621.57824 563.2 680.96 563.2 788.48 611.33824 788.48 670.72 740.34176 778.24 680.96 778.24z m-53.5552-90.54208h108.46208v-20.48H627.4048v20.48z" fill="#bfbfbf" p-id="3090"></path></svg>