<?xml version="1.0" standalone="no"?><!DOCTYPE svg PUBLIC "-//W3C//DTD SVG 1.1//EN" "http://www.w3.org/Graphics/SVG/1.1/DTD/svg11.dtd"><svg class="icon" width="200px" height="199.61px" viewBox="0 0 1026 1024" version="1.1" xmlns="http://www.w3.org/2000/svg"><path fill="#000000" d="M424.277 1008.64V707.072h30.72c28.672 0 51.2-23.04 51.2-51.2V441.856c0-28.672-23.04-51.2-51.2-51.2h-163.84c-28.16 0-51.2 23.04-51.2 51.2v214.016c0 28.16 23.04 51.2 51.2 51.2h30.72v301.568h-66.56V767.488c-48.64-15.872-81.408-60.928-81.408-111.616V441.856c0-64.512 52.736-117.248 117.248-117.248h163.84c64.512 0 117.76 52.736 117.76 117.248v214.016c-0.512 50.688-33.28 95.744-81.408 111.616v241.152h-67.072z m537.088-86.528c-34.816 0-63.488-28.16-63.488-63.488 0-34.816 28.16-63.488 63.488-63.488s63.488 28.16 63.488 63.488-28.672 63.488-63.488 63.488z m-248.32-30.208v-5.632c-5.632-3.584-9.728-8.704-12.288-14.848-2.048-4.608-3.072-9.216-3.584-13.824V542.208h-47.616c-8.704-0.512-16.896-4.608-23.04-10.752-6.144-6.144-9.216-14.848-8.192-23.552 0.512-16.896 14.336-30.72 31.232-31.232h47.616V160.768c0-6.656 1.536-13.312 6.144-18.944 6.656-9.728 16.896-15.872 27.648-15.872h84.48c9.728 0 17.408 4.096 23.552 10.24 6.144 6.144 9.216 15.36 9.216 23.552-0.512 17.408-14.336 31.232-31.744 32.256h-52.736v284.16h52.736c17.92 0 33.28 14.848 33.28 33.28 0 17.92-14.848 33.28-33.28 33.28h-52.736v283.136h52.224c17.92 0 33.28 15.36 33.28 33.28s-14.848 33.28-33.28 33.28l-102.912-0.512z m248.32-319.488c-34.816 0-63.488-28.672-63.488-63.488s28.672-63.488 63.488-63.488 63.488 28.672 63.488 63.488c0 35.328-28.672 63.488-63.488 63.488zM373.077 278.528c-75.264 0-135.68-60.928-135.68-135.68s60.928-135.68 135.68-135.68 135.68 60.928 135.68 135.68c-0.512 75.264-60.928 135.68-135.68 135.68z m0-204.8c-37.888 0-69.632 31.232-69.632 69.632 0 37.888 31.232 69.632 69.632 69.632s69.632-31.744 69.632-69.632-31.744-69.632-69.632-69.632zM961.365 222.72c-34.816 1.024-64.512-26.624-65.536-61.44s26.624-64.512 61.44-65.536h4.096c34.816-1.024 64.512 26.624 65.536 61.44s-26.624 64.512-61.44 65.536h-4.096z" /></svg>