<?xml version="1.0" standalone="no"?><!DOCTYPE svg PUBLIC "-//W3C//DTD SVG 1.1//EN" "http://www.w3.org/Graphics/SVG/1.1/DTD/svg11.dtd"><svg t="1548724635850" class="icon" style="" viewBox="0 0 1024 1024" version="1.1" xmlns="http://www.w3.org/2000/svg" p-id="5461" xmlns:xlink="http://www.w3.org/1999/xlink" width="300" height="300"><defs><style type="text/css"></style></defs><path d="M186 308h652v50H186zM512 574c-36.393 0-66-29.607-66-66s29.607-66 66-66 66 29.607 66 66-29.607 66-66 66z m0-100c-18.748 0-34 15.252-34 34 0 18.748 15.252 34 34 34 18.748 0 34-15.252 34-34 0-18.748-15.252-34-34-34zM318 574c-36.393 0-66-29.607-66-66s29.607-66 66-66 66 29.607 66 66-29.607 66-66 66z m0-100c-18.748 0-34 15.252-34 34 0 18.748 15.252 34 34 34s34-15.252 34-34c0-18.748-15.252-34-34-34zM706 574c-36.393 0-66-29.607-66-66s29.607-66 66-66 66 29.607 66 66-29.607 66-66 66z m0-100c-18.748 0-34 15.252-34 34 0 18.748 15.252 34 34 34s34-15.252 34-34c0-18.748-15.252-34-34-34z" fill="#707070" p-id="5462"></path><path d="M512 773c-36.393 0-66-29.607-66-66s29.607-66 66-66 66 29.607 66 66-29.607 66-66 66z m0-100c-18.748 0-34 15.252-34 34s15.252 34 34 34c18.748 0 34-15.252 34-34s-15.252-34-34-34zM318 773c-36.393 0-66-29.607-66-66s29.607-66 66-66 66 29.607 66 66-29.607 66-66 66z m0-100c-18.748 0-34 15.252-34 34s15.252 34 34 34 34-15.252 34-34-15.252-34-34-34zM706 773c-36.393 0-66-29.607-66-66s29.607-66 66-66 66 29.607 66 66-29.607 66-66 66z m0-100c-18.748 0-34 15.252-34 34s15.252 34 34 34 34-15.252 34-34-15.252-34-34-34z" fill="#707070" p-id="5463"></path><path d="M772 937H252c-63.411 0-115-51.589-115-115V242c0-63.411 51.589-115 115-115h520c63.411 0 115 51.589 115 115v580c0 63.411-51.589 115-115 115zM252 177c-35.841 0-65 29.159-65 65v580c0 35.841 29.159 65 65 65h520c35.841 0 65-29.159 65-65V242c0-35.841-29.159-65-65-65H252z" fill="#707070" p-id="5464"></path></svg>