<?xml version="1.0" standalone="no"?><!DOCTYPE svg PUBLIC "-//W3C//DTD SVG 1.1//EN" "http://www.w3.org/Graphics/SVG/1.1/DTD/svg11.dtd"><svg class="icon" width="32px" height="32.00px" viewBox="0 0 1024 1024" version="1.1" xmlns="http://www.w3.org/2000/svg"><path fill="#FFFFFF" d="M781.474 291.032H242.526c-21.558 0-40.42 18.863-40.42 40.42V466.19c0 21.558 18.862 40.422 40.42 40.422h538.948c21.558 0 40.42-18.864 40.42-40.422V331.453c0-24.253-18.862-40.421-40.42-40.421z m-307.2 175.157l40.42-137.431h126.653l-40.42 137.431H474.273z m-234.442-2.694l2.694-134.737h234.442l-40.42 137.431-196.716-2.694z m544.336 0c0 2.694-2.694 2.694 0 0h-142.82l40.42-137.432h102.4v137.432z m10.78 148.21H582.062c-10.779 0-18.863 8.084-18.863 18.863s8.084 18.864 18.863 18.864h212.884c10.78 0 18.864-8.085 18.864-18.864s-8.085-18.863-18.864-18.863z m-509.306 0h-64.674c-10.779 0-18.863 8.084-18.863 18.863s8.084 18.864 18.863 18.864h64.674c10.78 0 18.863-8.085 18.863-18.864s-8.084-18.863-18.863-18.863z m148.21 0h-67.368c-10.779 0-18.863 8.084-18.863 18.863s8.084 18.864 18.863 18.864h67.369c10.779 0 18.863-8.085 18.863-18.864s-8.084-18.863-18.863-18.863z"  /><path fill="#FFFFFF" d="M889.263 177.853h-53.895l-40.42-70.064c-29.643-48.505-75.453-70.063-137.432-72.757H371.874c-64.674 0-113.18 24.252-142.821 72.757l-37.727 70.064h-56.59c-26.947 0-48.504 21.558-48.504 48.505V711.41c0 26.947 21.557 48.505 48.505 48.505h78.147v123.958c2.695 2.694 2.695 2.694 2.695 5.39l61.979 61.978c32.337 32.337 51.2 37.726 94.316 37.726h280.252c43.116 0 61.98-5.39 94.316-37.726l61.98-61.979c0-2.695 2.694-2.695 2.694-5.39V759.917h78.147c26.948 0 48.505-21.558 48.505-48.505V226.358c0-26.947-21.557-48.505-48.505-48.505z m-627.874-51.2c24.253-37.727 59.285-53.895 110.485-53.895h277.558c53.894 0 86.231 16.168 110.484 53.895l26.947 51.2h-552.42l26.946-51.2z m512 741.052l-56.589 56.59c-24.253 24.252-32.337 24.252-67.368 24.252H369.179c-35.032 0-43.116-2.694-67.368-24.252l-56.59-56.59v-107.79h64.674v75.453c0 10.78 8.084 18.864 18.863 18.864s18.863-8.085 18.863-18.864v-75.452h83.537v75.452c0 10.78 8.084 18.864 18.863 18.864s18.863-8.085 18.863-18.864v-75.452h83.537v75.452c0 10.78 8.084 18.864 18.863 18.864s18.863-8.085 18.863-18.864v-75.452h83.537v75.452c0 10.78 8.084 18.864 18.863 18.864s18.864-8.085 18.864-18.864v-75.452h59.284v107.79z m126.653-156.294c0 5.389-5.39 10.778-10.779 10.778H134.737c-5.39 0-10.78-5.389-10.78-10.778V226.358c0-5.39 5.39-10.78 10.78-10.78h754.526c5.39 0 10.78 5.39 10.78 10.78V711.41z"  /></svg>