<?xml version="1.0" standalone="no"?><!DOCTYPE svg PUBLIC "-//W3C//DTD SVG 1.1//EN" "http://www.w3.org/Graphics/SVG/1.1/DTD/svg11.dtd"><svg class="icon" width="200px" height="200.00px" viewBox="0 0 1024 1024" version="1.1" xmlns="http://www.w3.org/2000/svg"><path fill="#000000" d="M377.856 957.44c-74.24 0-148.48-31.744-200.192-85.504-105.984-108.032-105.984-272.384 0-407.04l74.24-94.72c40.448-51.712 69.632-90.112 94.72-114.688l2.048-2.048c9.216-9.216 22.528-13.312 38.4-11.264 9.216 2.048 15.872 4.608 22.528 11.264 22.528 27.136 53.76 65.024 101.376 123.904l69.632 87.552c103.424 130.56 103.424 301.568 0 407.04-56.32 53.76-128.512 85.504-202.752 85.504z m-2.048-636.416c-18.432 22.016-43.008 51.712-72.192 89.6l-74.24 94.72c-83.456 108.032-85.504 236.032-4.608 319.488 40.448 40.448 94.72 65.024 153.088 65.024s112.64-22.528 153.088-65.024c80.896-83.456 78.848-213.504-4.608-319.488l-69.632-88.064c-36.352-42.496-60.928-74.24-80.896-96.256z m393.728 157.184c-40.448 0-83.456-15.872-114.688-47.104-60.928-60.928-60.928-150.528 0-227.328 38.4-47.104 67.584-83.456 87.552-108.032l24.576-29.184 24.576 29.184c29.184 33.792 65.024 76.288 90.112 108.032v2.048c58.368 62.976 58.368 161.792 0 224.768-31.232 31.744-71.68 47.616-112.128 47.616z m-2.56-305.664c-17.92 20.48-38.4 45.056-60.928 76.288-38.4 47.104-40.448 101.376-4.608 137.216s96.768 35.84 132.608 0c33.792-35.84 33.792-96.768 0-132.608L832 248.832c-19.968-24.576-42.496-51.712-65.024-76.288z" /></svg>