<?xml version="1.0" standalone="no"?><!DOCTYPE svg PUBLIC "-//W3C//DTD SVG 1.1//EN" "http://www.w3.org/Graphics/SVG/1.1/DTD/svg11.dtd"><svg t="1532140106518" class="icon" style="" viewBox="0 0 1024 1024" version="1.1" xmlns="http://www.w3.org/2000/svg" p-id="1663" xmlns:xlink="http://www.w3.org/1999/xlink" width="64" height="64"><defs><style type="text/css"></style></defs><path d="M581.969077 855.97207h-143.002493c-51.583042 0-90.908728-36.77207-91.419452-85.801496-1.53217-23.493267-4.596509-52.604489-7.150125-59.243891-4.596509-11.23591-12.76808-22.982544-19.918204-29.621945-61.286783-56.179551-96.526683-136.873815-96.526683-221.653865 0-163.431421 128.702244-296.219451 286.51571-296.219452s286.515711 132.78803 286.515711 296.219452c0 84.269327-34.729177 164.452868-95.505237 220.632419-16.853865 15.321696-22.47182 24.514713-24.514713 28.600499-1.53217 7.660848-3.064339 36.77207-3.064339 60.265336-0.510723 49.54015-39.836409 86.822943-91.930175 86.822943z m-71.501247-643.000499c-130.745137 0-236.975561 110.826933-236.975561 247.190025 0 70.990524 29.111222 138.405985 80.694265 185.392519 12.257357 11.23591 24.00399 28.600499 31.664838 46.47581 6.128678 14.810973 9.703741 53.625935 11.23591 76.097756v1.532169c0 25.53616 21.961097 37.282793 41.879302 37.282793h143.002493c20.428928 0 41.879302-11.746633 41.879302-37.282793 0.510723-64.351122 5.617955-75.587032 7.150125-79.162094 5.617955-13.278803 17.364589-28.089776 36.77207-45.454364 50.561596-46.986534 79.672818-114.401995 79.672818-184.371073 0-136.873815-106.230424-247.700748-236.975562-247.700748z m165.985038 496.933666zM589.629925 921.344638h-158.324189c-13.789526 0-24.514713-11.23591-24.514714-24.514713s11.23591-24.514713 24.514714-24.514713h157.813466c13.789526 0 24.514713 11.23591 24.514713 24.514713s-10.725187 24.514713-24.00399 24.514713zM589.629925 984.674314h-158.324189c-13.789526 0-24.514713-11.23591-24.514714-24.514713s11.23591-24.514713 24.514714-24.514713h157.813466c13.789526 0 24.514713 11.23591 24.514713 24.514713s-10.725187 24.514713-24.00399 24.514713zM485.953117 1024h49.029427c12.76808 0 41.368579-11.23591 41.368578-25.53616H444.584539c0 13.789526 27.579052 25.53616 41.368578 25.53616zM510.46783 128.702244c-16.343142 0-29.111222-13.278803-29.111222-29.111222V31.664838C481.356608 15.321696 494.635411 2.553616 510.46783 2.553616s29.111222 13.278803 29.111222 29.111222v67.415461c0 16.343142-12.76808 29.621945-29.111222 29.621945zM807.198005 777.320698c-7.660848 0-14.810973-3.064339-20.939651-8.682294l-38.814962-38.814963c-11.23591-11.23591-11.23591-30.132668 0-41.368578 11.23591-11.23591 30.132668-11.23591 41.368578 0l38.814963 38.814962c11.23591 11.23591 11.23591 30.132668 0 41.368579-5.617955 5.617955-12.76808 8.682294-20.428928 8.682294zM252.552618 222.675312c-7.660848 0-14.810973-3.064339-20.93965-8.682295l-38.814963-38.814962c-11.23591-11.23591-11.23591-30.132668 0-41.368579 11.23591-11.23591 30.132668-11.23591 41.368579 0l38.814962 38.814963c11.23591 11.23591 11.23591 30.132668 0 41.368578-5.107232 6.128678-12.76808 8.682294-20.428928 8.682295zM930.282294 480.590524h-67.415461c-16.343142 0-29.111222-13.278803-29.111222-29.111222s13.278803-29.111222 29.111222-29.111222h67.415461c16.343142 0 29.111222 13.278803 29.111222 29.111222s-13.278803 29.111222-29.111222 29.111222zM158.579551 480.590524H90.653367c-16.343142 0-29.111222-13.278803-29.111222-29.111222s13.278803-29.111222 29.111222-29.111222h67.415461c16.343142 0 29.111222 13.278803 29.111222 29.111222s-12.76808 29.111222-28.600499 29.111222zM767.872319 222.675312c-7.660848 0-14.810973-3.064339-20.939651-8.682295-11.23591-11.23591-11.23591-30.132668 0-41.368578l38.814963-38.814963c11.23591-11.23591 30.132668-11.23591 41.368578 0 11.23591 11.23591 11.23591 30.132668 0 41.368579l-38.814962 38.814962c-5.107232 6.128678-12.76808 8.682294-20.428928 8.682295zM213.737656 777.320698c-7.660848 0-14.810973-3.064339-20.939651-8.682294-11.23591-11.23591-11.23591-30.132668 0-41.368579l38.814963-38.814962c11.23591-11.23591 30.132668-11.23591 41.368578 0 11.23591 11.23591 11.23591 30.132668 0 41.368578l-38.814962 38.814963c-5.617955 5.617955-12.76808 8.682294-20.428928 8.682294z" p-id="1664"></path><path d="M534.982544 830.946633h-49.54015v-183.349626L409.855362 518.38404c-4.596509-7.660848-4.596509-16.853865 0-24.514713s12.76808-12.257357 21.450374-12.257357h164.963591c9.193017 0 17.364589 5.107232 21.450374 12.76808 4.085786 7.660848 4.085786 17.364589-1.021447 25.025436l-82.226434 128.702245v182.838902z m-60.265337-300.305236l36.77207 62.818952 40.347132-62.818952H474.717207z" p-id="1665"></path></svg>