<svg t="1573838382230" class="icon" viewBox="0 0 1024 1024" version="1.1" xmlns="http://www.w3.org/2000/svg" p-id="5911" width="128" height="128"><path d="M938.666667 601.6c-4.266667-34.133333-17.066667-72.533333-34.133333-98.133333-17.066667-29.866667-34.133333-51.2-55.466667-72.533333-21.333333-21.333333-38.4-38.4-59.733333-51.2-21.333333-17.066667-38.4-29.866667-55.466667-42.666667-17.066667-12.8-29.866667-25.6-42.666667-38.4-8.533333-8.533333-12.8-12.8-21.333333-21.333333L669.866667 226.133333c4.266667-4.266667 4.266667-8.533333 8.533333-12.8 4.266667-4.266667 8.533333-8.533333 12.8-12.8 8.533333-8.533333 12.8-17.066667 21.333333-25.6 4.266667-4.266667 8.533333-8.533333 25.6-17.066667 8.533333-4.266667 17.066667-12.8 25.6-21.333333 8.533333-8.533333 12.8-21.333333 12.8-29.866667 4.266667-12.8 0-25.6-4.266667-34.133333-8.533333-12.8-17.066667-21.333333-34.133333-25.6l0 0C725.333333 42.666667 716.8 42.666667 708.266667 42.666667c-8.533333 0-12.8 4.266667-21.333333 4.266667-4.266667 0-12.8 4.266667-17.066667 8.533333 0 0-4.266667 0-8.533333 0l-4.266667 0c-4.266667 0-8.533333-4.266667-8.533333-4.266667C644.266667 46.933333 640 42.666667 635.733333 42.666667c-8.533333-8.533333-17.066667-12.8-29.866667-12.8-21.333333-8.533333-38.4-8.533333-55.466667-4.266667C537.6 25.6 524.8 34.133333 512 42.666667l0 0-4.266667 4.266667c0 0-4.266667 0-4.266667-4.266667 0 0-4.266667 0-4.266667-4.266667l-4.266667 0c-12.8-8.533333-25.6-12.8-42.666667-17.066667-17.066667 0-34.133333 0-51.2 8.533333C384 42.666667 371.2 46.933333 366.933333 55.466667c0 0 0 0-8.533333 4.266667l0 0L354.133333 59.733333C345.6 55.466667 337.066667 55.466667 328.533333 51.2c-8.533333 0-17.066667-4.266667-25.6-4.266667-12.8 0-25.6 0-38.4 8.533333l0 0C243.2 68.266667 234.666667 93.866667 243.2 119.466667c8.533333 17.066667 17.066667 29.866667 34.133333 42.666667C285.866667 162.133333 290.133333 170.666667 298.666667 179.2c8.533333 8.533333 12.8 12.8 21.333333 21.333333l12.8 21.333333 8.533333 12.8c0 4.266667 4.266667 38.4 4.266667 46.933333L324.266667 302.933333l0 0C311.466667 315.733333 298.666667 328.533333 285.866667 341.333333 268.8 354.133333 251.733333 366.933333 234.666667 384c-25.6 21.333333-46.933333 42.666667-68.266667 64C145.066667 469.333333 128 499.2 115.2 529.066667 98.133333 554.666667 89.6 588.8 85.333333 622.933333c-4.266667 34.133333-4.266667 72.533333 4.266667 106.666667 8.533333 34.133333 21.333333 68.266667 42.666667 98.133333 21.333333 34.133333 51.2 64 85.333333 89.6 34.133333 25.6 76.8 46.933333 128 64 51.2 17.066667 106.666667 25.6 170.666667 25.6 64 0 115.2-8.533333 166.4-29.866667 51.2-12.8 93.866667-34.133333 128-55.466667 34.133333-25.6 64-55.466667 89.6-85.333333 21.333333-34.133333 34.133333-68.266667 42.666667-106.666667C942.933333 678.4 947.2 640 938.666667 601.6zM610.133333 584.533333c12.8 0 25.6 12.8 25.6 25.6 0 12.8-12.8 25.6-25.6 25.6l-72.533333 0 0 46.933333 72.533333 0c12.8 0 25.6 12.8 25.6 25.6 0 12.8-12.8 25.6-25.6 25.6l-72.533333 0 0 72.533333c0 12.8-12.8 25.6-25.6 25.6-12.8 0-25.6-12.8-25.6-25.6l0-72.533333L413.866667 733.866667c-12.8 0-25.6-12.8-25.6-25.6 0-12.8 12.8-25.6 25.6-25.6l72.533333 0 0-46.933333L413.866667 635.733333c-12.8 0-25.6-12.8-25.6-25.6 0-12.8 12.8-25.6 25.6-25.6l72.533333 0 0-12.8-89.6-89.6c-8.533333-8.533333-8.533333-25.6 0-34.133333 8.533333-8.533333 25.6-8.533333 34.133333 0l81.066667 81.066667 81.066667-81.066667c8.533333-8.533333 25.6-8.533333 34.133333 0 8.533333 8.533333 8.533333 25.6 0 34.133333l-89.6 85.333333 0 12.8L610.133333 580.266667zM640 170.666667c-4.266667 4.266667-8.533333 8.533333-12.8 17.066667-4.266667 8.533333-8.533333 12.8-12.8 21.333333-8.533333 12.8-8.533333 21.333333-8.533333 51.2l0 4.266667L405.333333 264.533333c0 0 0-4.266667 0-8.533333 0-25.6 0-38.4-8.533333-51.2C396.8 192 388.266667 183.466667 384 179.2 379.733333 170.666667 375.466667 166.4 371.2 162.133333 362.666667 149.333333 349.866667 140.8 341.333333 128 332.8 123.733333 324.266667 119.466667 320 110.933333c4.266667 0 12.8 4.266667 17.066667 4.266667 12.8 4.266667 21.333333 4.266667 34.133333 0C384 115.2 401.066667 110.933333 409.6 102.4c0 0 8.533333-4.266667 21.333333-12.8 4.266667 0 8.533333 0 12.8 0 8.533333 0 8.533333 4.266667 8.533333 4.266667 4.266667 4.266667 8.533333 8.533333 12.8 12.8 4.266667 0 8.533333 4.266667 12.8 8.533333 4.266667 4.266667 8.533333 4.266667 17.066667 8.533333l8.533333 4.266667 8.533333 0c8.533333 0 12.8 0 21.333333-8.533333 8.533333-4.266667 12.8-8.533333 21.333333-17.066667 8.533333-4.266667 12.8-8.533333 17.066667-8.533333 0 0 4.266667 0 12.8 0l0 0c4.266667 0 8.533333 4.266667 8.533333 4.266667 4.266667 4.266667 8.533333 8.533333 12.8 12.8 8.533333 4.266667 12.8 8.533333 21.333333 12.8 8.533333 4.266667 21.333333 8.533333 34.133333 8.533333 12.8 0 21.333333 0 29.866667-4.266667 4.266667 0 4.266667 0 8.533333-4.266667-12.8 8.533333-25.6 17.066667-34.133333 25.6C657.066667 149.333333 648.533333 157.866667 640 170.666667z" p-id="5912" fill="#ffffff"></path></svg>