<?xml version="1.0" standalone="no"?><!DOCTYPE svg PUBLIC "-//W3C//DTD SVG 1.1//EN" "http://www.w3.org/Graphics/SVG/1.1/DTD/svg11.dtd"><svg class="icon" width="32px" height="22.32px" viewBox="0 0 1468 1024" version="1.1" xmlns="http://www.w3.org/2000/svg"><path fill="#FFFFFF" d="M920.786 315.166l78.769-113.428 60.5 42.013-78.769 113.427zM653.696 119.67h73.656v138.099h-73.657zM346.97 237.128l60.5-42.018 78.77 113.428-60.495 42.018zM175.973 477.966l36.829-63.788L332.4 483.227l-36.828 63.788z m510.24-14.208a93.394 93.394 0 0 0-48.51 13.554l-324.112-49.64 281.607 154.09a94.285 94.285 0 1 0 91.254-118.004z m2.32 140.536a46.013 46.013 0 1 1 46.072-46.013 46.013 46.013 0 0 1-46.073 46.013z"  /><path fill="#FFFFFF" d="M866.402 695.012H54.217A638.358 638.358 0 0 1 1187.84 295.518c11.355-1.07 22.769-1.664 34.361-1.664a365.727 365.727 0 0 1 38.107 2.021A692.694 692.694 0 0 0 0 692.694a706.723 706.723 0 0 0 3.626 71.338h877.995a358.593 358.593 0 0 1-15.219-69.02z"  /><path fill="#FFFFFF" d="M1182.846 336.24A285.353 285.353 0 1 0 1468.2 621.594a285.353 285.353 0 0 0-285.353-285.352z m0 503.767a218.414 218.414 0 1 1 218.355-218.414 218.414 218.414 0 0 1-218.355 218.414z"  /><path fill="#FFFFFF" d="M1002.741 777.226q25.66 29.208-3.548 54.869l-207.498 182.29q-29.208 25.661-54.869-3.547-25.66-29.21 3.549-54.87l207.497-182.29q29.209-25.66 54.869 3.548zM1208.588 442.772C1271.9 488.43 1311.73 554.238 1311.73 627.42a213.42 213.42 0 0 1-53.504 138.753c53.028-36.026 86.616-89.173 86.616-148.621 0.238-76.154-55.227-142.26-136.255-174.779z"  /></svg>