<?xml version="1.0" standalone="no"?><!DOCTYPE svg PUBLIC "-//W3C//DTD SVG 1.1//EN" "http://www.w3.org/Graphics/SVG/1.1/DTD/svg11.dtd"><svg t="1578135255087" class="icon" viewBox="0 0 1024 1024" version="1.1" xmlns="http://www.w3.org/2000/svg" p-id="784" xmlns:xlink="http://www.w3.org/1999/xlink" width="200" height="200"><defs><style type="text/css"></style></defs><path d="M614.4 573.952m-20.992 0a20.992 20.992 0 1 0 41.984 0 20.992 20.992 0 1 0-41.984 0Z" p-id="785" fill="#ED6615"></path><path d="M692.736 473.088H331.776c-10.752 0-19.456 8.704-19.456 19.456V655.36c0 10.752 8.704 19.456 19.456 19.456h360.96c10.752 0 19.456-8.704 19.456-19.456V492.032c-0.512-10.24-9.216-18.944-19.456-18.944zM409.6 620.544c-25.6 0-46.592-20.992-46.592-46.592S384 527.36 409.6 527.36s46.592 20.992 46.592 46.592-20.992 46.592-46.592 46.592z m204.8 0c-25.6 0-46.592-20.992-46.592-46.592s20.992-46.592 46.592-46.592 46.592 20.992 46.592 46.592-20.992 46.592-46.592 46.592z" p-id="786" fill="#ED6615"></path><path d="M409.6 573.952m-20.992 0a20.992 20.992 0 1 0 41.984 0 20.992 20.992 0 1 0-41.984 0Z" p-id="787" fill="#ED6615"></path><path d="M512 66.56c-245.76 0-445.44 199.68-445.44 445.44s199.68 445.44 445.44 445.44 445.44-199.68 445.44-445.44-199.68-445.44-445.44-445.44z m232.96 588.288c0 29.184-23.552 52.736-52.736 52.736H331.776c-29.184 0-52.736-23.552-52.736-52.736V492.032c0-29.184 23.552-52.736 52.736-52.736h61.44V274.432c0-9.216 7.68-16.896 16.896-16.896s16.896 7.68 16.896 16.896v164.864h171.52V274.432c0-9.216 7.68-16.896 16.896-16.896s16.896 7.68 16.896 16.896v164.864h61.44c29.184 0 52.736 23.552 52.736 52.736v162.816z" p-id="788" fill="#ED6615"></path></svg>