<?xml version="1.0" standalone="no"?><!DOCTYPE svg PUBLIC "-//W3C//DTD SVG 1.1//EN" "http://www.w3.org/Graphics/SVG/1.1/DTD/svg11.dtd"><svg t="1591888012555" class="icon" viewBox="0 0 1024 1024" version="1.1" xmlns="http://www.w3.org/2000/svg" p-id="4718" xmlns:xlink="http://www.w3.org/1999/xlink" width="200" height="200"><defs><style type="text/css"></style></defs><path d="M204.8 1024H102.4V844.8h102.4V1024z m236.8 0H339.2V723.2h102.4V1024z m236.8 0H576V572.8h102.4V1024z m240 0H816V422.4h102.4V1024z m-96-883.2c-3.2 3.2-3.2 3.2-3.2 6.4 0 0 0 3.2-3.2 3.2-3.2 6.4-9.6 12.8-16 22.4-6.4 9.6-16 22.4-28.8 35.2-9.6 12.8-22.4 25.6-38.4 41.6-12.8 16-28.8 32-48 48l-25.6 25.6-12.8 12.8c-3.2 3.2-9.6 9.6-16 12.8-9.6 9.6-19.2 16-28.8 25.6-6.4 3.2-9.6 9.6-16 12.8-6.4 3.2-9.6 9.6-16 12.8-3.2 3.2-6.4 3.2-9.6 6.4-3.2 3.2-6.4 3.2-9.6 6.4-6.4 3.2-9.6 6.4-16 12.8-3.2 3.2-6.4 3.2-9.6 6.4l-9.6 6.4c-6.4 3.2-12.8 6.4-16 12.8-6.4 3.2-12.8 6.4-16 9.6-6.4 3.2-12.8 6.4-16 9.6-6.4 3.2-12.8 6.4-16 9.6-3.2-3.2-6.4 0-9.6 0-3.2 3.2-6.4 3.2-9.6 6.4-12.8 6.4-22.4 12.8-35.2 19.2-12.8 6.4-22.4 12.8-35.2 16-12.8 6.4-22.4 9.6-35.2 16-3.2 3.2-9.6 6.4-16 6.4-3.2 0-6.4 3.2-9.6 3.2-3.2 0-6.4 3.2-9.6 3.2-9.6 3.2-22.4 9.6-32 12.8l-28.8 9.6c0 3.2-3.2 3.2-6.4 3.2s-3.2 0-6.4 3.2c-3.2 0-9.6 3.2-12.8 3.2-3.2 0-9.6 3.2-12.8 3.2-3.2 0-3.2 0-6.4 3.2h-6.4c-9.6 3.2-16 3.2-22.4 6.4-6.4 3.2-12.8 3.2-19.2 3.2-22.4 6.4-38.4 9.6-38.4 9.6s12.8-3.2 35.2-9.6c6.4 0 12.8-3.2 19.2-6.4 6.4-3.2 12.8-3.2 22.4-6.4 3.2 0 3.2 0 6.4-3.2 3.2 0 3.2 0 6.4-3.2 3.2 0 9.6-3.2 12.8-3.2 3.2 0 9.6-3.2 12.8-3.2 3.2 0 3.2 0 6.4-3.2 3.2 0 3.2-3.2 6.4-3.2 9.6-3.2 19.2-6.4 28.8-12.8 9.6-3.2 19.2-9.6 32-12.8 3.2 0 6.4-3.2 9.6-3.2 3.2 0 6.4-3.2 9.6-3.2 6.4-3.2 9.6-6.4 16-6.4 9.6-6.4 22.4-9.6 32-16 12.8-6.4 22.4-12.8 35.2-19.2 12.8-6.4 22.4-12.8 35.2-19.2 3.2-3.2 6.4-3.2 9.6-6.4 3.2-3.2 6.4-3.2 9.6-6.4 6.4-3.2 12.8-6.4 16-9.6 6.4-3.2 9.6-6.4 16-12.8 6.4-3.2 9.6-6.4 16-12.8 6.4-3.2 9.6-9.6 16-12.8l9.6-6.4c3.2-3.2 6.4-3.2 9.6-6.4 6.4-3.2 9.6-9.6 16-12.8 3.2-3.2 6.4-3.2 6.4-6.4 3.2-3.2 6.4-3.2 6.4-6.4 6.4-3.2 9.6-9.6 16-12.8 6.4-3.2 9.6-9.6 16-12.8 9.6-9.6 19.2-16 28.8-25.6l12.8-12.8 12.8-12.8 25.6-25.6c16-16 32-32 44.8-48 12.8-16 25.6-28.8 35.2-41.6 9.6-12.8 19.2-25.6 25.6-35.2 6.4-9.6 12.8-16 16-22.4 0 0 0-3.2 3.2-3.2v-6.4l28.8 25.6z m16 179.2l-51.2-163.2-172.8 16L752 86.4 889.6 0 864 160l-25.6 160z" p-id="4719"></path></svg>