<?xml version="1.0" standalone="no"?><!DOCTYPE svg PUBLIC "-//W3C//DTD SVG 1.1//EN" "http://www.w3.org/Graphics/SVG/1.1/DTD/svg11.dtd"><svg class="icon" width="200px" height="200.00px" viewBox="0 0 1024 1024" version="1.1" xmlns="http://www.w3.org/2000/svg"><path fill="#000000" d="M144.64 726.4h734.72q29.12 0 29.12 29.12V784q0 29.12-29.12 29.12H144.64q-29.12 0-29.12-29.12v-28.48q0-29.12 29.12-29.12zM204.8 502.4h75.52v219.84H204.8z m179.52-123.84h75.52v343.68h-75.52zM564.16 502.4h75.52v219.84h-75.52z m179.52-123.84h75.52v343.68h-75.52z"  /><path fill="#000000" d="M776.32 240.96a37.76 37.76 0 0 0-37.76 37.76v4.48L608 375.68a39.36 39.36 0 0 0-20.8-7.04 33.92 33.92 0 0 0-16 4.16L458.56 256a54.4 54.4 0 0 0 0-7.04 37.76 37.76 0 0 0-75.52 0l-116.8 89.6a41.6 41.6 0 0 0-15.68-3.52 37.76 37.76 0 1 0 0 75.52 37.44 37.44 0 0 0 37.76-37.76 32 32 0 0 0-0.32-8.96l111.68-85.76a37.12 37.12 0 0 0 22.4 8.32 38.4 38.4 0 0 0 17.28-4.48l110.4 116.48a32 32 0 0 0-1.6 8 37.76 37.76 0 0 0 75.52 0v-3.2l133.76-92.8a37.12 37.12 0 0 0 19.52 6.08 37.76 37.76 0 0 0 0-75.52z"  /></svg>