<?xml version="1.0" standalone="no"?><!DOCTYPE svg PUBLIC "-//W3C//DTD SVG 1.1//EN" "http://www.w3.org/Graphics/SVG/1.1/DTD/svg11.dtd"><svg class="icon" width="200px" height="200.00px" viewBox="0 0 1024 1024" version="1.1" xmlns="http://www.w3.org/2000/svg"><path fill="#000000" d="M99.184 113.263v2.24l2.24-2.24h-2.24M255.99 471.678h2.24v2.24l-2.24-2.24m250.891 125.446v2.24l2.24-2.24h-2.24m237.45 20.16l2.24 2.24-2.24-2.24m51.523 38.082l2.24 2.24c0-2.24 0-4.48-2.24-2.24m4.48 8.96l2.24 2.24c0-2.24 0-4.48-2.24-2.24M435.198 789.773h2.24v2.24l-2.24-2.24m156.807 26.881h2.24v2.24l-2.24-2.24m-129.926 8.96h2.24v2.24l-2.24-2.24m170.248 6.72l2.24 2.241c2.24 2.24 2.24 2.24 0 0v-2.24h-2.24m-78.404 2.24l2.24 2.24c0-2.24 0-4.48-2.24-2.24m-47.042 17.92h2.24v2.24l-2.24-2.24m17.92 76.164h2.241v2.24l-2.24-2.24m31.361 15.68l2.24 2.24-2.24-2.24"  /><path fill="#000000" d="M108.144 99.822v2.24l2.24-2.24h-2.24m143.366 212.81h2.24-2.24m309.133 248.65c-2.24 2.24-2.24 2.24 0 0l2.24-2.24-2.24 2.24m120.966 4.48c-2.24 2.24-2.24 2.24 0 0l2.24-2.24-2.24 2.24m-161.287 17.921c-2.24 2.24-2.24 2.24 0 0l2.24-2.24-2.24 2.24m228.49 40.322v2.24l2.24-2.24h-2.24m-143.367 58.242v2.24h2.24c0-4.48 0-4.48-2.24-2.24m244.171 4.48h2.24v2.24h2.24l-4.48-4.48v2.24M578.564 709.13c-2.24 2.24-2.24 2.24 0 0l2.24-2.24-2.24 2.24m-6.72 8.96h2.24v-2.24l-2.24 2.24m212.81-2.24v2.24-2.24m87.363 26.881v13.44a665.309 665.309 0 0 0 0-13.44m-64.963-15.68l2.24 2.24v-2.24s-2.24 0 0 0l-2.24-2.24v2.24M482.24 753.93v4.48a100.804 100.804 0 0 0 0-4.48m-49.282 20.161l2.24 2.24v-2.24l-2.24-4.48v4.48m2.24 8.96l2.24 6.721v-6.72h-2.24l2.24-2.24h-2.24v2.24m338.255 17.92h2.24l2.24-2.24c0-2.24-2.24-2.24-4.48 2.24m-185.928 8.96h2.24-2.24m170.247 11.201v2.24l2.24-2.24h-2.24m-143.366 6.72h2.24-2.24m20.16 6.721l2.24 2.24v-2.24l-2.24-2.24v2.24m-452.499 22.4l2.24 2.241v-2.24l-2.24-2.24v2.24m-69.443 38.082l2.24 4.48v-2.24h-2.24v-2.24m593.626 0l2.24 4.48v-2.24l-2.24-2.24m-201.609 11.2l4.48 4.48v-2.24l-2.24-2.24h-2.24m-351.695 17.92l2.24 2.24v-2.24s-2.24 0 0 0l-2.24-2.24v2.24m239.69 4.481v2.24s4.48-2.24 2.24-4.48l-2.24 2.24m275.532 2.24l2.24 2.24-2.24-2.24m94.084 6.72l-2.24 2.24 4.48-4.48-2.24 2.24m-143.366 8.96l-2.24 2.24 4.48-4.48-2.24 2.24M159.666 66.22h2.24v-2.24l-2.24 2.24m-29.121 11.201v2.24h2.24v-2.24h-2.24m620.507 53.763l2.24 2.24h2.24l-2.24-2.24h-2.24M609.926 296.95v-2.24 2.24M251.51 404.475v2.24h2.24v-2.24h-2.24m318.094 152.327v2.24h-2.24l4.48-4.48-2.24 2.24m116.485 4.48v2.24h2.24v-2.24h-2.24m112.005 67.203v-2.24 2.24m-331.535 53.762v2.24l2.24-2.24h-2.24m154.567 71.683v-2.24 2.24m13.44 24.642l2.24 4.48v-2.24l-2.24-2.24m188.169 51.522v2.24c2.24 0 4.48-2.24 2.24-4.48l-2.24 2.24M618.886 946.579v-2.24 2.24M161.906 158.065c-2.24 2.24-2.24 2.24 0 0l2.24-4.48-2.24 4.48m439.06 152.326c-2.24 0-2.24 0 0 0l2.24-2.24-2.24 2.24m4.48 105.285l2.24 2.24v-2.24l-2.24-2.24v2.24M242.55 460.478l2.24 2.24v-2.24h-2.24m510.742 13.44l-2.24 2.24 4.48-2.24v-2.24l-2.24 2.24m-246.41 156.807l2.24 2.24v-2.24h-2.24m49.281 38.082c-2.24 0-2.24 0 0 0l2.24-2.24-2.24 2.24m35.842 24.64h2.24v-2.24l-2.24 2.24m219.53 89.605h2.24v-2.24l-2.24 2.24m-210.57 112.005h2.24v-2.24l-2.24 2.24"  /><path fill="#000000" d="M161.906 66.22h-6.72l-6.72 2.24-4.48 2.24c-4.48 0-6.72 2.241-6.72 4.481 2.24 0 0 0 0 0l-4.481 4.48h-2.24c-4.48 0-4.48 2.24-6.72 4.48l-2.24 2.24h-2.24l-2.24 2.24-2.24 2.24-2.24 4.481-2.241 2.24v2.24l-2.24 2.24h2.24-2.24l-2.24 2.24-2.24 2.24-2.24 4.48-2.24 4.48-2.24 4.481-2.24 4.48-2.24 8.96-2.24 6.72-2.241 353.936c0 362.896 0 356.176 2.24 356.176l2.24 6.72 2.24 8.96 2.24 6.72 2.24 4.48 2.24 2.24 2.24 4.481v2.24l2.24 2.24 2.24 2.24 2.241 2.24 2.24 4.48 2.24 2.24 2.24 2.24h2.24l2.24 2.241 2.24 2.24 2.24 2.24 2.24 2.24 2.24 2.24 4.481 2.24 2.24 2.24 6.72 2.24 4.48 2.24 6.72 2.24 8.961 2.24h4.48c-2.24 4.481-2.24 4.481 112.005 4.481h109.765l2.24-2.24 6.72-2.24 2.24-2.24 2.24-2.24 2.24-2.24 2.24-2.24 2.241-2.24 2.24-2.24 2.24-13.441-2.24-22.401-2.24-2.24-11.2-11.2-2.24-2.24h-2.24l-105.285-2.241H182.067v-2.24l-4.48-2.24-4.48-2.24-2.24-2.24-2.24-2.24-2.24-2.24-2.24-2.24-2.24-8.961h-2.24V494.079a4766.926 4766.926 0 0 1 8.96-347.215v-2.24c-2.24 0 0 0 0 0l2.24-2.24 2.24-2.24v-2.24h2.24l2.24-2.24 2.24-2.24h486.101v2.24l8.96 2.24v2.24l2.24 2.24v2.24l2.24 2.24 2.24 4.48 2.24 156.807c0 181.448 0 159.047 2.24 161.287l2.241 2.24 2.24 6.72 2.24 2.24 4.48 2.24 2.24 4.48 2.24 2.241h38.082v-2.24h2.24l4.48-2.24 2.24-4.48 2.24-2.24 2.24-2.24v-2.24h-2.24 2.24l2.24-172.488V135.664l-2.24-2.24-2.24-4.48-2.24-8.961-2.24-2.24-2.24-6.72-2.24-2.24-2.24-6.72-2.24-2.24-2.24-2.24-2.24-2.241-2.24-2.24-2.24-2.24-2.24-2.24-2.24-2.24-2.24-2.24-2.24-2.24-4.48-2.24-2.24-2.24-4.481-2.24h-2.24c0-4.481-2.24-4.481-6.72-4.481l-2.24-2.24-11.201-2.24h-4.48l-259.852-2.24-259.85 2.24m96.323 181.448l-4.48 2.24-4.48 2.24-2.24 2.24-2.24 2.24-2.24 2.24-2.24 4.48v2.24c-2.24-2.24-4.48 2.24-4.48 17.921l2.24 15.68 2.24 2.24c0 4.481 0 4.481 4.48 6.721l2.24 2.24 2.24 2.24 4.48 2.24v2.24h340.495v-2.24l2.24-2.24 2.24-2.24 2.24-2.24h-2.24 2.24l2.24-2.24 2.24-2.24 2.24-4.48 2.24-4.48 2.24-11.2c0-6.721 0-17.922-2.24-13.441l-2.24-6.72v-2.24l-4.48-4.481-2.24-2.24-2.24-2.24-6.72-2.24-4.48-2.24-2.24-2.24H260.47l-2.24 2.24m-4.48 156.806v2.24h-2.24c-4.48 0-6.72 2.24-6.72 4.48h-2.24l-2.24 4.48v2.24l-2.24 2.241h-2.24v15.68l2.24 15.681v2.24l2.24 2.24c0-2.24 0 0 0 0l2.24 4.48 2.24 2.24 2.24 2.241 2.24 2.24 8.96 2.24c0 4.48-2.24 4.48 165.768 4.48h163.527v-2.24l6.72-2.24 4.48-2.24 2.24-2.24 2.24-2.24 2.24-2.24 2.24-2.24v-4.48l2.24-2.24c4.48 0 4.48-24.642 0-29.122l-2.24-2.24-2.24-4.48-2.24-2.24v-2.24l-2.24-2.24-2.24-2.24h-4.48c0-4.48 2.24-4.48-170.247-4.48l-170.248 2.24m329.294 147.846l-2.24 2.24h-2.24l-8.96 2.24-4.48 2.24-4.48 2.24-4.48 2.24-4.48 2.24-4.481 2.24-2.24 2.24-6.72 2.24-2.24 2.24-4.48 2.24-4.481 2.24-2.24 2.241-4.48 2.24-4.48 2.24-2.24 2.24-2.24 4.48-2.24 4.48-2.24 2.24-2.24 2.24v29.122h4.48v26.881l-4.48 6.72-2.241 2.24-2.24 2.24-2.24 2.24-2.24 2.241-4.48 2.24-4.48 2.24c0 2.24-8.961 4.48-15.681 2.24l-2.24 2.24-6.72 2.24-8.961 2.24-4.48 2.24-2.24 4.48h-2.24l-2.24 2.241-2.24 2.24-2.24 20.16-2.24 20.162v6.72a181.448 181.448 0 0 0 0 33.602h-2.241 2.24v4.48c0 2.24 0 2.24 0 0l2.24 17.92 2.24 8.96 2.24 2.241c0 4.48 2.24 6.72 6.72 6.72l2.24 2.24 8.961 2.24h4.48v2.24s2.24 0 0 0l2.24 2.24h15.681l6.72 4.48 2.24 2.241 4.48 2.24 4.48 4.48 2.241 2.24 2.24 4.48 4.48 2.24v33.602c-2.24-2.24-4.48 2.24-4.48 11.2s2.24 13.441 4.48 13.441v4.48l2.24 4.48 2.24 2.24 2.24 2.24 2.24 2.24 8.961 2.24 2.24 4.481 2.24 2.24 6.72 2.24 2.24 2.24 4.48 2.24c4.481 0 4.481 0 4.481 4.48h4.48l4.48 2.24 4.48 2.24h2.24c-2.24 2.241 2.24 4.481 6.721 4.481h4.48v2.24h26.881l4.48-2.24 4.48-2.24 2.24-2.24 4.481-2.24 2.24-2.24 4.48-2.24 2.24-2.24 2.24-2.24 2.24-2.24 2.24-2.24 2.24-2.24h-2.24 4.48l4.481-2.241c2.24-4.48 13.44-4.48 17.92 0l4.481 2.24 4.48 2.24 2.24 2.24 2.24 2.24 2.24 2.24h2.24l6.72 4.48 2.241 2.24 2.24 2.24h2.24c0 2.241 2.24 4.481 6.72 4.481l2.24 2.24 4.48 2.24h4.481l8.96 2.24 6.72-2.24h6.721v-2.24c-2.24 0 0 0 0 0l2.24-2.24 4.48-2.24 4.48-2.24 2.24-2.24 4.48-2.24 4.48-2.24 2.241-2.24 4.48-2.24 4.48-2.24 2.24-2.24 4.48-2.24 4.48-2.241 2.241-2.24 2.24-2.24 2.24-2.24c4.48 0 6.72-2.24 6.72-4.48h4.48v-2.24c-2.24 0 0 0 0 0 0-2.24 0-4.48 2.24-2.24s4.481-26.882 0-31.362l-2.24-11.2 2.24-15.681 2.24-2.24 2.241-6.72 2.24-2.24 2.24-2.24 2.24-2.24v-2.24h2.24l2.24-2.241 4.48-2.24 6.72-2.24 11.201-2.24 8.96-2.24 4.481-2.24 6.72-2.24 4.48-2.24 2.24-2.24 2.24-2.24 2.24-17.922 2.24-11.2v-2.24l2.241-2.24h-2.24l2.24-33.602-2.24-35.841-2.24-4.48v-6.72l-2.24-2.241-2.24-2.24-2.24-2.24h-2.24l-4.48-4.48-2.24-2.24-11.201-2.24-8.96-2.24-6.721-2.24-6.72-2.24-4.48-2.24-4.48-2.241-2.24-2.24-2.24-2.24-2.241-2.24-2.24-2.24-2.24-6.72v-31.362c4.48-4.48 4.48-26.881 0-26.881l-2.24-4.48-2.24-4.48-2.24-2.24-2.24-2.24-2.24-2.24-4.48-2.241h-4.481v-4.48c-2.24 2.24-6.72 0-6.72-2.24l-2.24-2.24c-2.24 2.24-4.48 0-4.48-2.24l-6.721-2.24-2.24-2.24-4.48-2.24-4.48-2.24-4.48-2.241-4.48-2.24-8.961-2.24h-4.48v-2.24H706.25l-6.72 2.24c-4.48 0-6.72 2.24-6.72 4.48 2.24 0 0 0 0 0l-4.481 4.48h-2.24l-4.48 2.24-4.48 2.24-2.24 2.24-2.24 2.24-2.24 2.24-4.481 2.24-4.48 2.24c0 4.481-15.68 4.481-17.92 2.241l-4.481-4.48-2.24-2.24-4.48-2.24-2.24-2.24-2.24-2.24-2.24-2.24-2.24-2.24h-2.24l-2.241-2.24-2.24-2.241-4.48-2.24-4.48-2.24-6.72-2.24h-17.922m4.48 51.522v2.24h2.24l4.48 2.24 6.721 2.24 4.48 2.24 2.24 2.24 2.24 2.24 4.48 2.24 4.481 2.24 2.24 2.24 8.96 2.24 2.24 2.241h47.043l4.48-2.24 4.48-2.24 4.48-2.24 4.48-2.24 2.24-2.24 2.24-2.24 4.48-2.24 4.481-2.24c0-4.48 17.92-4.48 20.16 0l4.481 2.24h2.24v2.24l4.48 2.24 4.48 2.24 2.24 2.24v44.802h2.24v6.72l2.24 6.72 2.24 4.48 2.241 4.48 2.24 6.721h2.24l2.24 4.48 2.24 2.24 2.24 2.24 2.24 2.24 2.24 2.24 2.24 2.24h2.24l2.241 2.24 2.24 2.24h2.24v2.24h2.24l2.24 2.241h2.24l8.96 4.48 8.961 2.24 4.48 2.24 4.48 2.24 2.24 2.24 2.24 2.24 2.24 4.48v2.241l2.241 13.44v13.441h-2.24l-2.24 2.24v4.48h-4.48l-2.24 2.24-2.24 2.24-4.48 2.24-8.961 4.48h-4.48l-4.48 2.241h-2.24v2.24h-4.48l-2.24 2.24-2.241 2.24-2.24 2.24-6.72 4.48-2.24 4.48-4.48 4.481-2.24 2.24-2.24 2.24v4.48l-2.241 2.24c2.24-2.24 2.24 0 0 0l-2.24 4.48-2.24 4.48-2.24 11.201v6.72c-2.24 0-4.48 2.24-4.48 17.921l2.24 13.441s2.24 0 0 0v2.24l2.24 4.48v2.24h-6.72l-2.24 4.48h-4.48l-4.481 2.24-4.48 2.24-4.48 2.24-2.24 2.241-6.72-2.24-4.481-2.24-4.48-2.24-2.24-2.24h-2.24l-2.24-2.24-4.48-2.24-2.24-2.24-4.481-2.24-4.48-2.24-2.24-2.241c-2.24 2.24-6.72 0-6.72-2.24s-42.562-4.48-47.043 0l-6.72 2.24-4.48 2.24-4.48 2.24-4.48 2.24-2.24 2.24-2.24 2.24-2.24 2.24-4.481 2.24c-4.48 4.48-24.641 4.48-24.641 0l-2.24-2.24h-4.48v-2.24l-4.48-2.24-2.24-2.24-2.24-51.522-2.24-2.24-2.24-11.2-2.241-2.24-2.24-2.24-2.24-2.24c0-2.24 0-4.481-2.24-2.24v-4.481c-2.24 2.24-2.24 0-2.24-2.24l-2.24-2.24-2.24-2.24-2.24-2.24-2.24-2.24-2.24-2.24h-4.481v-2.24h-2.24l-2.24-2.24-2.24-2.241-6.72-2.24-2.24-2.24h-2.24l-6.721-2.24h-6.72v-2.24h-2.24l-2.24-2.24-2.24-2.24-2.24-2.24-2.24-20.162 2.24-20.16 2.24-2.24 4.48-2.24 6.72-2.24 2.24-2.24h4.48l4.48-2.24 4.48-2.241 6.72-2.24 4.48-2.24 2.241-2.24 2.24-2.24 2.24-2.24 2.24-2.24 2.24-2.24 2.24-2.24 2.24-2.24 2.24-2.241 2.24-2.24v-2.24l4.481-2.24 2.24-8.96 2.24-8.961 2.24-4.48v-2.24h-2.24 2.24l2.24-24.641 2.24-22.401 2.24-2.24h4.48l2.24-2.24 2.241-2.24h2.24l2.24-2.24 4.48-2.24 4.48-2.24 2.24-2.241m44.803 69.443v2.24h-6.72l-8.961 2.24-4.48 2.24-4.48 4.48h-2.24c-4.48 0-6.72 2.24-6.72 4.48h-2.241l-2.24 2.24-2.24 2.24-2.24 2.241-2.24 2.24-2.24 2.24-2.24 2.24-2.24 2.24-2.24 4.48-2.24 4.48-2.24 4.48-2.241 6.721-2.24 4.48h-2.24v24.641a96.324 96.324 0 0 0 2.24 22.401v2.24l2.24 6.72 2.24 6.721 2.24 2.24 2.24 4.48 2.24 4.48 2.24 2.24 2.24 2.24 2.24 2.24 2.24 2.241 4.48 2.24 2.241 4.48 2.24 2.24 4.48 2.24 4.48 2.24 4.48 2.24 4.48 2.24 11.201 2.24h8.96v2.241h38.082l6.72-2.24 6.721-2.24 2.24-2.24 8.96-2.24c-2.24-2.24 0-2.24 2.24-2.24l4.48-2.24 2.24-2.24 2.241-2.24 2.24-2.24 2.24-2.241 2.24-2.24 2.24-2.24 2.24-2.24 2.24-2.24 2.24-4.48 2.24-4.48 2.24-4.481 2.241-4.48 2.24-8.96c2.24 2.24 2.24-2.24 2.24-20.161V731.53c-2.24 0-4.48-2.24-4.48-6.72l-2.24-6.721-2.24-4.48-2.24-2.24-2.24-4.48-2.24-4.48-2.24-2.24-2.24-2.241-2.24-2.24-2.24-2.24-2.241-2.24-2.24-2.24-2.24-2.24-6.72-2.24-2.24-2.24-4.48-2.24h-4.481l-2.24-2.24h-2.24l-6.72-2.24h-6.72v-2.241h-38.082m24.64 47.042c0 2.24 2.24 4.48 8.961 4.48l4.48 2.24 2.24 2.24 2.24 2.24 2.24 2.24 2.24 2.24 2.24 2.24s2.24 0 0 0v2.24c4.48 0 4.48 24.642 0 26.882l-2.24 4.48-2.24 2.24-2.24 2.24-2.24 2.24-2.24 2.24-4.48 2.24-4.48 2.24-13.44 2.24v-2.24l-8.961-2.24-4.48-2.24-2.24-2.24-2.24-2.24-2.24-2.24-2.24-2.24-2.24-2.24-2.24-2.24a15960.69 15960.69 0 0 1 4.48-31.361l2.24-2.24 2.24-2.24 2.24-2.24h2.24l2.24-2.24 6.72-2.24 8.96-2.24 4.48-2.241"  /></svg>