<?xml version="1.0" standalone="no"?><!DOCTYPE svg PUBLIC "-//W3C//DTD SVG 1.1//EN" "http://www.w3.org/Graphics/SVG/1.1/DTD/svg11.dtd"><svg class="icon" width="200px" height="200.00px" viewBox="0 0 1024 1024" version="1.1" xmlns="http://www.w3.org/2000/svg"><path fill="#000000" d="M502.272 501.76c-24.064 0-47.616-3.584-70.656-11.264l-307.2-114.176c-53.76-20.48-57.856-53.76-57.856-67.584 1.024-17.408 10.24-33.28 24.576-43.52 15.36-11.264 32.768-19.456 51.2-23.552l306.688-77.312c33.792-7.68 68.608-7.68 101.888 0l328.192 76.8c47.104 10.752 76.288 36.352 77.824 68.096 0 14.336-3.584 48.128-60.416 68.096L568.832 491.52c-20.992 6.656-44.032 10.24-66.56 10.24z m-368.64-189.952c0 1.536 5.632 9.216 24.064 15.872l292.864 99.328c33.792 10.752 69.632 10.752 103.424 0l310.272-98.304c19.968-7.168 25.6-14.848 25.6-16.384s-8.192-12.8-37.888-19.968L540.16 229.888c-25.6-6.144-52.224-6.144-78.336 0l-291.328 61.44c-29.184 7.68-36.352 17.92-36.864 20.48z"  /><path fill="#000000" d="M171.008 416.256l-28.672 7.68c-18.432 3.584-35.84 11.776-51.2 23.552-14.336 10.24-23.04 26.112-24.576 43.52-0.512 13.824 3.072 46.592 57.344 66.56l307.2 114.176c44.544 15.36 92.672 15.36 137.216 1.024L896 558.592c56.32-19.456 60.928-53.76 60.416-68.096-1.536-31.744-30.208-56.32-77.824-68.096l-28.16-6.656-90.624 31.744 92.16 25.088c29.184 7.168 37.376 17.92 37.888 19.968s-6.144 9.728-25.6 16.384l-311.808 99.84c-33.792 10.752-69.632 10.752-103.424 0l-291.84-99.328c-17.92-6.656-23.552-14.848-24.064-15.872-0.512-1.024 7.68-12.8 36.864-19.968l86.528-25.088"  /><path fill="#000000" d="M171.008 599.552l-29.184 7.168c-18.432 4.096-35.328 12.288-50.688 24.064-14.336 10.24-23.04 26.112-24.576 43.008-0.512 13.824 3.072 46.592 57.344 66.56l307.2 114.176c23.04 8.192 46.592 11.776 70.656 11.264 23.04 0 45.568-3.072 67.584-10.752l327.68-114.176c56.32-19.456 60.928-53.76 60.416-68.096-1.536-31.744-30.208-56.32-77.824-68.096l-28.16-6.656-90.624 30.72 91.136 25.088c29.184 7.168 37.376 17.92 37.888 19.968 0.512 2.048-6.144 9.728-25.6 16.384L553.472 791.04c-33.792 10.752-69.632 10.752-103.424 0l-292.864-99.328c-17.92-6.656-23.552-14.848-24.064-15.872-0.512-1.024 7.68-12.288 36.864-19.456L256 630.272"  /></svg>