<?xml version="1.0" standalone="no"?><!DOCTYPE svg PUBLIC "-//W3C//DTD SVG 1.1//EN" "http://www.w3.org/Graphics/SVG/1.1/DTD/svg11.dtd"><svg class="icon" width="32px" height="28.44px" viewBox="0 0 1152 1024" version="1.1" xmlns="http://www.w3.org/2000/svg"><path fill="#FFFFFF" d="M301.23508 603.546c-24.115 0-43.725-19.456-43.725-43.367 0-266.47-203.315-478.003-205.44-480.128a43.187 43.187 0 0 1 1.024-61.337 44.006 44.006 0 0 1 61.773 0.998c2.381 2.483 58.701 60.595 115.149 155.648 33.229 55.91 59.7 113.152 78.694 170.42 23.962 72.114 36.199 144.383 36.199 214.4a43.52 43.52 0 0 1-43.7 43.366z m269.62 231.398c-24.09 0-43.7-19.456-43.7-43.392V44.032c0-23.936 19.61-43.392 43.7-43.392 24.115 0 43.724 19.456 43.724 43.392v747.674c0 23.91-19.481 43.264-43.725 43.264z"  /><path fill="#FFFFFF" d="M570.98208 876.083c-12.236 0-24.345-2.227-36.096-6.681a43.674 43.674 0 0 1-14.745-9.293L371.53308 717.696a43.187 43.187 0 0 1-1.127-61.338 44.006 44.006 0 0 1 61.824-1.126l138.752 132.864 129.28-131.866a43.878 43.878 0 0 1 61.799-0.87 43.063 43.063 0 0 1 0.87 61.338l-139.11 142.028a42.894 42.894 0 0 1-14.874 9.933c-12.237 4.941-25.088 7.424-37.965 7.424zM299.72508 614.451a84.224 84.224 0 0 1-30.592-5.683 43.597 43.597 0 0 1-14.746-9.293L145.74108 495.36a43.187 43.187 0 0 1-1.127-61.338 44.006 44.006 0 0 1 61.824-1.126l92.928 88.986 86.272-88.116a43.878 43.878 0 0 1 61.824-0.87c17.383 16.742 17.741 44.134 0.87 61.363L346.70208 597.99c-4.25 4.327-9.267 7.68-14.874 9.908-10.24 4.454-21.248 6.553-32.102 6.553z m534.886-10.905c-24.09 0-43.699-19.456-43.699-43.367 0-70.144 12.237-142.285 36.224-214.4 18.97-57.139 45.44-114.509 78.669-170.419 56.448-95.053 112.768-153.165 115.123-155.648a44.006 44.006 0 0 1 61.85-1.024c17.356 16.614 17.74 44.109 0.998 61.338-0.512 0.512-52.582 54.656-103.782 141.414a795.571 795.571 0 0 0-70.324 152.832c-20.838 62.95-31.334 125.517-31.334 185.856 0 24.064-19.482 43.392-43.725 43.392z"  /><path fill="#FFFFFF" d="M836.12208 614.451a85.76 85.76 0 0 1-32.23-6.297 44.57 44.57 0 0 1-14.849-9.933L687.48808 494.49a43.085 43.085 0 0 1 0.896-61.338 43.878 43.878 0 0 1 61.824 0.87l86.272 88.116 92.928-88.986a44.006 44.006 0 0 1 61.824 1.126 43.187 43.187 0 0 1-1.126 61.338l-108.647 104.09c-4.25 4.096-9.241 7.193-14.745 9.292-9.856 3.482-20.224 5.453-30.592 5.453z"  /><path fill="#FFFFFF" d="M878.20808 1022.464h-625.05A252.211 252.211 0 0 1 74.31708 948.71 248.55 248.55 0 0 1 0.00008 771.251V532.045c0-23.91 19.61-43.367 43.7-43.367 24.114 0 43.724 19.456 43.724 43.367V771.25c0 43.725 17.357 84.992 48.691 116.122a165.171 165.171 0 0 0 117.069 48.307h625.05a165.248 165.248 0 0 0 117.017-48.333 162.918 162.918 0 0 0 48.717-116.121V532.019c0-23.91 19.61-43.366 43.7-43.366 24.114 0 43.698 19.456 43.698 43.366v239.207c0 66.918-26.342 129.868-74.29 177.459a252.211 252.211 0 0 1-178.842 73.728z"  /></svg>