<?xml version="1.0" standalone="no"?><!DOCTYPE svg PUBLIC "-//W3C//DTD SVG 1.1//EN" "http://www.w3.org/Graphics/SVG/1.1/DTD/svg11.dtd"><svg class="icon" width="32px" height="32.00px" viewBox="0 0 1024 1024" version="1.1" xmlns="http://www.w3.org/2000/svg"><path fill="#FFFFFF" d="M991.795 831.317L742.147 581.872c-5.687-5.687-13.203-8.734-21.329-8.734-7.922 0-15.64 3.25-21.328 8.734L667.8 613.561l-53.017-53.017-13.61-116.394-51.392 51.392-294.742-294.54 53.017-53.017-188.709-107.66L78.925 80.75l-40.423 40.423 107.66 188.505 53.017-53.017 295.149 294.946-54.846 54.845 123.504 14.423 48.751 48.75-31.688 31.69c-5.688 5.687-8.735 13.203-8.735 21.328s3.25 15.641 8.735 21.329l249.648 249.444c5.687 5.688 13.203 8.735 21.328 8.735 7.922 0 15.641-3.25 21.33-8.735l119.44-119.44c5.688-5.688 8.735-13.204 8.735-21.33 0-7.921-3.047-15.64-8.735-21.328z m-132.441 106.44c-1.422 5.079-5.282 8.938-10.36 10.36-5.078 1.422-10.36 0-14.22-3.86L629.005 738.69c-3.657-3.656-5.079-9.14-3.86-14.219 1.422-5.078 5.281-8.938 10.36-10.36 5.078-1.421 10.36 0 14.219 3.86l205.771 205.568c3.657 3.86 5.079 9.141 3.86 14.22z m43.673-43.47c-1.422 5.079-5.282 8.938-10.36 10.36-5.078 1.422-10.36 0-14.219-3.86L672.676 695.22c-3.656-3.656-5.078-9.14-3.859-14.219 1.422-5.078 5.281-8.938 10.36-10.36 5.078-1.421 10.36 0 14.219 3.86l205.771 205.568c3.657 3.657 5.079 9.141 3.86 14.22z m43.673-43.673c-1.422 5.079-5.281 8.938-10.36 10.36-5.078 1.422-10.563 0-14.219-3.86L716.35 651.547c-3.657-3.656-5.079-9.14-3.86-14.219 1.422-5.078 5.282-8.938 10.36-10.36 5.078-1.421 10.563 0 14.219 3.86L942.84 836.395c3.657 3.657 5.079 9.141 3.86 14.22zM518.094 418.758l28.235 28.236 37.58-37.58c5.687-5.687 13.203-8.734 21.328-8.734 7.922 0 15.641 3.25 21.329 8.734l47.33 47.33c2.234 2.234 4.062 4.672 5.28 7.313l21.126-21.126c68.252 26.204 148.692 11.782 203.74-43.267 49.564-49.36 66.221-119.238 49.97-182.411L822.182 349.084c-5.688 5.688-13.204 8.735-21.329 8.735-7.922 0-15.641-3.25-21.329-8.735l-94.862-95.065c-5.687-5.687-8.734-13.203-8.734-21.328 0-7.923 3.25-15.642 8.734-21.33L816.493 79.53c-63.174-16.25-133.05 0.406-182.615 49.97-55.048 55.049-69.47 135.285-43.266 203.537l-80.034 80.44c2.64 1.219 5.281 3.047 7.516 5.281z m-62.768 256.555l-47.329-47.33c-5.688-5.688-8.735-13.203-8.735-21.329 0-7.922 3.25-15.64 8.735-21.328l37.58-37.58-28.236-28.235c-2.234-2.234-4.063-4.672-5.484-7.516L245.695 678.156c-54.032-15.438-114.362-1.828-156.817 40.627-62.36 62.36-62.36 163.52 0 225.881 62.362 62.361 163.52 62.361 225.882 0 42.454-42.454 56.064-102.987 40.626-156.817L462.64 680.594c-2.64-1.422-5.078-3.25-7.313-5.281zM274.336 894.49c-37.375 37.376-97.908 37.376-135.284 0-37.376-37.376-37.376-97.91 0-135.285 37.376-37.376 97.909-37.376 135.285 0 37.376 37.376 37.376 97.909 0 135.285z"  /></svg>