<?xml version="1.0" standalone="no"?><!DOCTYPE svg PUBLIC "-//W3C//DTD SVG 1.1//EN" "http://www.w3.org/Graphics/SVG/1.1/DTD/svg11.dtd"><svg class="icon" width="32px" height="32.00px" viewBox="0 0 1024 1024" version="1.1" xmlns="http://www.w3.org/2000/svg"><path fill="#FFFFFF" d="M63.992001 736.547932V159.980002c0-52.921385 43.066617-95.988001 95.988001-95.988001h640.239971c52.921385 0 95.988001 43.066617 95.988001 95.988001v281.372829h63.992001V159.980002c0-88.180977-71.735033-159.980002-159.980002-159.980002H159.980002A160.171979 160.171979 0 0 0 0 159.980002v576.503938c0 88.244969 71.799025 159.980002 159.980002 159.980002h398.926135v-63.992001H159.980002a95.988001 95.988001 0 0 1-95.988001-95.924009z"  /><path fill="#FFFFFF" d="M576.951881 604.852393c-7.231096-89.396825-44.602425-181.801275-127.728034-221.540307a143.086114 143.086114 0 0 0 49.145857-107.506562 143.982002 143.982002 0 0 0-143.726034-143.982002 144.109986 144.109986 0 0 0-143.982003 143.982002c0 43.386577 19.709536 81.845769 50.105737 108.274466-86.453193 42.234721-127.728034 142.894138-130.031746 245.025372l-0.063992 19.005624v22.013248h12.7984l0.831896 1.343832 434.121735-2.495688-0.127984-64.119985h-1.343832zM354.64367 195.815523a79.990001 79.990001 0 0 1 0 159.980003c-44.090489 0-79.990001-35.899513-79.990002-79.990002s35.899513-79.990001 79.990002-79.990001z m-158.060243 410.31671c6.463192-60.152481 34.875641-179.113611 158.060243-179.11361 123.952506 0 152.300962 113.137858 158.188226 179.11361H196.583427z m760.672916 40.122985c-4.031496-71.287089-12.030496-156.588426-139.11861-156.588426-115.76153 0-132.911386 84.405449-138.862642 157.164354a95.604049 95.604049 0 0 0-64.951881 90.356706v190.824147c0 52.921385 43.066617 95.988001 95.988001 95.988001h217.700788c52.921385 0 95.988001-43.066617 95.988001-95.988001V737.187852c0-42.682665-28.15648-78.518185-66.743657-90.932634zM818.137733 553.594801c62.968129 0 70.391201 18.621672 74.742657 87.541057H744.034996c6.911136-68.983377 21.11736-87.541057 74.102737-87.541057z m141.870266 374.417198c0 17.5978-14.3982 31.996-31.996 31.996H710.311211a32.059993 32.059993 0 0 1-31.996-31.996V737.187852c0-17.5978 14.3982-31.996 31.996-31.996001h217.700788c17.5978 0 31.996 14.3982 31.996 31.996001v190.824147z"  /></svg>