<?xml version="1.0" standalone="no"?><!DOCTYPE svg PUBLIC "-//W3C//DTD SVG 1.1//EN" "http://www.w3.org/Graphics/SVG/1.1/DTD/svg11.dtd"><svg class="icon" width="200px" height="200.00px" viewBox="0 0 1024 1024" version="1.1" xmlns="http://www.w3.org/2000/svg"><path fill="#000000" d="M316 288c-15.5 0-28 12.5-28 28v392c0 15.5 12.5 28 28 28s28-12.5 28-28V316c0-15.5-12.5-28-28-28z m196 0c-15.5 0-28 12.5-28 28v392c0 15.5 12.5 28 28 28s28-12.5 28-28V316c0-15.5-12.5-28-28-28z m196 0c-15.5 0-28 12.5-28 28v392c0 15.5 12.5 28 28 28s28-12.5 28-28V316c0-15.5-12.5-28-28-28z"  /><path fill="#000000" d="M904 288V176c0-30.9-25.1-56-56-56h-56V92c0-15.5-12.5-28-28-28s-28 12.5-28 28v28H624V92c0-15.5-12.5-28-28-28s-28 12.5-28 28v28H456V92c0-15.5-12.5-28-28-28s-28 12.5-28 28v28H288V92c0-15.5-12.5-28-28-28s-28 12.5-28 28v28h-56c-30.9 0-56 25.1-56 56v112c-30.9 0-56 25.1-56 56v336c0 30.9 25.1 56 56 56v112c0 30.9 25.1 56 56 56h56c0 30.9 25.1 56 56 56h168c30.9 0 56-25.1 56-56h56c0 30.9 25.1 56 56 56h168c30.9 0 56-25.1 56-56 30.9 0 56-25.1 56-56V736c30.9 0 56-25.1 56-56V344c0-30.9-25.1-56-56-56z m0 392h-56v168h-56v56H624v-56H456v56H288v-56H176V680h-56V344h56V176h672v168h56v336z"  /></svg>