<?xml version="1.0" standalone="no"?><!DOCTYPE svg PUBLIC "-//W3C//DTD SVG 1.1//EN" "http://www.w3.org/Graphics/SVG/1.1/DTD/svg11.dtd"><svg class="icon" width="32px" height="32.00px" viewBox="0 0 1024 1024" version="1.1" xmlns="http://www.w3.org/2000/svg"><path fill="#FFFFFF" d="M947.2 870.4h-256c-15.36 0-25.6-10.24-25.6-25.6s10.24-25.6 25.6-25.6h256c15.36 0 25.6 10.24 25.6 25.6s-10.24 25.6-25.6 25.6z"  /><path fill="#FFFFFF" d="M819.2 998.4c-15.36 0-25.6-10.24-25.6-25.6v-256c0-15.36 10.24-25.6 25.6-25.6s25.6 10.24 25.6 25.6v256c0 15.36-10.24 25.6-25.6 25.6zM486.4 537.6c-140.8 0-256-115.2-256-256s115.2-256 256-256 256 115.2 256 256-115.2 256-256 256z m0-460.8c-112.64 0-204.8 92.16-204.8 204.8s92.16 204.8 204.8 204.8 204.8-92.16 204.8-204.8S599.04 76.8 486.4 76.8z"  /><path fill="#FFFFFF" d="M51.2 1003.52c-15.36 0-25.6-10.24-25.6-25.6v-28.16l10.24-76.8C81.92 647.68 279.04 486.4 506.88 486.4c99.84 0 194.56 30.72 273.92 87.04 12.8 7.68 15.36 23.04 5.12 35.84-7.68 12.8-23.04 15.36-35.84 5.12-71.68-51.2-156.16-76.8-245.76-76.8-204.8 0-381.44 145.92-422.4 343.04l-5.12 74.24v23.04c0 15.36-10.24 25.6-25.6 25.6z"  /></svg>