<?xml version="1.0" standalone="no"?><!DOCTYPE svg PUBLIC "-//W3C//DTD SVG 1.1//EN" "http://www.w3.org/Graphics/SVG/1.1/DTD/svg11.dtd"><svg class="icon" width="200px" height="200.00px" viewBox="0 0 1024 1024" version="1.1" xmlns="http://www.w3.org/2000/svg"><path fill="#000000" d="M612.635 549.3l-83.403 83.953-133.454-134.328 77.849-78.358-38.924-39.18-77.844 78.357-77.845-78.357-94.528 95.152C92.16 568.208 82.598 714.93 162.246 817.956L34.36 952.285l38.924 39.175 127.888-128.73c44.48 39.18 100.083 55.97 155.688 55.97 66.723 0 133.447-27.983 183.49-78.358l94.526-95.147-72.285-72.76 83.404-83.96-33.36-39.176zM501.427 795.564c-38.92 39.182-88.963 61.568-139.007 61.568-50.043 0-100.088-16.79-133.448-55.967l-5.56-5.602c-72.285-72.76-72.285-195.891 5.56-274.254l50.043-50.37 272.456 274.255-50.044 50.37zM990.738 73.552l-38.924-39.18-122.327 117.537c-44.485-39.18-100.083-55.97-155.688-55.97-66.723 0-133.448 27.982-183.492 78.356l-94.528 89.551 361.425 363.81 88.963-89.55C938.5 446.43 948.06 299.708 868.412 196.682l122.326-123.13zM801.686 493.328l-44.484 44.779-272.454-274.26 44.484-44.772c38.92-39.182 88.963-61.568 139.007-61.568 50.04 0 100.083 16.79 133.448 55.971l5.56 5.597c77.843 72.76 72.284 195.896-5.56 274.253z m0 0"  /></svg>