<?xml version="1.0" standalone="no"?><!DOCTYPE svg PUBLIC "-//W3C//DTD SVG 1.1//EN" "http://www.w3.org/Graphics/SVG/1.1/DTD/svg11.dtd"><svg class="icon" width="32px" height="32.00px" viewBox="0 0 1024 1024" version="1.1" xmlns="http://www.w3.org/2000/svg"><path fill="#FFFFFF" d="M573.7 525.94H449.87c-105.94 0-192.62 87-192.62 194.51v12.24c0 43.53 85.3 43.53 192.62 43.53H573.7c105.94 0 192.62-1.36 192.62-43.53v-12.24c0-107.45-86.68-194.51-192.62-194.51zM511.79 206.3c-82.56 0-150 66.65-150 148.26s67.41 148.26 150 148.26 150-66.65 150-148.26-67.45-148.26-150-148.26z m0.21 815.2C230.61 1021.5 2.5 793.39 2.5 512S230.61 2.5 512 2.5s509.5 228.11 509.5 509.5-228.11 509.5-509.5 509.5z" /></svg>