<?xml version="1.0" standalone="no"?><!DOCTYPE svg PUBLIC "-//W3C//DTD SVG 1.1//EN" "http://www.w3.org/Graphics/SVG/1.1/DTD/svg11.dtd"><svg class="icon" width="200px" height="186.69px" viewBox="0 0 1097 1024" version="1.1" xmlns="http://www.w3.org/2000/svg"><path fill="#000000" d="M1051.578 241.81a38.034 38.034 0 0 0-38.034 38.034V880.49H646.148a137.142 137.142 0 0 0-101.375 45.129 137.216 137.216 0 0 0-101.376-45.13H76.075V279.845a38.034 38.034 0 0 0-75.995 0V893.51a64.365 64.365 0 0 0 63.268 65.243H443.47c27.063 0 50.176 17.554 59.246 42.13a36.206 36.206 0 0 0 34.157 23.113h15.799a36.206 36.206 0 0 0 34.23-23.113 63.56 63.56 0 0 1 59.246-42.13h380.05a64.365 64.365 0 0 0 63.414-65.243V279.844a38.034 38.034 0 0 0-38.034-38.035z m-830.9-126.976h222.719c34.962 0 63.341 24.137 63.341 53.76v551.13a145.188 145.188 0 0 0-63.341-14.337h-222.72V114.834z m283.647 709.264l2.413 27.282h76.069l2.34-27.282c7.315-23.772 32.403-40.375 60.928-40.375h298.788v-241.37a38.034 38.034 0 0 0-76.069 0V705.46H646.221c-22.674 0-44.324 5.047-63.341 14.263v-551.13c0-29.622 28.38-53.76 63.341-53.76h222.793v273.408a38.034 38.034 0 1 0 76.068 0V88.576a51.931 51.931 0 0 0-52.004-52.005h-246.93c-39.936 0-75.922 16.092-101.375 41.692A142.628 142.628 0 0 0 443.397 36.57h-246.93a51.931 51.931 0 0 0-51.858 51.932v695.22h298.788c28.526 0 53.54 16.603 60.928 40.375z" /></svg>