<?xml version="1.0" standalone="no"?><!DOCTYPE svg PUBLIC "-//W3C//DTD SVG 1.1//EN" "http://www.w3.org/Graphics/SVG/1.1/DTD/svg11.dtd"><svg class="icon" width="32px" height="25.58px" viewBox="0 0 1281 1024" version="1.1" xmlns="http://www.w3.org/2000/svg"><path fill="#FFFFFF" d="M1022.407 255.25l-157.375 284c29.125 0 55.375 8.625 78.625 20l151.5-272.5c-26.25-5.625-52.375-14.25-72.75-31.5z m-271.125 327L637.657 502c-14.5 22.875-35 40.125-58.25 54.375l125.25 88.875c11.625-22.875 26.25-45.75 46.625-63z m-384.625-57.375l-157.375 198c23.375 11.5 46.625 25.875 64.125 45.875L433.657 568c-25.875-8.125-49-23-67-43.125z m0 0"  /><path fill="#FFFFFF" d="M121.782 143.375c0-17.25 14.5-31.5 32.125-31.5h795.625c0-25.875 8.75-48.75 20.375-68.875h-816c-27.5-1.5-54.375 8.5-74.25 27.5a99.555 99.555 0 0 0-30.75 72.875V734.25c20.375-11.5 46.625-20.125 70-20.125V143.5l2.875-0.125z m996.75 143.5v611c0 17.25-14.5 31.625-32.125 31.625H317.032c-5.75 25.5-17.75 49.25-35 68.875h804.375c58.25 0 104.875-45.875 104.875-103.25v-619.75c-20.25 8.625-43.625 14.25-72.75 11.5 2.875 2.75 2.875 0 0 0z m0-286.875c-70 0-128.25 57.375-128.25 126.25s58.375 126.125 128.25 126.125c70 0 128.25-57.375 128.25-126.125 0-68.875-58.25-126.25-128.25-126.25z m0 169.25c-23.375 0-43.75-20-43.75-43s20.375-43 43.625-43c23.375 0 43.75 20.125 43.75 43 0.125 22.875-20.375 43-43.625 43z m0 0"  /><path fill="#FFFFFF" d="M862.032 811.75c70 0 128.25-57.375 128.25-126.25s-58.375-126.25-128.25-126.25c-70 0-128.25 57.375-128.25 126.25s58.375 126.25 128.25 126.25z m0-169.25c23.375 0 43.75 20 43.75 43s-20.375 43-43.625 43c-23.375 0-43.75-20-43.75-43 0-22.875 20.375-43 43.625-43zM494.907 312.75c-70 0-128.25 57.375-128.25 126.125 0 68.875 58.375 126.25 128.25 126.25s128.25-57.375 128.25-126.25c-0.125-68.875-58.375-126.25-128.25-126.125z m0 166.25c-23.375 0-43.75-20.125-43.75-43 0-23 20.375-43.125 43.75-43.125 23.25 0 43.625 20.125 43.625 43.125 0 22.875-20.375 43-43.625 43z m-358.5 295.5c-69.875 0-128.25 54.375-128.25 123.25S66.532 1024 136.407 1024s128.25-57.375 128.25-126.25c0-68.75-58.375-123.25-128.25-123.25z m0 166.375c-23.25 0-43.625-20.125-43.625-43 0-23 20.375-43 43.625-43 23.375 0 43.75 20 43.75 43-0.125 22.875-20.5 43-43.75 43z m0 0"  /></svg>