<?xml version="1.0" standalone="no"?><!DOCTYPE svg PUBLIC "-//W3C//DTD SVG 1.1//EN" "http://www.w3.org/Graphics/SVG/1.1/DTD/svg11.dtd"><svg class="icon" width="32px" height="32.00px" viewBox="0 0 1024 1024" version="1.1" xmlns="http://www.w3.org/2000/svg"><path fill="#FFFFFF" d="M63.358 621.042c0-21.686-0.416-40.604 0.35-59.479 0.154-3.796 3.942-8.516 7.496-10.98 66.865-46.351 133.925-92.452 200.998-138.539 17.505-12.028 32.147-9.836 46.104 7.724 28.26 35.556 56.088 71.415 84.036 107.188 27.047 34.62 54.175 69.188 80.898 104.027 5.205 6.786 9.285 6.263 15.741 1.781 72.968-50.644 146.052-101.14 219.178-151.582 40.557-27.976 81.259-55.766 121.872-83.672 2.999-2.06 5.8-4.373 11.108-8.402-18.874-1.253-34.888-2.238-50.887-3.399-17.59-1.276-27.975-12.274-27.098-28.477 0.732-13.527 11.016-23.69 25.942-23.472 27.043 0.395 54.078 1.669 81.098 2.927 17.11 0.797 34.183 2.285 51.279 3.363 23.779 1.499 35.262 16.359 27.466 37.694-14.217 38.904-29.189 77.57-44.314 116.174-5.874 14.993-20.89 21.648-35.711 17.044-14.259-4.429-21.891-17.688-17.92-32.844 2.173-8.292 6.002-16.197 8.956-24.317 1.178-3.239 2.008-6.589 3.96-13.103-11.926 7.934-21.162 13.895-30.195 20.117-113.125 77.925-226.217 155.89-339.328 233.83-17.962 12.377-31.776 11.247-45.247-5.658-37.204-46.688-73.754-93.835-110.546-140.811-17.83-22.765-35.629-45.55-53.43-68.335-9.057-11.593-9.03-11.583-21.081-3.265A465104.9 465104.9 0 0 1 74.997 613.933c-2.96 2.04-6.157 3.775-11.639 7.109z"  /><path fill="#FFFFFF" d="M960.791 499.33c0 22.811 0.003 45.622-0.001 68.433-0.022 125.823-0.041 251.647-0.073 377.47-0.004 15.017-0.04 15.048-14.722 15.063-33.863 0.036-67.728-0.182-101.587 0.201-9.076 0.103-12.05-3.058-12.035-12.124 0.216-132.795 0.101-265.59 0.362-398.385 0.009-4.391 2.233-9.495 5.017-13.002 4.61-5.808 9.084-5.533 13.966 1.4 13.601 19.317 33.12 26.453 55.852 22.251 21.334-3.944 34.977-17.85 42.104-38.217 2.729-7.799 5.514-15.577 8.274-23.365 0.948 0.093 1.896 0.184 2.843 0.275zM251.363 755.394c0.014-63.737 0.003-127.475 0.026-191.212 0.003-9.062 17.435-28.55 26.286-28.542 2.439 0.002 5.434 3.193 7.229 5.619 28.035 37.874 54.87 76.698 84.27 113.473 14.803 18.517 19.103 37.372 18.785 60.281-1.07 77.001-0.389 154.026-0.418 231.042-0.005 14.154-0.093 14.227-14.54 14.243-36.184 0.04-72.368 0.036-108.553-0.012-12.806-0.017-13.101-0.414-13.101-13.68 0.003-63.738 0.002-127.475 0.016-191.212z m521.064-190.062c0 15.494 0.002 28.708 0 41.921-0.022 112.549-0.04 225.097-0.071 337.646-0.004 15.366-0.034 15.392-15.385 15.4-35.856 0.017-71.712 0.044-107.568-0.014-12.935-0.021-13.261-0.335-13.263-13.57-0.018-91.301-0.081-182.602 0.317-273.901 0.021-4.861 2.735-11.499 6.458-14.279 40.161-29.983 80.769-59.368 121.291-88.865 1.76-1.282 3.878-2.071 8.221-4.338z m-581.77 13.584c0.341 3.823 0.811 6.637 0.812 9.451 0.04 119.206 0.051 238.413 0.023 357.619-0.003 14.26-0.112 14.348-14.528 14.363-33.537 0.034-67.074 0.001-100.611-0.062-12.639-0.024-13.139-0.535-13.14-12.655-0.005-88.99-0.089-177.98 0.282-266.968 0.02-4.887 2.484-11.61 6.149-14.35 38.284-28.624 77.041-56.613 115.695-84.741 1.244-0.905 2.781-1.407 5.318-2.657zM448.77 724.163c4.959 3.064 8.436 5.528 12.181 7.473 20.129 10.452 39.828 9.098 58.331-3.6 15.86-10.884 31.096-22.675 46.653-34.003 2.581-1.88 5.392-3.444 9.513-6.05 0.315 4.731 0.707 7.878 0.708 11.024 0.014 82.303 0.002 164.606-0.046 246.909-0.008 14.286-0.091 14.359-14.396 14.376-34.182 0.041-68.366-0.144-102.546 0.115-7.835 0.059-11.419-2.179-11.393-10.673 0.223-73.01 0.148-146.021 0.194-219.031 0.001-1.609 0.382-3.219 0.801-6.54z m81.181-424.975c-2.568-0.119-4.285-0.267-6.002-0.268-25.891-0.015-51.783-0.053-77.674 0.009-10.397 0.025-18.471-4.179-23.576-13.191-5.097-8.997-4.509-18.091 0.632-27.066 23.503-41.038 46.937-82.115 70.394-123.179 11.023-19.297 21.965-38.64 33.1-57.872 5.016-8.664 12.753-13.089 22.82-13.096 43.107-0.028 86.214 0.005 129.321-0.026 10.575-0.008 18.736 4.376 23.68 13.671 5 9.401 4.23 18.835-1.694 27.729-24.422 36.667-48.868 73.317-73.298 109.979-0.867 1.301-1.657 2.652-3.015 4.836h5.229c16.538 0 33.076-0.019 49.614 0.009 11.01 0.018 20.478 6.115 24.294 15.925 4.193 10.779 2.371 20.649-5.816 28.848-69.247 69.35-138.557 138.636-207.878 207.911-9.615 9.609-24.318 10.473-34.856 2.26-10.226-7.97-12.87-22.533-6.261-34.079 26.388-46.1 52.755-92.212 79.114-138.327 0.586-1.024 0.996-2.149 1.872-4.073z"  /></svg>