<?xml version="1.0" standalone="no"?><!DOCTYPE svg PUBLIC "-//W3C//DTD SVG 1.1//EN" "http://www.w3.org/Graphics/SVG/1.1/DTD/svg11.dtd"><svg class="icon" width="32px" height="32.00px" viewBox="0 0 1024 1024" version="1.1" xmlns="http://www.w3.org/2000/svg"><path fill="#FFFFFF" d="M334.336 310.272H93.184c-12.8 0-23.04-10.24-23.04-23.04v-9.216c0-12.8 10.24-23.04 23.04-23.04h241.152c12.8 0 23.04 10.24 23.04 23.04v9.216c0 12.8-10.752 23.04-23.04 23.04z"  /><path fill="#FFFFFF" d="M426.496 415.232l-109.568-110.08a19.469 19.469 0 0 1 0-27.648l11.264-11.264a19.469 19.469 0 0 1 27.648 0l110.08 110.08a19.469 19.469 0 0 1 0 27.648l-11.264 11.264c-8.192 7.68-20.48 7.68-28.16 0z m499.712-107.008h-207.36c-15.36 0-27.648-12.288-27.648-27.648s12.288-27.648 27.648-27.648h206.848a27.533 27.533 0 0 1 27.648 27.648c0.512 15.36-12.288 27.648-27.136 27.648z"  /><path fill="#FFFFFF" d="M601.6 361.472l83.456-83.456c10.752-10.752 28.16-10.752 38.912 0s10.752 28.16 0 38.912l-83.456 83.456c-10.752 10.752-28.16 10.752-38.912 0-10.752-10.24-10.752-28.16 0-38.912z m86.528 354.304H929.28c12.8 0 23.04 10.24 23.04 23.04v9.216c0 12.8-10.24 23.04-23.04 23.04H688.128c-12.8 0-23.04-10.24-23.04-23.04v-9.216c0.512-12.8 10.752-23.04 23.04-23.04z"  /><path fill="#FFFFFF" d="M595.968 610.816l110.08 110.08a19.469 19.469 0 0 1 0 27.648l-11.264 11.264a19.469 19.469 0 0 1-27.648 0l-110.08-110.08a19.469 19.469 0 0 1 0-27.648l11.264-11.264a19.469 19.469 0 0 1 27.648 0zM281.6 540.16H91.136c-11.264 0-20.48-9.216-20.48-20.48v-14.336c0-11.264 9.216-20.48 20.48-20.48H281.6c11.264 0 20.48 9.216 20.48 20.48v14.336c0 11.264-9.216 20.48-20.48 20.48z m123.904 229.888h-307.2c-15.36 0-27.648-12.288-27.648-27.648s12.288-27.648 27.648-27.648h307.2c15.36 0 27.648 12.288 27.648 27.648s-12.8 27.648-27.648 27.648z"  /><path fill="#FFFFFF" d="M659.968 426.496c-10.752 22.528-33.792 37.888-60.416 37.888h-2.048c3.072 9.216 4.608 18.432 4.608 28.672 0 51.2-41.472 92.672-92.672 92.672s-92.672-41.472-92.672-92.672 41.472-92.672 92.672-92.672c8.192 0 15.872 1.024 23.552 3.072 0-2.048-0.512-4.096-0.512-6.144 0-25.088 13.824-47.104 34.304-58.88-17.92-6.656-37.376-10.24-57.856-10.24-91.136 0-164.864 73.728-164.864 164.864S417.792 657.92 508.928 657.92s164.864-73.728 164.864-164.864c0.512-23.552-4.608-46.08-13.824-66.56z"  /><path fill="#FFFFFF" d="M552.448 394.752c0 27.648 22.528 50.176 50.176 50.176S652.8 422.4 652.8 394.752s-22.528-50.176-50.176-50.176-50.176 22.528-50.176 50.176z"  /></svg>