<?xml version="1.0" standalone="no"?><!DOCTYPE svg PUBLIC "-//W3C//DTD SVG 1.1//EN" "http://www.w3.org/Graphics/SVG/1.1/DTD/svg11.dtd"><svg class="icon" width="200px" height="200.00px" viewBox="0 0 1024 1024" version="1.1" xmlns="http://www.w3.org/2000/svg"><path fill="#000000" d="M812.80047 50.56h-704A109.12 109.12 0 0 0 0.00047 160v704a109.12 109.12 0 0 0 109.44 108.8h471.04a317.44 317.44 0 0 1-55.68-62.4h-416A47.04 47.04 0 0 1 62.08047 864V160a47.04 47.04 0 0 1 47.36-47.04h704a47.04 47.04 0 0 1 46.4 47.04v264.32a314.88 314.88 0 0 1 62.08 21.76V160A109.12 109.12 0 0 0 812.80047 50.56z"  /><path fill="#000000" d="M787.20047 496.96A235.84 235.84 0 1 0 1024.00047 732.8a235.84 235.84 0 0 0-236.8-235.84z m0 414.08A178.24 178.24 0 1 1 965.44047 732.8 178.24 178.24 0 0 1 787.20047 911.04z"  /><path fill="#000000" d="M877.76047 704h-62.08v-71.68a28.48 28.48 0 1 0-56.96 0v106.24a28.16 28.16 0 0 0 27.52 23.04h90.56a28.48 28.48 0 1 0 0-56.96z m-95.04-512a32 32 0 0 0-43.84 0L428.16047 502.72 320.00047 395.2a32 32 0 0 0-44.16 0L28.48047 644.16v72H32.00047a32 32 0 0 0 22.08-8.96l246.4-246.4 106.56 106.56a32 32 0 0 0 43.84 0l331.84-332.48a32 32 0 0 0 0-43.84z"  /></svg>