<?xml version="1.0" standalone="no"?><!DOCTYPE svg PUBLIC "-//W3C//DTD SVG 1.1//EN" "http://www.w3.org/Graphics/SVG/1.1/DTD/svg11.dtd"><svg t="1531794960313" class="icon" style="" viewBox="0 0 1024 1024" version="1.1" xmlns="http://www.w3.org/2000/svg" p-id="6413" xmlns:xlink="http://www.w3.org/1999/xlink" width="48" height="48"><defs><style type="text/css"></style></defs><path d="M201.110367 804.287973c0-246.248404 0-492.496807 0-738.745211 0.151449-0.166799 0.409322-0.316202 0.437975-0.50142 1.546216-10.1645 7.106862-17.451464 16.173354-22.005176 2.783393-1.397836 5.943362-2.044566 8.930393-3.035126 200.731744 0 401.463488 0 602.195232 0 0.166799 0.151449 0.318248 0.413416 0.50142 0.437975 14.128789 1.841951 25.049512 14.535041 25.049512 29.206182-0.013303 243.436358-0.008186 486.87374-0.030699 730.310098 0 2.093684-0.086981 4.240581-0.538259 6.271844-3.056616 13.771655-14.5903 23.573905-28.819372 23.576975-197.843974 0.037862-395.686924 0.027629-593.530898 0.00614-1.928932 0-3.8814-0.164752-5.782703-0.48914-9.604752-1.64343-16.769942-6.789637-21.153786-15.477506C203.03009 810.843272 202.233957 807.482735 201.110367 804.287973zM310.153876 423.113577c0 78.991052-0.011256 157.981081 0.041956 236.972133 0.002047 2.957355 0.298805 5.994528 1.006933 8.857738 2.964518 11.974729 14.375405 21.401426 26.853601 21.399379 129.659035-0.01842 259.319094-0.00921 388.978129-0.031722 1.599428 0 3.243881-0.130983 4.792143-0.51063 14.274098-3.496637 22.771633-14.619976 22.781866-28.562523 0.109494-158.554132 0.072655-317.109288 0.035816-475.66342-0.001023-2.233877-0.338714-4.505617-0.814552-6.695492-2.994194-13.777795-15.052834-22.981411-29.740348-22.977317-125.32124 0.032746-250.64248 0.014326-375.962697 0.039909-4.059456 0.001023-8.121981 0.26606-12.17939 0.476861-7.034207 0.36532-12.903891 3.553942-17.633612 8.43102-5.382591 5.54939-8.131191 12.517081-8.135284 20.309558C310.139549 264.476557 310.153876 343.795067 310.153876 423.113577z" p-id="6414"></path><path d="M527.711843 985.535967c-92.492554 0-184.986131 0.063445-277.478685-0.084934-10.815323-0.017396-20.455891-4.236488-28.984125-10.94119-6.54302-5.143137-11.527544-11.493775-15.007809-19.008936-2.89698-6.256494-4.573155-12.873192-4.608971-19.776416-0.093121-17.679661-0.029676-35.360346-0.031722-53.040007-0.001023-12.628622 4.099365-23.717168 12.20702-33.422204 8.377808-10.028401 19.196201-15.610536 31.851429-17.900695 2.692319-0.487094 5.492084-0.527003 8.242731-0.527003 183.021384-0.023536 366.042767-0.044002 549.064151 0.029676 12.343119 0.005117 23.354917 4.13518 32.977066 12.116969 9.728572 8.069793 15.315824 18.411325 17.885346 30.565133 0.431835 2.040473 0.533143 4.181229 0.538259 6.275937 0.039909 18.334577 0.095167 36.670178-0.001023 55.004755-0.071631 13.58132-5.107321 25.170263-14.443967 35.000142-7.758708 8.16803-17.324574 12.890588-28.209482 15.146978-2.043542 0.423649-4.181229 0.541329-6.275937 0.542352C712.861704 985.539037 620.287285 985.535967 527.711843 985.535967z" p-id="6415"></path><path d="M533.642926 246.299569c35.772738 0 71.546499-0.001023 107.319238 0.001023 5.333472 0 8.108678 2.732228 8.109702 7.987928 0.002047 25.458835 0.002047 50.91767 0 76.376505 0 4.954849-2.971681 7.971555-7.945973 7.972579-71.464635 0.00921-142.92927 0.001023-214.392882 0.017396-4.866844 0.001023-8.157797-3.415796-8.121981-8.073886 0.198521-25.538653 0.094144-51.080376 0.095167-76.621075 0-4.877077 2.765997-7.659447 7.617491-7.659447C462.09745 246.298546 497.870188 246.299569 533.642926 246.299569zM520.29492 287.98804c3.394307-1.874697 4.436032-4.627391 4.069689-8.230452-0.271176-2.667759-0.355087-5.427616 0.019443-8.068769 0.520863-3.675716-1.697665-5.41636-3.922333-7.157004-3.374864 1.885953-4.458545 4.626367-4.060479 8.234545 0.267083 2.420119 0.322341 4.932336-0.01228 7.335059C515.879354 283.761786 517.497201 286.117436 520.29492 287.98804zM478.631008 292.004517c-2.710738 1.827625-4.464685 3.984754-3.999081 7.611352 0.350994 2.731204 0.350994 5.580089 0 8.312316-0.466628 3.628644 1.296529 5.779633 3.999081 7.603165 2.711761-1.827625 4.464685-3.985778 3.999081-7.611352-0.350994-2.731204-0.350994-5.580089 0-8.312316C483.096716 295.979038 481.332537 293.828049 478.631008 292.004517zM478.622822 287.97883c3.217275-1.870604 4.399193-4.545526 3.993964-8.179286-0.288572-2.580778-0.336668-5.258771 0.011256-7.824199 0.497327-3.669576-1.477654-5.677303-3.942799-7.456832-3.2623 1.89721-4.465708 4.573155-4.034896 8.204869 0.276293 2.335185 0.281409 4.758374-0.001023 7.092535C474.208279 283.457864 475.454666 286.108227 478.622822 287.97883zM564.638871 289.980417c1.910513 3.148713 4.431939 4.452405 8.035 4.030803 2.819209-0.330528 5.737678-0.323365 8.559956-0.001023 3.552919 0.405229 5.191232-1.805112 6.875594-3.944845-1.90028-3.168156-4.428869-4.490268-8.025791-4.03899-2.492774 0.313132-5.089925 0.321318-7.579629-0.002047C568.856939 285.549501 566.493102 287.134603 564.638871 289.980417zM629.885897 290.010093c-1.815345-2.701528-3.972475-4.428869-7.608282-3.999081-3.067872 0.36225-6.231935 0.292666-9.317203 0.016373-3.490497-0.312108-5.015224 1.812275-6.432503 4.086062 1.892093 3.320629 4.634554 4.232394 8.121981 3.879354 2.512217-0.25378 5.108345-0.328481 7.598049 0.016373C625.8817 294.513664 628.054179 292.742321 629.885897 290.010093zM462.362486 289.953811c-1.879813-2.877537-4.279467-4.38282-7.934716-3.939729-2.904143 0.352017-5.90857 0.302899-8.824993 0.00307-2.668783-0.275269-4.269233 0.992607-5.802146 2.780323-0.807389 0.942465-0.812505 1.589195 0.099261 2.601244 1.691525 1.876744 3.492544 2.864234 6.136767 2.603291 2.674922-0.264013 5.420453-0.283456 8.092305-0.00307C457.751469 294.378587 460.480626 293.288766 462.362486 289.953811zM436.885232 288.019763c2.700505-1.814322 4.507664-3.975545 3.984754-7.607258-0.323365-2.245134-0.25992-4.596691-0.01535-6.863315 0.406253-3.76679-0.249687-6.90527-3.938706-8.758478-0.121773-0.061398-0.258896-0.092098-0.23536-0.083911-3.208065 1.843998-4.136204 4.580319-3.780093 8.071839 0.25685 2.511193 0.328481 5.109368-0.016373 7.599072C432.381661 284.012496 434.151981 286.184975 436.885232 288.019763zM520.490372 292.165176c-0.37453 0.348947-0.730641 0.868787-1.221828 1.104147-2.27788 1.089821-3.01773 2.831488-2.862187 5.319146 0.193405 3.098571 0.333598 6.252401-0.027629 9.320273-0.428765 3.63376 1.288343 5.799076 4.034896 7.641027 2.596128-1.901303 4.519943-3.981684 3.969405-7.656377-0.37146-2.481518-0.274246-5.084808-0.021489-7.597025C524.71151 296.810986 523.806907 294.061362 520.490372 292.165176zM590.18264 288.00032c2.861164-1.889023 4.432962-4.26514 3.941775-7.90811-0.334621-2.481518-0.321318-5.077645-0.00307-7.562233 0.460488-3.586688-0.89744-6.061043-3.854794-7.898901-0.553609 0.525979-1.048889 1.298576-1.74883 1.606591-2.072195 0.910743-2.437515 2.487657-2.350534 4.532223 0.128937 3.009544 0.273223 6.052856-0.027629 9.03784C585.774237 283.433304 586.91727 286.10618 590.18264 288.00032zM437.459307 315.806619c1.110287-1.759063 2.997264-3.451612 3.196809-5.325285 0.475837-4.451382 0.180102-8.988722 0.122797-13.491269-0.008186-0.654916-0.2415-1.484817-0.680499-1.922792-1.076518-1.073448-2.335185-1.963725-3.421936-2.848884-3.261277 1.781576-4.174066 4.615111-3.773953 8.196683 0.252757 2.263553 0.265036 4.604878-0.002047 6.865361C432.471712 310.912146 433.643398 313.615721 437.459307 315.806619zM632.17401 292.25625c-3.663436 1.980097-4.726651 5.167696-4.26821 9.18929 0.257873 2.26253 0.325411 4.621251-0.016373 6.861268-0.558725 3.65832 1.660826 5.443989 3.9121 7.202029 2.90926-1.709945 4.587482-3.778046 4.084015-7.316639-0.376577-2.648316-0.322341-5.421476-0.013303-8.087189C636.285654 296.5306 635.081223 293.958008 632.17401 292.25625zM631.855762 288.024879c2.902096-1.852184 4.508687-4.196579 4.016477-7.850805-0.323365-2.402723-0.279363-4.9088-0.010233-7.324826 0.400113-3.588735-0.581238-6.371104-3.713578-8.109702-3.5345 1.971911-4.752234 5.072529-4.245697 9.116635 0.271176 2.167363 0.317225 4.438079-0.01228 6.590092C627.334795 284.086174 629.229958 286.190091 631.855762 288.024879zM590.292134 292.214295c-2.517333 2.00261-4.824889 4.117784-4.175089 8.129144 0.437975 2.701528 0.338714 5.561669 0.019443 8.296967-0.414439 3.551896 1.825578 5.169743 3.969405 6.876618 2.981914-1.889023 4.475941-4.246721 4.013407-7.79043-0.314155-2.405793-0.286526-4.910846-0.007163-7.324826C594.529645 296.809963 593.556481 294.027593 590.292134 292.214295zM504.095983 289.941532c-1.823532-2.800789-4.182252-4.400217-7.827269-3.916193-2.406816 0.319272-4.922103 0.313132-7.329942 0.001023-3.64911-0.471744-6.012947 1.095961-7.831362 4.062526 1.311879 2.457981 2.88163 4.272303 6.182816 3.918239 2.824325-0.302899 5.728468-0.286526 8.55791-0.00614C499.44608 294.356075 502.211053 293.362444 504.095983 289.941532zM522.847046 290.047955c1.880837 2.572592 3.927449 4.516874 7.608282 3.969405 2.555196-0.379647 5.239328-0.310062 7.817036-0.01535 3.565199 0.407276 6.104021-0.679475 7.53972-4.115738-1.738597-2.577708-3.892657-4.352121-7.517207-3.867074-2.565429 0.342808-5.252631 0.347924-7.817036-0.001023C526.848173 285.524942 524.695137 287.303448 522.847046 290.047955zM629.674073 262.58344c-3.278673-3.51301-3.278673-3.51301-6.838755-3.51301-2.698458 0-5.420453 0.222057-8.090259-0.054235-3.591805-0.37146-6.396687 0.558725-8.150634 3.740184 1.746784 3.155876 4.536316 4.145413 8.130168 3.730974 2.25946-0.260943 4.593622-0.237407 6.859221-0.005117C625.077382 266.839371 627.959012 266.165012 629.674073 262.58344zM564.880371 262.810614c1.788739 3.106758 4.52813 4.051269 8.015557 3.672646 2.264577-0.245593 4.601808-0.25685 6.863315 0.002047 3.592828 0.410346 6.399757-0.554632 8.15268-3.733021-1.74883-3.165086-4.546549-4.14439-8.141424-3.730974-2.261507 0.25992-4.596691 0.240477-6.863315 0.004093C569.402361 258.659061 566.533011 259.364119 564.880371 262.810614zM629.66998 317.729411c-1.707898-2.698458-4.060479-4.158716-7.585769-3.705392-2.406816 0.310062-4.907777 0.270153-7.326872 0.00921-3.569292-0.384763-6.389524 0.51677-8.169053 3.76372 1.702782 2.705622 4.058432 4.16281 7.581676 3.712555 2.406816-0.308015 4.907777-0.26913 7.326872-0.00921C625.066125 321.884035 627.888404 320.986595 629.66998 317.729411zM587.906807 317.777507c-1.733481-3.166109-4.516874-4.155646-8.103562-3.743254-2.25332 0.258896-4.586458 0.260943-6.839779 0-3.587712-0.415462-6.371104 0.578168-8.115841 3.721765 1.732457 3.167133 4.516874 4.155646 8.102538 3.743254 2.25332-0.258896 4.586458-0.260943 6.839779 0C583.378677 321.915757 586.16207 320.921103 587.906807 317.777507zM548.169781 287.803845c2.702552-1.706875 4.161786-4.061502 3.707438-7.587815-0.309038-2.406816-0.270153-4.907777-0.00921-7.326872 0.384763-3.570315-0.518816-6.389524-3.768837-8.1711-2.702552 1.705851-4.160763 4.061502-3.707438 7.587815 0.309038 2.406816 0.270153 4.9088 0.00921 7.326872C544.015158 283.204084 544.91976 286.023292 548.169781 287.803845zM548.127825 292.224528c-3.040243 1.820462-4.133134 4.468778-3.729951 7.985882 0.276293 2.415003 0.309038 4.92108-0.007163 7.325849-0.470721 3.586688 0.937348 6.025227 3.723811 7.79043 3.066849-1.835811 4.166903-4.485151 3.755534-8.002254-0.273223-2.333138-0.26299-4.747117-0.002047-7.083326C552.257889 296.745495 551.240723 294.055223 548.127825 292.224528zM480.797347 317.869604c2.372024 2.604314 5.089925 4.202719 8.886391 3.641947 2.242064-0.331551 4.609994-0.324388 6.854105-0.001023 3.629667 0.522909 5.789866-1.284249 7.708566-4.14132-1.90028-1.865487-3.681856-3.629667-6.782473-3.342118-2.838651 0.26299-5.742794 0.273223-8.579399 0C485.384829 313.691445 482.669998 314.63084 480.797347 317.869604zM439.112969 317.757041c1.752924 2.955308 4.330632 4.117784 7.795547 3.742231 2.345418-0.25378 4.764514-0.261966 7.107885 0.001023 3.592828 0.403183 6.399757-0.557702 8.151657-3.734044-1.74883-3.165086-4.547573-4.14439-8.142447-3.731998-2.261507 0.25992-4.597715 0.24457-6.862291 0.00307C443.683055 313.666886 440.930361 314.581722 439.112969 317.757041zM545.946137 317.448002c-1.685385-2.172479-3.461845-3.76372-6.64535-3.442402-3.400446 0.343831-6.885827 0.326435-10.290367 0.005117-3.170203-0.299829-4.675486 1.488911-6.141884 3.494591 1.905396 2.962471 4.25593 4.475941 7.819083 4.009314 2.492774-0.326435 5.100158-0.336668 7.588839 0.002047C541.904077 322.008878 544.072463 320.239582 545.946137 317.448002zM506.356466 264.73136c-2.976798 1.792832-4.131087 4.414543-3.711532 7.954159 0.286526 2.416026 0.308015 4.927219-0.005117 7.337105-0.466628 3.587712 0.925069 6.036483 3.65832 7.751544 2.917446-1.496074 3.546779-3.936659 3.325745-6.953366-0.220011-3.00545-0.233314-6.054903 0.004093-9.058306C509.86743 268.739651 509.246283 266.303158 506.356466 264.73136zM604.743264 264.654612c-3.154853 1.876744-4.229325 4.50971-3.867074 8.037047 0.297782 2.905166 0.251733 5.881964 0.008186 8.797363-0.258896 3.099594 1.49812 4.840238 3.391237 6.580882 2.725064-1.690502 3.932566-3.812839 3.602038-6.973832-0.303922-2.904143-0.332575-5.89629 0.00614-8.79327C608.266507 269.039479 606.910627 266.756483 604.743264 264.654612zM562.605561 288.017716c2.849908-1.669012 3.814886-3.998057 3.51915-7.184633-0.285502-3.071965-0.322341-6.218632 0.010233-9.281387 0.344854-3.171226-1.225921-4.965082-3.476171-6.571672-2.595105 1.589195-3.853771 3.65525-3.538593 6.834662 0.304945 3.067872 0.306992 6.214539-0.001023 9.281387C558.800909 284.258089 560.00841 286.37224 562.605561 288.017716zM464.136899 292.257274c-0.358157 0.429789-0.647753 0.956791-1.086751 1.27197-1.859347 1.335415-2.25946 3.124154-2.14485 5.322216 0.169869 3.26537 0.280386 6.568602-0.023536 9.815553-0.297782 3.181459 0.912789 5.28026 3.533476 6.867408 2.369977-1.581008 3.736091-3.567245 3.463891-6.661723-0.25071-2.842745-0.264013-5.744841 0-8.585539C468.203518 296.797683 467.316312 294.056246 464.136899 292.257274zM506.054591 315.607074c2.607384-1.720178 3.920286-3.753487 3.593851-6.951319-0.329505-3.228531-0.292666-6.53688-0.00921-9.773598 0.268106-3.057639-1.254573-4.965082-3.231601-6.809079-3.709485 3.353374-3.709485 3.353374-3.709485 8.063653 0 2.609431 0.2415 5.248537-0.060375 7.822153C502.254032 311.240627 503.722476 313.481667 506.054591 315.607074zM462.432071 262.647909c-1.719154-3.085268-4.134157-3.89982-7.286963-3.63683-3.158946 0.264013-6.385431 0.322341-9.529027-0.016373-3.1262-0.336668-4.736884 1.573845-6.566556 3.152806 1.885953 3.297093 4.624321 4.178159 8.095375 3.850701 2.7486-0.258896 5.560646-0.257873 8.308223 0.002047C458.591603 266.298042 460.589097 264.761036 462.432071 262.647909zM604.324732 292.50696c-2.473331 1.639337-3.78521 3.673669-3.460822 6.868431 0.328481 3.227508 0.310062 6.537903 0.005117 9.770528-0.299829 3.181459 1.351787 4.885264 3.461845 6.371104 2.977821-1.664919 3.829212-4.072759 3.53757-7.228635-0.261966-2.829442-0.261966-5.721305 0-8.550747C608.161107 296.580742 607.305623 294.174949 604.324732 292.50696zM562.573839 292.50696c-2.473331 1.639337-3.78521 3.673669-3.460822 6.868431 0.328481 3.227508 0.310062 6.537903 0.005117 9.770528-0.299829 3.181459 1.351787 4.885264 3.461845 6.371104 2.977821-1.664919 3.829212-4.072759 3.53757-7.228635-0.261966-2.829442-0.261966-5.721305 0-8.550747C566.410214 296.580742 565.55473 294.174949 562.573839 292.50696zM504.126682 262.550695c-1.669012-2.998287-4.091178-3.810792-7.238868-3.536546-2.994194 0.260943-6.052856 0.296759-9.038864-0.00921-3.203972-0.328481-5.203512 1.023306-6.729262 3.5345 1.64343 2.52245 3.704368 3.809769 6.887874 3.477194 3.064802-0.320295 6.214539-0.315178 9.280364-0.001023C500.471432 266.339997 502.533394 265.064958 504.126682 262.550695zM522.871605 262.563998c1.647523 2.452865 3.668553 3.787256 6.869455 3.456728 3.226484-0.333598 6.537903-0.311085 9.769504-0.00614 3.182482 0.300852 4.885264-1.353834 6.373151-3.460822-1.664919-2.975774-4.071735-3.830235-7.227612-3.53757-2.829442 0.261966-5.721305 0.261966-8.550747 0C526.950504 258.722506 524.543687 259.575944 522.871605 262.563998zM464.253556 264.479627c-1.885953 1.77339-3.610224 3.530406-3.365654 6.643304 0.268106 3.413749 0.245593 6.878664 0.00614 10.296507-0.215918 3.084245 1.291412 4.970198 3.557012 6.747681 1.960655-2.081405 3.853771-3.936659 3.423983-7.124258-0.271176-2.007727-0.156566-4.089132-0.027629-6.125511 0.243547-3.865028 0.252757-7.609305-3.199878-10.304693C464.591247 264.568654 464.505289 264.562515 464.253556 264.479627z" p-id="6416"></path><path d="M533.73093 612.237959c-28.148084-0.555655-52.661384-10.621918-72.315002-31.335682-18.348903-19.339464-27.516704-42.798758-27.340695-69.343321 0.195451-29.324886 11.488659-54.208623 33.320896-73.927733 19.614733-17.715477 42.99421-26.26213 69.291133-25.708522 52.400441 1.103124 98.500385 44.469817 97.524151 102.230336-0.467651 27.683503-11.098779 51.519374-31.254841 70.681806C584.495104 602.384543 560.820915 611.909477 533.73093 612.237959zM534.074761 609.842399c24.786523-0.242524 46.610574-8.405437 65.009619-25.055652 21.013593-19.016099 32.287357-43.016723 32.639375-71.224158 0.698918-55.884798-43.898813-97.899704-94.677313-99.146091-56.843636-1.39579-99.966783 44.141336-100.520391 95.777367C435.93151 565.541427 480.17927 610.005105 534.074761 609.842399z" p-id="6417"></path><path d="M434.711729 431.066713c5.776563-4.838192 11.2973-9.461489 16.791431-14.063297 5.170766 4.916986 10.055007 9.561773 15.011902 14.275121-2.979868 2.892887-5.794983 5.656837-8.647961 8.380878-1.933025 1.845021-3.989871 3.566222-5.854335 5.476735-0.949628 0.973164-1.672082 0.994654-2.575662 0.12382C444.581518 440.578344 439.724907 435.897741 434.711729 431.066713zM439.260325 430.031127c2.952238 3.709485 5.861498 7.363711 8.968256 11.266601 1.528819-2.521426 2.747577-4.5312 4.143367-6.833639-2.230808 0-4.012384 0-5.992481 0 0.823761-1.980097 1.574868-3.786233 2.498914-6.006807-2.51631 1.240247-4.602831 2.269693-7.283894 3.591805 2.907213-4.721535 7.110955-7.43432 9.700943-11.417027-0.282433-0.26606-0.564865-0.533143-0.847298-0.799202C446.746834 423.206698 443.046558 426.580538 439.260325 430.031127z" p-id="6418"></path><path d="M518.176676 403.621641c0.137123 0.591471 0.258896 1.116427 0.418532 1.807159 3.195785-0.064468 6.399757-0.061398 8.885368-2.905166 0.669242 0.603751 1.297552 1.169639 1.855254 1.672082-2.587941 4.637624-7.100722 4.539386-11.092639 5.052063-2.577708 0.331551-3.583618-1.375324-4.498454-5.834892-2.396583 0.38681-4.813632 0.775666-7.313569 1.178849-0.722454-4.523013-1.411139-8.836249-2.109034-13.20679 2.703575-1.362021 5.338588-2.956332 8.175193-4.00829 1.435699-0.532119 3.246951-0.203638 4.865821-0.042979 1.417279 0.141216 2.804882 0.845251 4.205788 0.847298 2.292206 0.00307 2.543939 1.366114 2.77316 3.121084 0.350994 2.692319 0.862647 5.365194 1.375324 8.033977 0.298805 1.555425-0.137123 2.37714-1.799996 2.703575C521.973142 402.421302 520.085142 403.082358 518.176676 403.621641z" p-id="6419"></path><path d="M469.38032 410.858462c-0.251733-0.100284-0.350994-0.10847-0.393973-0.161682-4.230348-5.188162-4.209882-5.230118 1.578961-8.154727 4.931313-2.491751 9.838066-5.030573 14.95869-7.652284 1.26583 1.949398 2.443655 3.76372 3.590781 5.53097-0.366344 0.330528-0.491187 0.528026-0.582261 0.512676-2.910283-0.474814-4.643764 0.595564-5.347798 3.587712-0.326435 1.384533-1.287319 2.620687-1.959631 3.923356 0.218988 0.128937 0.437975 0.257873 0.656963 0.38681 1.061169-1.243317 2.121314-2.485611 3.301186-3.868097 3.409656 2.874467 7.107885 5.296633 9.997702 8.595772-0.176009 0.295735-0.352017 0.590448-0.529049 0.886183-2.7793-0.73678-5.557576-1.472538-8.462742-2.242064 1.27197 6.272867 1.121544 6.639211-3.146667 7.461949 0.164752-1.2689 0.316202-2.442632 0.502443-3.877307-2.604314 2.737344-4.978385 5.233188-7.357572 7.734148-1.716084-1.293459-1.716084-1.293459 1.149173-5.869684-1.127683 0.462534-1.901303 0.778736-2.818185 1.154289-0.74906-1.969864-2.170432-3.91517-1.937119-5.636371 0.204661-1.506307 2.267647-2.761903 3.523243-4.142343-1.106194-1.401929-3.790326 1.947352-4.580319-1.424442C470.792483 408.714635 470.114031 409.745105 469.38032 410.858462zM472.674343 407.040507c3.586688-2.031263 7.172353-4.062526 10.759041-6.093788C478.888881 401.2445 475.416803 403.478378 472.674343 407.040507z" p-id="6420"></path><path d="M559.181579 410.759201c-0.60989-1.452071-1.010003-2.403746-1.50426-3.580548 0.729617-0.477884 1.503237-0.984421 2.946099-1.930979-1.103124-0.517793-1.88186-1.095961-2.731204-1.230014-1.198292-0.188288-2.470261 0.097214-3.668553-0.088004-1.260713-0.194428-2.472308-0.704035-3.706415-1.075495 0.021489-0.305969 0.042979-0.610914 0.064468-0.916882-2.923586 1.431605-5.846148 2.862187-9.208732 4.508687 1.14201-7.240915 2.229784-14.133905 3.319605-21.046339 6.696516 1.183965 13.392008 2.368954 20.62269 3.648087C563.704592 396.2303 564.677756 404.103618 559.181579 410.759201zM547.011398 391.540488c4.077875 0.757247 7.993045 1.484817 11.884678 2.207271-0.203638 2.614547-0.393973 5.063319-0.594541 7.640004 0.934279 0 1.784646 0 2.845815 0 0-3.109828 0.046049-6.120394-0.048095-9.126868-0.014326-0.464581-0.610914-1.222851-1.048889-1.314948-4.26821-0.89744-8.558933-1.681292-13.037944-2.533706C547.011398 389.769145 547.011398 390.56016 547.011398 391.540488z" p-id="6421"></path><path d="M508.609787 633.594359c-3.873214 0.577145-5.15337-0.277316-6.471388-3.796466-0.728594-1.946328-1.76418-3.77907-3.185552-5.435803-0.258896 2.282996-0.517793 4.564969-0.801249 7.071046-1.626034-0.416486-3.198855-0.661056-4.617158-1.266853-0.531096-0.227174-1.12973-1.426489-0.968048-1.963725 1.488911-4.962012 3.142573-9.874905 4.735861-14.806217 0.406253-1.25662 1.079588-1.407046 2.191922-0.751107 2.957355 1.74576 5.979178 3.382027 8.92323 5.149277 1.187035 0.712221 1.638313 1.775436 0.715291 3.086291-0.227174 0.322341-0.254803 0.836041-0.535189 1.060145-4.199649 3.357468-2.081405 6.970762-0.467651 10.56973C508.285398 632.857579 508.438894 633.207549 508.609787 633.594359z" p-id="6422"></path><path d="M429.877631 579.000973c-3.1569-2.296299-3.425006-3.368724-1.945305-6.727215 0.856507-1.944282 1.709945-3.89061 2.565429-5.835915-0.176009-0.154519-0.350994-0.310062-0.527003-0.464581-1.411139 1.042749-2.966565 1.941212-4.195555 3.167133-1.307785 1.304715-2.001587 0.849344-2.709715-0.443092-0.611937-1.116427-1.204431-2.242064-1.941212-3.617387 5.495154-2.996241 10.945283-5.967922 16.856923-9.191336 1.112334 4.930289 2.153036 9.541307 3.214205 14.242376-2.186805 0.689708-3.889587 1.566682-5.649674 1.701758-2.543939 0.195451-3.342118 1.798972-4.081968 3.752464C431.029874 576.738443 430.430216 577.828264 429.877631 579.000973z" p-id="6423"></path><path d="M553.615816 628.179023c0.6191 2.112104 1.238201 4.224208 1.926886 6.573719-1.933025 0.372483-3.89675 0.751107-5.956665 1.147126-0.984421-6.116301-1.935072-12.020778-2.987031-18.556635 4.817726 0.467651 9.122775 0.865717 13.420661 1.336438 0.381693 0.041956 1.020236 0.554632 1.017166 0.842181-0.029676 2.612501 0.721431 5.299703-0.64673 7.870248 1.815345 1.545192 3.64297 3.102664 5.471618 4.659113-2.752694 2.484587-5.711072 1.991354-8.190543-1.164522-0.942465-1.199315-2.267647-2.098801-3.417843-3.134387C554.039465 627.89352 553.827641 628.03576 553.615816 628.179023z" p-id="6424"></path><path d="M658.343019 500.053923c0 2.233877 0 3.937682 0 5.798053-2.37407-0.224104-4.701069-0.444115-7.169283-0.677429 0 1.970888 0 3.812839 0 5.813403 2.50096-0.327458 4.932336-0.644683 7.55507-0.988514 0.135076 2.113127 0.261966 4.093225 0.401136 6.259564-5.737678 0-11.637038 0-17.726733 0 0-1.89721 0-3.889587 0-6.052856 1.965771 0.355087 3.965312 0.716314 6.080485 1.098008 0-1.925862 0-3.842515 0-5.904477-1.982144 0.435928-3.955078 0.86981-6.205329 1.364067-0.25992-1.860371-0.488117-3.499707-0.76748-5.500271C646.555555 500.853126 652.317793 500.462223 658.343019 500.053923z" p-id="6425"></path><path d="M642.904399 475.685933c-2.215458 1.004887-4.430916 2.009773-6.865361 3.113921-0.436952-1.355881-0.817622-2.534729-1.315972-4.078899 5.984295-1.290389 11.863189-2.558265 17.776875-3.833305 0.38374 0.697895 0.686638 1.251503 1.019213 1.856277-3.181459 3.439332-6.346545 6.859221-9.510608 10.279111 0.10847 0.168846 0.216941 0.337691 0.325411 0.505513 3.415796-1.119497 6.832615-2.238994 10.287297-3.371794 0.415462 0.934279 0.829901 1.867534 1.399883 3.15076-0.935302 0.278339-1.855254 0.565888-2.78237 0.824785-3.990894 1.11745-7.963369 2.310625-11.989055 3.281743-1.060145 0.255827-3.182482 0.040932-3.281743-0.347924-0.384763-1.51347-0.695848-3.476171-0.023536-4.728698 1.040702-1.937119 2.913353-3.426029 4.424776-5.111414 0.308015-0.343831 0.582261-0.717338 0.871857-1.077541C643.129526 475.993948 643.016962 475.840452 642.904399 475.685933z" p-id="6426"></path><path d="M619.60167 600.345094c0.819668 5.002944-4.562922 8.810666-8.485255 8.943696-4.611018 0.156566-9.956769-5.482875-9.834996-10.04989 0.137123-5.14416 4.26207-8.979512 8.739035-9.038864C614.817714 590.136591 620.218724 595.425038 619.60167 600.345094zM619.098203 601.840144c-3.27151-2.65241-6.290263-4.91187-9.082866-7.423063-2.267647-2.038426-2.821255 0.453325-4.036943 1.237177-1.450025 0.935302-1.308809 2.179642-0.364297 3.278673 2.208295 2.566452 4.529153 5.03569 6.941086 7.694239C614.725616 605.039 616.69548 603.598184 619.098203 601.840144z" p-id="6427"></path><path d="M618.632599 588.230172c3.081175 2.248204 6.16235 4.496407 9.350972 6.823406-0.757247 1.058099-1.388627 1.940189-2.140757 2.992147-3.939729-3.255137-7.798617-6.377244-11.56029-9.610892-0.729617-0.627287-1.678222-2.292206-1.506307-2.465145 1.059122-1.066285 2.325975-2.390443 3.681856-2.598174 2.618641-0.401136 5.342682-0.116657 8.615215-0.116657-2.461051-1.554402-4.445242-2.807952-6.714935-4.241604 0.88209-1.168616 1.665942-2.208295 2.607384-3.456728 4.104481 3.756557 8.019651 7.260357 11.818163 10.887978 0.695848 0.664126 0.914836 1.827625 1.664919 3.419889-5.759167-0.803295-10.710946-1.494027-15.661701-2.184759C618.73493 587.863828 618.683764 588.047 618.632599 588.230172z" p-id="6428"></path><path d="M647.108141 566.052057c0.154519 4.994758-4.192485 8.905834-8.668427 8.815783-5.604648-0.112564-10.328229-4.542456-10.148128-9.459442 0.187265-5.116531 3.977591-8.602935 8.651031-8.704243C642.877793 556.575218 647.739521 561.883107 647.108141 566.052057zM630.605282 563.78441c3.047406 2.99931 6.034437 5.939269 8.812713 8.674567 1.542122-1.554402 3.305279-3.331885 5.232165-5.27412-1.401929-1.214664-2.885723-2.566452-4.444219-3.826142-0.929162-0.751107-1.895163-1.600451-2.990101-1.959631-1.082658-0.354064-2.505054-0.515746-3.495614-0.094144C632.461559 561.840128 631.487372 563.046606 630.605282 563.78441z" p-id="6429"></path><path d="M427.671383 557.527916c-2.620687 0.593518-4.932336 1.248434-7.290033 1.570775-0.691755 0.094144-1.911536-0.571005-2.202155-1.203408-1.091868-2.38021-2.087545-4.841262-2.758834-7.367805-0.586354-2.204202-0.149403-4.451382 1.879813-5.854335 3.368724-2.328022 6.997368-3.874237 11.237949-2.65241 2.694365 0.775666 6.29845 6.250354 5.862521 9.018398-0.372483 2.365884-2.237971 2.830465-4.343935 3.26844 0-2.455935 0-4.730745 0-7.621585-2.837628 0.283456-5.632277 0.165776-8.132214 0.968048-1.414209 0.453325-2.549056 2.292206-3.431146 3.738138-0.819668 1.343601 0.63752 2.687202 2.473331 2.354628 0.775666-0.140193 1.50733-0.514723 2.264577-0.76441 0.674359-0.221034 1.356904-0.416486 2.278903-0.697895C426.195775 553.946344 426.882414 555.61331 427.671383 557.527916z" p-id="6430"></path><path d="M514.929726 617.808838c2.688225 0.119727 4.929266 0.24457 7.17133 0.313132 3.462868 0.106424 5.135974 1.899256 5.158487 5.585205 0.023536 3.844561-1.157359 5.112438-4.983501 5.208629-1.192152 0.029676-2.390443-0.141216-3.857864-0.23843 0 0.9967 0 2.115174 0 3.233648 0 1.046842 0 2.092661 0 3.142573-0.408299 0.12075-0.62831 0.237407-0.853437 0.24457-4.790096 0.156566-4.90266 0.145309-4.51585-4.455475 0.343831-4.087085 0.956791-8.151657 1.49505-12.220323C514.604314 618.172111 514.954285 617.759719 514.929726 617.808838z" p-id="6431"></path><path d="M409.864832 521.04398c5.836939-0.62831 11.289114-1.215688 16.679891-1.796926 3.360538 8.961092 2.27174 12.229532-2.449795 13.924127 0.281409-1.433652 0.596588-2.693342 0.760317-3.973498 0.173962-1.357927 0.205685-2.734274 0.306992-4.224208-1.221828-0.26606-2.264577-0.494257-3.662413-0.799202 0.610914 1.6465 1.074472 2.89698 1.654686 4.461615-2.109034 0.334621-4.157693 0.659009-6.66991 1.057075 0.656963-1.598404 1.179872-2.87242 1.859347-4.52813-2.297322 0.203638-4.276397 0.378623-6.583952 0.582261 1.807159 2.843768 3.456728 5.437849 5.180999 8.150634-5.748934 0.672312-6.857175-1.669012-7.055696-5.711072C409.770687 525.83817 409.864832 523.477402 409.864832 521.04398z" p-id="6432"></path><path d="M474.701512 617.102756c-0.210801-5.650697 4.461615-10.013051 9.061376-10.227945 4.851495-0.226151 9.217942 4.188392 9.104355 8.868995-0.132006 5.420453-4.601808 10.383488-9.385764 10.215666C478.481605 625.785509 473.955522 621.674888 474.701512 617.102756zM481.926054 624.055099c2.100848-2.152013 3.786233-3.908006 5.503341-5.633301 3.778046-3.796466 3.828188-3.837398-0.059352-7.451716-0.725524-0.674359-1.956561-1.140986-2.949168-1.133823-3.773953 0.028653-7.571443 6.769171-5.818519 10.145058 0.183172 0.352017 0.412392 0.688685 0.667196 0.992607C480.053404 621.908202 480.859769 622.823038 481.926054 624.055099z" p-id="6433"></path><path d="M437.536055 590.444607c4.704139-3.787256 9.207709-7.413853 14.195304-11.428284 2.038426 2.76395 4.417613 5.242398 5.877871 8.178263 1.500167 3.013637-0.401136 7.640004-3.194762 9.660011-4.176113 3.019777-7.865131 3.567245-10.994402 0.862647C441.165722 595.769892 439.585737 593.040734 437.536055 590.444607zM441.738773 592.540338c3.276626 4.367471 6.131651 4.111644 8.996908 2.453888 0.896416-0.518816 1.810229-1.109264 2.498914-1.865487 2.216481-2.436492 3.391237-5.193279 0.597611-7.959276-1.158383-1.147126-1.837858-0.982374-3.007497 0.034792C447.927729 587.723635 444.858834 590.043471 441.738773 592.540338z" p-id="6434"></path><path d="M476.534254 607.973842c-1.139963-0.831948-2.364861-1.571798-3.397377-2.521426-1.074472-0.989537-1.961678-2.181689-3.176342-3.564175-2.425236 2.822278-4.548596 5.294586-6.837732 7.958252 2.609431 2.064009 5.040806 3.985778 7.512091 5.940292-2.636037 1.499144-6.210445 1.079588-8.78099-0.939395-2.121314-1.665942-3.51915-5.764284-2.713808-8.359388 1.306762-4.208858 4.089132-7.036253 8.322549-8.322549 2.859118-0.868787 8.626471 2.365884 9.815553 5.682419 0.420579 1.171686 0.067538 2.62171 0.067538 3.943822C477.075583 607.851045 476.804407 607.912443 476.534254 607.973842z" p-id="6435"></path><path d="M545.432437 628.077715c0 6.048763-2.864234 9.136078-8.348132 9.225105-6.15314 0.099261-8.860808-3.990894-8.752338-9.394974 0.115634-5.792936 2.468215-9.213849 8.858762-9.275247C542.659277 618.579387 545.432437 621.812011 545.432437 628.077715zM536.783453 620.404965c-2.793626 3.247974-4.789073 6.340405-4.163833 10.510378 0.326435 2.176572 1.26583 3.585665 3.3984 4.097318 1.833765 0.440022 3.127224-0.173962 4.136204-1.86958 1.050935-1.766226 2.424212-3.340071 3.728928-5.096065C541.53978 625.523543 539.183106 622.98779 536.783453 620.404965z" p-id="6436"></path><path d="M430.115038 470.115054c1.670036-2.260483 4.012384-4.105504 5.239328-6.649444-0.341784-0.288572-0.684592-0.576121-1.026376-0.864694-1.735527 1.463328-3.62762 2.780323-5.16565 4.428869-1.672082 1.792832-3.932566 2.544963-5.661953 1.521656-1.549286-0.916882-2.427282-3.194762-3.242857-5.031597-0.423649-0.954745-0.441045-2.429329 0.005117-3.359514 0.86367-1.803066 1.834788-4.126994 3.406586-4.869914 1.842974-0.870834 4.453429-0.593518 6.352685 1.555425-1.929955 0.756223-3.797489 1.315972-5.499248 2.198062-2.078335 1.077541-2.050706 3.091408-1.706875 5.871731 2.067079-1.687432 3.706415-3.240811 5.561669-4.467755 1.327228-0.877997 2.914376-1.75804 4.438079-1.863441 3.14155-0.215918 4.624321 1.402953 4.523013 4.538363-0.056282 1.738597-0.140193 3.594875-0.777713 5.169743C435.594843 470.676849 433.529811 472.434889 430.115038 470.115054z" p-id="6437"></path><path d="M644.676765 453.55182c0.670266 1.101077 0.988514 1.559519 1.242294 2.051729 1.694595 3.282766 1.718131 3.343141-1.671059 5.007037-1.62501 0.798179-2.530636 1.807159-1.424442 3.483334 0.390903 0.592494 1.426489 0.76134 2.173502 1.111311 0.041956 0.019443 0.13303-0.090051 0.208754-0.112564 4.66116-1.401929 5.505387-0.876973 6.534833 4.266164-6.760984-0.51984-13.613042 1.070378-20.195971-1.610684C633.765251 460.983069 640.078027 458.344986 644.676765 453.55182z" p-id="6438"></path><path d="M409.462672 500.144998c0.3776-2.167363 0.717338-4.120854 1.113357-6.39771 1.12052 0.195451 2.185782 0.435928 3.26537 0.557702 1.411139 0.159636 2.918469 0.2415 3.343141-1.563612 0.418532-1.775436-0.252757-2.981914-2.192945-3.306302-1.013073-0.168846-2.009773-0.441045-3.263323-0.722454 0.286526-1.677199 0.561795-3.28379 0.928139-5.429663 5.555529 4.129041 12.060687 6.194072 15.966647 11.742439-2.212388 3.232624-5.625114 2.982938-8.55177 3.643993C416.666748 499.43994 413.136342 499.659951 409.462672 500.144998z" p-id="6439"></path><path d="M568.519248 632.094192c0-5.28026-0.057305-10.338463 0.047072-15.394618 0.021489-1.058099 0.483001-2.203178 1.054005-3.110851 0.265036-0.421602 1.39579-0.674359 1.930979-0.470721 1.016143 0.38681 2.050706 1.003863 2.789533 1.793856 3.362584 3.594875 6.625908 7.283894 10.224876 11.272741-1.90335 0.724501-3.53143 1.494027-5.244444 1.907443-0.532119 0.127913-1.417279-0.593518-1.926886-1.12973-0.762363-0.803295-1.188058-1.985214-2.041496-2.62478-0.581238-0.435928-1.814322-0.531096-2.449795-0.196475-0.50756 0.267083-0.555655 1.412163-0.794086 2.171456-0.01535 0.050142 0.102331 0.128937 0.121773 0.203638C573.417815 631.088282 573.417815 631.088282 568.519248 632.094192z" p-id="6440"></path><path d="M648.8846 518.890944c-1.346671 1.130753-2.692319 2.26253-4.041036 3.39226-2.50403 2.097778-2.294252 4.677533 0.802272 5.598508 2.64627 0.787946 5.542226 0.782829 8.338922 0.947582 0.290619 0.017396 0.859577-1.168616 0.943488-1.840928 0.272199-2.160199 0.36532-4.341888 0.563842-6.512321 0.026606-0.287549 0.26299-0.555655 0.405229-0.839111 2.716878 1.623987 4.003174 4.240581 3.459798 7.335059-0.581238 3.307326-1.87265 6.092765-5.506411 7.167237-3.66139 1.082658-7.016811 0.248663-10.157337-1.518586-2.639107-1.485841-2.8847-4.261047-2.930749-6.935969-0.021489-1.269923 0.310062-2.545986 0.481977-3.818979 0.273223-2.018983 1.36509-2.987031 3.464915-2.991124 1.337461-0.002047 2.674922-0.327458 4.012384-0.50756C648.777153 518.541997 648.830365 518.716982 648.8846 518.890944z" p-id="6441"></path><path d="M634.093732 552.170908c0.567935-1.929955 1.168616-3.719718 1.617847-5.545296 1.283226-5.222955 1.332345-5.298679 7.41897-6.52767-1.772366 2.589988-3.292999 4.811586-4.945639 7.227612 1.139963 0.784876 2.14792 1.477654 3.555989 2.446725 0-1.926886 0-3.307326 0-4.872984 2.39249 0.681522 4.570085 1.300622 7.074116 2.013867-1.616824 1.258667-2.914376 2.26867-4.628414 3.603061 3.149736 0.580215 5.825682 1.072425 8.389064 1.544169 0.121773 0.323365 0.2415 0.474814 0.209778 0.582261-1.556449 5.302773-1.563612 5.320169-6.684236 3.613294C642.023332 554.896996 637.96183 553.488927 634.093732 552.170908z" p-id="6442"></path><path d="M594.175581 621.659539c-1.905396 1.079588-3.494591 1.980097-5.155417 2.920516-2.276856-4.840238-4.504594-9.577123-6.791683-14.439874-1.155313 1.890047-2.14178 3.5038-3.148713 5.151323-2.320858-2.089591-2.573615-3.957125-0.384763-5.513574 2.641153-1.87879 5.522784-3.511987 8.495488-4.799306 2.278903-0.986467 3.405563-0.040932 4.995781 3.110851-2.038426 0-4.091178 0-6.257517 0C588.634378 612.539834 591.382978 617.063871 594.175581 621.659539z" p-id="6443"></path><path d="M613.868085 444.407556c7.239891-0.984421 10.329253-7.550976 15.662725-11.446703-3.975545-4.386914-7.933693-8.754385-11.920494-13.153578 1.545192-2.010797 2.850931-1.74576 4.400217 0.029676 2.459005 2.818185 5.114484 5.464455 7.658424 8.208962 1.428535 1.541099 2.799766 3.136433 4.500501 5.048993-3.934612 3.594875-7.78429 7.16212-11.700483 10.655687-1.049912 0.936325-2.245134 2.194992-3.477194 2.324952-1.672082 0.177032-3.443425-0.590448-5.172813-0.952698C613.83534 444.884416 613.851713 444.645986 613.868085 444.407556z" p-id="6444"></path><path d="M422.918126 486.73457c1.936095-1.096984 3.849678-2.181689 5.763261-3.26537-0.008186-0.274246-0.016373-0.548492-0.024559-0.821715-1.503237-0.51984-2.984984-1.112334-4.51278-1.543146-2.76088-0.777713-5.53404-1.526773-8.330736-2.158153-1.874697-0.422625-2.478448-1.24127-1.545192-3.051499 0.468674-0.908696 0.715291-1.930979 1.108241-3.031033 4.824889 1.790786 9.561773 3.548826 14.770402 5.481851-0.429789-1.62808-0.918929-2.873444-1.035586-4.152577-0.069585-0.766456 0.443092-1.585101 0.694825-2.381234 0.567935 0.525979 1.330298 0.948605 1.673106 1.594311 2.300392 4.330632 0.446162 8.280594-1.545192 12.007475C428.830789 487.476467 425.12335 487.914442 422.918126 486.73457z" p-id="6445"></path><path d="M409.486208 511.563048c0-2.317789 0-4.256954 0-6.404873 5.055133 0.542352 9.983375 1.070378 15.292288 1.64036-0.86981-1.967818-1.566682-3.545756-2.299369-5.203512 1.861394-0.904603 2.708692-0.147356 3.0208 1.432629 0.558725 2.826372 1.104147 5.658883 1.533936 8.507768 0.450255 2.988054-2.221598 4.075829-3.761674 6.084579-0.630357-0.558725-1.147126-1.016143-1.695618-1.503237 0.974188-1.502213 1.873674-2.88777 2.953262-4.553713C419.378509 511.563048 414.521898 511.563048 409.486208 511.563048z" p-id="6446"></path><path d="M613.374852 425.356664c3.031033 3.204995 5.918803 6.259564 8.960069 9.475815-2.302439 2.093684-4.426823 4.025687-6.685259 6.079462-2.953262-3.127224-5.877871-6.223748-8.953929-9.480932C608.856955 429.465239 610.981339 427.533236 613.374852 425.356664z" p-id="6447"></path><path d="M592.187297 413.017638c0.48914 3.309372 0.977257 6.617721 1.544169 10.45205-1.25969-0.546446-2.048659-0.852414-2.804882-1.223874-3.5345-1.735527-7.083326-3.444449-10.56973-5.272074-0.786922-0.412392-1.600451-1.14508-1.958608-1.932002-1.103124-2.422166-0.693802-3.201925 1.738597-4.145413 2.382257-0.924045 4.767584-1.840928 7.128351-2.818185 1.813299-0.750083 3.15076-0.12689 4.549619 1.39272-3.080152 1.566682-5.983271 3.044336-9.144264 4.65195 2.047636 1.163499 3.948939 2.243087 5.951549 3.382027 1.095961-1.677199 2.037403-3.118014 2.978844-4.557806C591.795371 412.970566 591.990822 412.994102 592.187297 413.017638z" p-id="6448"></path><path d="M592.447217 601.950661c1.401929-1.027399 2.675946-1.960655 4.26207-3.123131 3.331885 4.973268 6.67912 9.969049 10.017144 14.95255-0.158612 0.185218-0.228197 0.311085-0.334621 0.384763-3.903913 2.707668-3.867074 2.681062-6.604418-1.291412-2.085498-3.02694-4.296863-5.967922-6.41306-8.975419C592.975243 603.329055 592.763418 602.62809 592.447217 601.950661z" p-id="6449"></path><path d="M434.221566 586.358545c-1.105171-1.352811-2.12336-2.597151-3.238764-3.961218 4.593622-3.3984 9.152451-6.803963 13.771655-10.124592 0.341784-0.245593 1.367137-0.099261 1.6465 0.229221 0.907673 1.067308 1.6158 2.304486 2.434445 3.526313C443.914322 579.506487 439.211207 582.831208 434.221566 586.358545z" p-id="6450"></path><path d="M639.741359 492.037343c5.15644-0.927115 10.085706-1.575892 14.877849-2.772136 2.503007-0.62524 2.889817 0.170892 2.826372 2.242064-0.01842 0.61296 0.211824 1.234107 0.411369 2.297322-2.517333 0.497327-5.108345 1.055029-7.716752 1.512447-2.364861 0.414439-4.764514 0.638543-7.120165 1.093914-2.950192 0.571005-3.257184 0.39295-3.27765-2.514263C639.737266 493.335918 639.741359 492.7731 639.741359 492.037343z" p-id="6451"></path><path d="M626.89682 432.825776c-0.968048 0.977257-1.537006 1.553379-2.211365 2.234901-3.923356-4.069689-7.748475-8.03807-11.473309-11.902074 1.358951-2.245134 2.267647-2.338255 3.88447-0.453325C620.089787 426.194752 623.481024 429.342442 626.89682 432.825776z" p-id="6452"></path><path d="M598.999446 415.189094c-3.26537-0.458441-4.218068-1.370207-4.859681-5.327332-0.496304-3.065825 0.00307-6.093788 1.411139-8.922207 0.213871-0.429789 0.350994-0.898463 0.522909-1.348718 0.233314 0.183172 0.466628 0.36532 0.699941 0.548492C597.512582 405.129994 598.250386 410.120658 598.999446 415.189094z" p-id="6453"></path><path d="M592.063477 401.732617c-4.034896 1.606591-7.93267 3.157923-11.80179 4.699022-1.581008-2.142803-0.855484-3.211135 1.415232-3.953032 2.485611-0.812505 4.885264-1.895163 7.306406-2.898003C591.335906 398.60437 591.754438 398.860197 592.063477 401.732617z" p-id="6454"></path><path d="M505.178641 515.595898c8.633634-0.055259 14.853289-4.827959 20.999266-9.642614 6.455015-5.058203 11.437493-11.351536 14.794961-18.854417 2.870374-6.415107 4.611018-13.069667 5.034666-20.174482 0.561795-9.407254-1.447978-18.154475-5.661953-26.422789-3.358491-6.589069-7.875365-12.377912-13.94971-17.868973 3.812839-0.721431 7.084349-1.842974 10.368138-1.879813 19.391652-0.215918 36.734646 5.990434 52.354392 17.310248 10.977006 7.955182 19.513426 17.99177 25.960255 29.906124 4.068665 7.520277 6.934946 15.46011 8.794293 23.75503 0.730641 3.25616-0.404206 6.371104-2.218528 9.154497-6.446829 9.890254-15.322987 17.050328-25.568329 22.650883-11.247158 6.148024-23.181979 10.550287-35.656081 13.348006-5.78168 1.296529-11.726066 1.939165-17.625426 2.617617-4.739954 0.545422-9.526981 0.974188-14.291494 0.953721-5.666046-0.024559-11.333116-0.549515-16.994046-0.933255-2.174526-0.147356-3.618411-1.861394-3.923356-4.082992-0.763386-5.567809-1.62501-11.122315-2.397606-16.689101C505.064031 517.78475 505.178641 516.793166 505.178641 515.595898z" p-id="6455"></path><path d="M521.782807 571.697637c9.958816-1.408069 19.680225-2.672876 29.363771-4.184299 8.467859-1.322112 16.981766-2.538823 25.312502-4.494361 11.535731-2.707668 22.053272-7.732102 30.882358-15.878642 1.822508-1.682315 3.714602-3.288906 5.574972-4.930289-0.130983-0.179079-0.260943-0.358157-0.391926-0.538259-2.949168 1.599428-5.934153 3.136433-8.839319 4.811586-7.046486 4.063549-14.602579 6.874571-22.331611 9.286504-7.824199 2.441609-15.784498 4.275373-23.968901 4.865821-8.487302 0.611937-16.98586 1.116427-25.487487 1.445932-3.638877 0.141216-7.306406-0.187265-10.949376-0.466628-4.514827-0.345877-6.963599-2.686179-8.354272-7.652284-0.579191-2.068102-1.201361-4.123924-1.913583-6.563486 2.768043 0 5.564739-0.052189 8.358365 0.011256 5.53404 0.125867 11.072173 0.562818 16.59905 0.432859 17.195637-0.404206 34.155914-2.333138 50.478671-8.245801 10.867512-3.936659 20.898982-9.338692 29.981848-16.474206 3.228531-2.536776 6.328126-5.238304 10.032494-8.319479-0.245593 3.669576-0.26299 6.858198-0.707105 9.985422-1.140986 8.024767-3.139503 15.85306-6.333242 23.318078-3.521197 8.231475-7.937786 15.935947-13.836123 22.750143-6.123464 7.074116-12.790304 13.509688-20.640086 18.681478-7.494695 4.936429-15.550161 8.656147-24.251334 10.725272-5.476735 1.301645-10.5728-0.603751-15.083533-3.719718-4.091178-2.826372-8.283664-5.626137-11.875468-9.025561C528.677844 583.048149 524.576433 577.945945 521.782807 571.697637z" p-id="6456"></path><path d="M450.248587 549.33942c3.697205 1.62808 7.259334 3.155876 10.786671 4.76042 4.595668 2.089591 9.06547 4.499477 13.769608 6.297426 5.484921 2.096754 8.855692 5.965875 11.485589 11.021008 3.717671 7.145747 8.747221 13.362332 14.756075 18.756179 0.222057 0.199545 0.514723 0.321318 1.300622 0.12075-4.681626-8.064676-9.363252-16.128329-14.413268-24.827455 2.686179 0.428765 4.749164 0.707105 6.79066 1.096984 3.13541 0.599657 6.335289 1.033539 9.347902 2.023076 1.502213 0.493234 3.15076 1.801019 3.877307 3.188622 4.369517 8.338922 9.378601 16.175401 16.403598 22.555715 3.942799 3.581572 8.278547 6.590092 13.237489 8.632611 0.171915 0.070608 0.281409 0.295735 0.461511 0.49528C504.260735 607.692433 462.380906 583.329559 450.248587 549.33942z" p-id="6457"></path><path d="M475.984738 549.436634c-6.841825-2.604314-13.054317-6.223748-18.806321-10.555403-5.461385-4.112668-10.29753-8.971325-13.207813-15.260565-1.694595-3.66139-2.112104-7.684006-1.397836-11.79872 0.358157-2.065032 0.021489-4.241604 0.233314-6.343475 0.309038-3.061732 0.829901-6.100952 1.25969-9.150404 0.400113-0.212848 0.801249-0.424672 1.201361-0.636496 0.63138 0.932232 1.13587 1.990331 1.914606 2.777253 4.89345 4.940522 9.740852 9.962909 16.260335 12.844539 1.38658 0.61296 2.817162 1.494027 4.250814 1.541099 2.004657 0.066515 2.690272 0.947582 2.898003 2.684132 0.572028 4.77884 1.163499 9.555633 1.790786 14.688537-6.492878-3.211135-12.650111-6.255471-18.807345-9.30083-0.221034 0.357134-0.442068 0.713244-0.663102 1.070378 4.592598 3.381004 8.878205 7.333012 13.854543 9.994632C472.773603 535.205515 476.66626 542.496571 475.984738 549.436634z" p-id="6458"></path><path d="M496.730225 536.90625c-4.13211-0.73985-8.003278-1.276063-11.793604-2.158153-3.155876-0.734734-4.137227-3.402493-4.295839-6.259564-0.181125-3.247974-0.041956-6.513344-0.041956-10.18292 1.104147 0.215918 1.984191 0.467651 2.87856 0.546446 2.493797 0.221034 4.990664 0.451278 7.491625 0.525979 3.13541 0.094144 4.237511 0.597611 4.665253 3.666506C496.244154 527.417131 496.357741 531.860327 496.730225 536.90625z" p-id="6459"></path><path d="M501.576603 557.074591c-14.109346 0.957815-20.072151-6.169513-18.058284-16.349363 4.290723 1.088798 8.590656 2.118244 12.852726 3.288906 1.960655 0.538259 2.958378 2.094708 3.360538 4.031826C500.346589 551.008432 500.9442 553.97602 501.576603 557.074591z" p-id="6460"></path></svg>