<?xml version="1.0" standalone="no"?><!DOCTYPE svg PUBLIC "-//W3C//DTD SVG 1.1//EN" "http://www.w3.org/Graphics/SVG/1.1/DTD/svg11.dtd"><svg class="icon" width="32px" height="32.00px" viewBox="0 0 1024 1024" version="1.1" xmlns="http://www.w3.org/2000/svg"><path fill="#FFFFFF" d="M403.085 708.88c0 124.295 100.748 225.045 225.047 225.045 124.299 0 225.05-100.75 225.05-225.045 0-124.298-100.753-225.05-225.05-225.05-124.3 0.001-225.047 100.754-225.047 225.05z m224.343 57.676c20.216 0 38.003 16.389 38.003 36.574 0 20.222-17.787 36.576-38.003 36.576-20.208 0-36.597-16.354-36.597-36.576 0.001-20.186 16.39-36.574 36.597-36.574z m1.048-31.271c-18.411 0-34.063-14.949-34.063-33.376V598.68c0-18.46 15.65-33.374 34.063-33.374 18.446 0 33.375 14.913 33.375 33.374v103.23c0 18.428-14.929 33.376-33.375 33.376z m0 0M676.415 867.984l203.422 82.06M355.166 130.46H519.01v54.615H355.166z m218.455 109.227h27.308c15.166 0 27.303-12.274 27.303-27.304V103.156c0-15.035-12.273-27.308-27.303-27.308h-27.308c-15.03 0-27.308 12.273-27.308 27.308v109.227c0 15.03 12.278 27.304 27.308 27.304z m-300.373 0h27.308c15.03 0 27.302-12.274 27.302-27.304V103.156c0-15.035-12.272-27.308-27.302-27.308h-27.308c-15.03 0-27.308 12.273-27.308 27.308v109.227c0 15.03 12.277 27.304 27.308 27.304z m464.212-27.304v269.98a252.805 252.805 0 0 1 54.616 35.137V157.767c0-15.171-12.278-27.308-27.308-27.308H655.54v54.616h54.616c15.03 0 27.303 12.274 27.303 27.308zM218.637 444.49a13.593 13.593 0 0 0 13.65 13.652H641.89a13.594 13.594 0 0 0 13.652-13.652v-27.308a13.593 13.593 0 0 0-13.652-13.652H232.288a13.593 13.593 0 0 0-13.651 13.652v27.308z"  /><path fill="#FFFFFF" d="M413.316 841.413c-112.877 0.37-249.296-0.98-249.296-0.98-15.03 0-27.308-12.272-27.308-27.308V212.383c0-15.034 12.277-27.308 27.308-27.308h54.617V130.46H109.409c-15.036 0-27.308 12.137-27.308 27.308v709.975c0 15.172 12.272 27.308 27.308 27.308H456.86a253.692 253.692 0 0 1-43.544-53.637z"  /><path fill="#FFFFFF" d="M227.712 606.464c-5.042 0-9.075 6.072-9.075 13.657v27.303c0 7.584 4.031 13.656 9.075 13.656h154.062a250.683 250.683 0 0 1 17.561-54.616H227.712z"  /></svg>