<?xml version="1.0" standalone="no"?><!DOCTYPE svg PUBLIC "-//W3C//DTD SVG 1.1//EN" "http://www.w3.org/Graphics/SVG/1.1/DTD/svg11.dtd"><svg class="icon" width="200px" height="200.00px" viewBox="0 0 1024 1024" version="1.1" xmlns="http://www.w3.org/2000/svg"><path fill="#000000" d="M204.32 599.632l286.112-0.976v92.016l52.848 0.272v-91.312h369.728l-0.512 89.152h45.312V561.536H543.28v-71.648h-52.848v71.648H81.472l0.672 129.248h43.328l-0.672-91.152zM750.08 33.456H266.32c-14.352 0-25.952 8.96-25.952 20.016v266.896c0 11.024 11.584 20 25.952 20h164.112v33.36l-34.528 26.688v6.672h224.56v-6.672l-34.528-26.688v-33.392H750.08c14.304 0 25.92-8.96 25.92-20V53.472c0-11.04-11.6-20.016-25.92-20.016z m-24.544 253.536H287.168V73.84h438.336v213.152h0.032zM296.944 828.688h-0.448l0.448 1.84v-1.84z m13.136-9.296c-0.912-0.576-1.312-0.88-1.728-1.088-26.4-14.048-52.8-28.096-79.232-42.08a9.536 9.536 0 0 0-4.352-0.896c-40.608-0.048-81.232-0.048-121.824 0.016a11.2 11.2 0 0 0-4.912 1.264c-10.032 5.184-20 10.496-29.984 15.808-16.592 8.816-33.168 17.648-49.76 26.448l0.064 0.512H310.08z m-137.296-21.088h46.224v-9.744l23.344 13.584-23.152 13.392v-9.904h-46.4v-7.328z m-58.192-19.648l0.432 9.424h5.2l36.08-0.032c5.184 0 5.2 0 5.072 5.216 0 0.656-0.08 1.312-0.16 2.352h-46.192l-0.496 9.856-22.832-13.504 22.896-13.312z m192.16 53.6H19.232C9.328 832.256 0 839.088 0 849.008v37.456c0 9.872 9.328 17.712 19.232 17.712h16.736v6h23.968v-6h203.792v6h29.952v-6h13.072c9.888 0 16.896-7.84 16.896-17.712v-37.456c0.016-9.92-6.992-16.752-16.896-16.752z m-257.856 58H20.192v-16.352h28.704v16.352z m0-26.928H20.192v-16.336h28.704v16.336z m36.624 26.928H68.544v-16.992H85.52v16.992z m0-26.288H68.544v-16.992H85.52v16.992z m31.472 26.288h-16.976v-16.992h16.976v16.992z m0-26.288h-16.976v-16.992h16.976v16.992z m31.456 26.288h-16.976v-16.992h16.976v16.992z m0-26.288h-16.976v-16.992h16.976v16.992z m31.488 26.288H162.96v-16.992h16.976v16.992z m0-26.288H162.96v-16.992h16.976v16.992z m31.456 26.288H194.4v-16.992h16.992v16.992z m0-26.288H194.4v-16.992h16.992v16.992z m31.472 26.288h-16.976v-16.992h16.976v16.992z m0-26.288h-16.976v-16.992h16.976v16.992z m31.456 26.288h-16.992v-16.992h16.992v16.992z m0-26.288h-16.992v-16.992h16.992v16.992z m31.472 26.288h-16.976v-16.992h16.976v16.992z m0-26.288h-16.976v-16.992h16.976v16.992z m359.152-31.28h-0.432l0.432 1.84v-1.84z"  /><path fill="#000000" d="M662.096 818.656c-0.912-0.576-1.312-0.88-1.744-1.088-26.384-14.048-52.784-28.096-79.216-42.08a9.456 9.456 0 0 0-4.336-0.896c-40.624-0.048-81.232-0.048-121.84 0.016a11.312 11.312 0 0 0-4.912 1.264c-10.032 5.184-20 10.496-29.968 15.808l-49.776 26.448 0.08 0.512h291.712z m-137.312-21.088h46.24v-9.744l23.36 13.584-23.184 13.408v-9.904h-46.4v-7.344z m-58.192-19.648l0.432 9.424h5.2l36.08-0.032c5.184 0 5.2 0 5.072 5.216-0.016 0.656-0.08 1.312-0.176 2.352h-46.192l-0.496 9.856-22.816-13.504 22.896-13.312z m192.16 53.6H371.216c-9.888 0-19.216 6.848-19.216 16.752v37.456c0 9.872 9.328 17.712 19.216 17.712h16.752v6h23.968v-6h203.776v6h29.968v-6h13.056c9.904 0 16.912-7.84 16.912-17.712v-37.456c0.016-9.92-6.992-16.752-16.896-16.752z m-257.856 58h-28.704v-16.352h28.704v16.352z m0-26.928h-28.704v-16.336h28.704v16.336z m36.64 26.928h-16.992v-16.992h16.992v16.992z m0-26.288h-16.992V846.24h16.992v16.992z m31.472 26.288h-16.992v-16.992h16.992v16.992z m0-26.288h-16.992V846.24h16.992v16.992z m31.44 26.288h-16.992v-16.992h16.992v16.992z m0-26.288h-16.992V846.24h16.992v16.992z m31.488 26.288h-16.992v-16.992h16.992v16.992z m0-26.288h-16.992V846.24h16.992v16.992z m31.472 26.288H546.4v-16.992h17.008v16.992z m0-26.288H546.4V846.24h17.008v16.992z m31.456 26.288h-16.992v-16.992h16.992v16.992z m0-26.288h-16.992V846.24h16.992v16.992z m31.456 26.288h-16.976v-16.992h16.976v16.992z m0-26.288h-16.976V846.24h16.976v16.992z m31.456 26.288H640.8v-16.992h16.976v16.992z m0-26.288H640.8V846.24h16.976v16.992z m339.504-40.544h-0.432l0.432 1.84v-1.84z m13.152-6.56c-0.912-0.576-1.312-0.88-1.744-1.088-26.384-14.048-52.784-28.096-79.216-42.08a9.456 9.456 0 0 0-4.336-0.896c-40.624-0.048-81.232-0.048-121.84 0.016a11.312 11.312 0 0 0-4.912 1.264c-10.032 5.184-20 10.496-29.968 15.808L718.64 815.6l0.08 0.512h291.712zM873.12 795.024h46.24v-9.744l23.36 13.584-23.184 13.408v-9.904h-46.4v-7.344z m-58.176-19.632l0.432 9.424h5.2l36.08-0.032c5.184 0 5.2 0 5.072 5.216-0.016 0.656-0.08 1.312-0.176 2.352H815.36l-0.496 9.856-22.816-13.504 22.896-13.312z m192.144 53.6h-287.52c-9.888 0-19.216 6.848-19.216 16.752V883.2c0 9.872 9.328 17.712 19.216 17.712h16.752v6h23.968v-6h203.776v6h29.968v-6h13.056c9.904 0 16.912-7.84 16.912-17.712v-37.456c0-9.92-6.992-16.752-16.912-16.752z m-257.856 58h-28.704V870.64h28.704v16.352z m0-26.928h-28.704v-16.336h28.704v16.336z m36.64 26.928H768.88V870h16.992v16.992z m0-26.288H768.88v-16.992h16.992v16.992z m31.472 26.288h-16.992V870h16.992v16.992z m0-26.288h-16.992v-16.992h16.992v16.992z m31.456 26.288h-16.992V870H848.8v16.992z m0-26.288h-16.992v-16.992H848.8v16.992z m31.488 26.288h-16.992V870h16.992v16.992z m0-26.288h-16.992v-16.992h16.992v16.992z m31.456 26.288h-17.008V870h17.008v16.992z m0-26.288h-17.008v-16.992h17.008v16.992z m31.456 26.288h-16.992V870H943.2v16.992z m0-26.288h-16.992v-16.992H943.2v16.992z m31.456 26.288H957.68V870h16.976v16.992z m0-26.288H957.68v-16.992h16.976v16.992z m31.472 26.288h-16.976V870h16.976v16.992z m0-26.288h-16.976v-16.992h16.976v16.992z"  /></svg>