<?xml version="1.0" standalone="no"?><!DOCTYPE svg PUBLIC "-//W3C//DTD SVG 1.1//EN" "http://www.w3.org/Graphics/SVG/1.1/DTD/svg11.dtd"><svg t="1578135110234" class="icon" viewBox="0 0 1024 1024" version="1.1" xmlns="http://www.w3.org/2000/svg" p-id="529" width="200" height="200" xmlns:xlink="http://www.w3.org/1999/xlink"><defs><style type="text/css"></style></defs><path d="M698.88 388.608c-2.56 19.968-6.656 39.936-11.264 59.904l-23.04 91.648h71.68l-22.016-86.528c-7.168-26.624-12.288-48.128-15.36-65.024z" p-id="530" fill="#D2B242"></path><path d="M512 66.56c-245.76 0-445.44 199.68-445.44 445.44s199.68 445.44 445.44 445.44 445.44-199.68 445.44-445.44-199.68-445.44-445.44-445.44zM391.68 668.16L316.416 509.952l-34.304 49.664v108.544h-28.16v-312.32H281.6v155.136l104.96-155.136h37.888L335.872 482.304l92.672 185.856h-36.864z m120.32 0l-81.92-312.32h30.208l54.784 227.328c4.608 18.432 8.192 35.328 11.264 51.2 3.072-16.896 7.168-34.304 11.264-51.2l56.832-227.328h28.672l-82.432 312.832H512z m257.024 0l-24.576-94.72h-88.064l-23.04 94.72h-29.696l80.896-312.832h30.208l86.528 312.832h-32.256z" p-id="531" fill="#D2B242"></path></svg>