<?xml version="1.0" standalone="no"?><!DOCTYPE svg PUBLIC "-//W3C//DTD SVG 1.1//EN" "http://www.w3.org/Graphics/SVG/1.1/DTD/svg11.dtd"><svg class="icon" width="200px" height="200.00px" viewBox="0 0 1024 1024" version="1.1" xmlns="http://www.w3.org/2000/svg"><path fill="#000000" d="M566.784 64c4.096-10.24 0-20.992-9.216-26.624-9.216-5.632-20.992-3.584-28.16 5.12L87.552 573.44c-15.36 24.064 6.656 29.184 13.312 29.184h236.032c21.504 0 29.696 6.144 15.36 35.84l-128 319.488c-14.336 34.304 19.456 39.936 36.352 23.04l506.368-529.92c11.264-11.264 23.04-31.744-12.288-31.744H463.872c-20.992 0-44.544-2.56-23.04-34.304L566.784 64z m337.92 546.816L808.96 773.632h75.264v35.84h-87.552v49.664h87.552v36.352h-87.552v72.192h-45.056v-72.192H660.48v-36.352h90.624v-49.664H660.48v-35.84h77.312l-94.72-162.304h50.688c44.032 80.896 71.168 131.584 80.384 153.6h1.024c3.072-8.704 12.288-26.624 26.624-53.76l54.272-99.84h48.64z" /></svg>