<?xml version="1.0" standalone="no"?><!DOCTYPE svg PUBLIC "-//W3C//DTD SVG 1.1//EN" "http://www.w3.org/Graphics/SVG/1.1/DTD/svg11.dtd"><svg t="1531795207527" class="icon" style="" viewBox="0 0 1024 1024" version="1.1" xmlns="http://www.w3.org/2000/svg" p-id="8066" xmlns:xlink="http://www.w3.org/1999/xlink" width="48" height="48"><defs><style type="text/css"></style></defs><path d="M387.017 261.155h242.129c74.925 0 132.079-162.482 132.079-162.482 0-48.66-4.872-85.474-88.07-88.068-83.172-2.62-103.098 58.158-162.872 58.158-61.266 0-91.91-47.78-167.301-58.158-75.365-10.427-88.044 39.408-88.044 88.068 0 0.001 57.129 162.482 132.079 162.482z m255.346 50.227H387.017c-282.762 0-352.204 555.51-352.204 555.51 0 72.967 59.138 146.253 132.08 146.253h695.57c72.942 0 132.078-73.286 132.078-146.253 0 0-69.465-555.51-352.178-555.51z m28.982 426.93c17.036 0 30.842 13.83 30.842 30.867 0 17.035-13.805 30.865-30.842 30.865H546.143v80.971c0 17.035-13.805 30.867-30.817 30.867-17.036 0-30.84-13.832-30.84-30.867v-80.97h-126.01c-17.035 0-30.84-13.83-30.84-30.866 0-17.037 13.805-30.867 30.84-30.867h126.01V699.15h-126.01c-17.035 0-30.84-13.806-30.84-30.842s13.805-30.89 30.84-30.89h85.181l-87.212-154.99c-8.518-14.785-3.452-33.633 11.284-42.15 14.759-8.519 33.607-3.476 42.125 11.259l105.008 185.88h5.31l105.008-185.88c8.517-14.735 27.365-19.779 42.101-11.258 14.76 8.516 19.828 27.364 11.309 42.148l-87.213 154.99h79.968c17.036 0 30.842 13.854 30.842 30.891 0 17.035-13.805 30.842-30.842 30.842H546.143v39.162h125.202z" p-id="8067"></path></svg>