<?xml version="1.0" standalone="no"?><!DOCTYPE svg PUBLIC "-//W3C//DTD SVG 1.1//EN" "http://www.w3.org/Graphics/SVG/1.1/DTD/svg11.dtd"><svg class="icon" width="32px" height="32.00px" viewBox="0 0 1024 1024" version="1.1" xmlns="http://www.w3.org/2000/svg"><path fill="#FFFFFF" d="M909.312 271.872H114.688c-11.264 0-20.48-9.216-20.48-20.48v-51.2c0-11.264 9.216-20.48 20.48-20.48H908.8c11.264 0 20.48 9.216 20.48 20.48v51.2c0.512 11.264-8.704 20.48-19.968 20.48z m0 279.04H114.688c-11.264 0-20.48-9.216-20.48-20.48v-51.2c0-11.264 9.216-20.48 20.48-20.48H908.8c11.264 0 20.48 9.216 20.48 20.48v51.2c0.512 11.264-8.704 20.48-19.968 20.48z m0 290.816H114.688c-11.264 0-20.48-9.216-20.48-20.48v-51.2c0-11.264 9.216-20.48 20.48-20.48H908.8c11.264 0 20.48 9.216 20.48 20.48v51.2c0.512 11.264-8.704 20.48-19.968 20.48z"  /><path fill="#FFFFFF" d="M797.184 335.36H613.888c-16.896 0-30.72-13.824-30.72-30.72V152.576c0-16.896 13.824-30.72 30.72-30.72h183.296c16.896 0 30.72 13.824 30.72 30.72V304.64c0 16.896-13.824 30.72-30.72 30.72z m0 566.784H613.888c-16.896 0-30.72-13.824-30.72-30.72V719.36c0-16.896 13.824-30.72 30.72-30.72h183.296c16.896 0 30.72 13.824 30.72 30.72v152.064c0 16.896-13.824 30.72-30.72 30.72z m-386.56-288.256H227.328c-16.896 0-30.72-13.824-30.72-30.72V431.104c0-16.896 13.824-30.72 30.72-30.72h183.296c16.896 0 30.72 13.824 30.72 30.72v152.064c0 16.896-13.824 30.72-30.72 30.72z"  /></svg>