<?xml version="1.0" standalone="no"?><!DOCTYPE svg PUBLIC "-//W3C//DTD SVG 1.1//EN" "http://www.w3.org/Graphics/SVG/1.1/DTD/svg11.dtd"><svg class="icon" width="32px" height="32.00px" viewBox="0 0 1024 1024" version="1.1" xmlns="http://www.w3.org/2000/svg"><path fill="#FFFFFF" d="M885.622 1024H138.378a96.865 96.865 0 0 1-96.864-96.865V96.865A96.865 96.865 0 0 1 138.378 0h747.244a96.865 96.865 0 0 1 96.864 96.865v830.27A96.865 96.865 0 0 1 885.622 1024zM138.378 83.027a13.838 13.838 0 0 0-13.837 13.838v830.27a13.838 13.838 0 0 0 13.837 13.838h747.244a13.838 13.838 0 0 0 13.837-13.838V96.865a13.838 13.838 0 0 0-13.837-13.838z"  /><path fill="#FFFFFF" d="M788.757 418.456H235.243a55.351 55.351 0 0 1-55.351-55.351V55.35A55.351 55.351 0 0 1 235.243 0h553.514a55.351 55.351 0 0 1 55.351 55.351v307.754a55.351 55.351 0 0 1-55.351 55.351zM235.243 55.351v307.754h553.514V55.35z"  /><path fill="#FFFFFF" d="M320.761 168.545h55.351v110.703h-55.35z m108.489 0H484.6v110.703H429.25z m108.488 0h55.352v110.703h-55.352z m108.627 0h55.352v110.703h-55.352z m-64.346 464.12h83.72L465.781 872.892l66.698-169.099h-74.31l74.31-199.68h144.052l-94.513 128.554z m-196.774 59.227h52.307L312.735 841.756l41.514-105.583h-46.357l46.357-124.679h90.084l-59.088 80.398z"  /></svg>