<?xml version="1.0" standalone="no"?><!DOCTYPE svg PUBLIC "-//W3C//DTD SVG 1.1//EN" "http://www.w3.org/Graphics/SVG/1.1/DTD/svg11.dtd"><svg t="1531795635541" class="icon" style="" viewBox="0 0 1024 1024" version="1.1" xmlns="http://www.w3.org/2000/svg" p-id="2941" xmlns:xlink="http://www.w3.org/1999/xlink" width="48" height="48"><defs><style type="text/css"></style></defs><path d="M757.184 359.856c-11.454 0-20.826-9.502-20.826-21.255v-35.389c0-38.935-27.971-70.73-62.443-70.73h-374.58c-34.433 0-62.447 31.73-62.447 70.73v367.929c0 39.003 28.036 70.733 62.447 70.733h83.229c11.457 0 20.829 9.502 20.829 21.255 0 11.692-9.332 21.212-20.829 21.212h-83.229c-57.325 0-104.062-50.753-104.062-113.135v-367.95c0-62.379 46.672-113.135 104.062-113.135h374.558c57.383 0 104.059 50.756 104.059 113.135v35.388c0 11.71-9.307 21.212-20.764 21.212h-0.004z" p-id="2942"></path><path d="M278.546 431.982c0-11.688 9.332-21.211 20.764-21.211h124.827c11.519 0 20.829 9.498 20.829 21.211 0 11.692-9.329 21.255-20.829 21.255H299.309c-11.432-0.065-20.763-9.564-20.763-21.255zM278.546 304.648c0-11.692 9.332-21.211 20.764-21.211h166.525c11.46 0 20.768 9.502 20.768 21.211 0 11.752-9.332 21.211-20.768 21.211h-166.5c-11.458-0.021-20.789-9.52-20.789-21.211zM725.645 598.815c31.5-23.148 52.224-60.618 52.224-103.146 0-70.182-56.048-127.333-124.827-127.333-68.778 0-124.823 57.151-124.823 127.333 0 42.509 20.721 79.976 52.217 103.146-66.397 33.751-114.603 108.565-114.729 172.73 0 11.712 9.311 21.211 20.768 21.211 11.497 0 20.828-9.459 20.828-21.211 0-58.682 65.251-148.542 145.674-148.542 80.427 0 145.677 89.882 145.677 148.542 0 11.712 9.311 21.211 20.764 21.211 11.5 0 20.829-9.459 20.829-21.211 0-64.165-48.201-138.979-114.602-172.73z m-72.516-18.278c-45.952 0-83.233-38.025-83.233-84.867 0-46.802 37.257-84.867 83.211-84.867 45.951 0 83.227 38.087 83.227 84.867 0 46.842-37.276 84.867-83.205 84.867z" p-id="2943"></path><path d="M392.81 694.266s58.462-4.868 67.663-66.193c0-41.32-33.832-64.722-33.832-64.722s-6.957 12.491-14.699 16.18c0.062 0.562 20.94-55.909-48.542-83.844-0.081 1.051 3.135 14.829 2.944 20.594-0.192 5.765-5.029 31.807-30.902 51.482s-39.291 33.847-39.716 60.309c-0.424 26.462 14.113 54.98 64.723 66.193-0.042 0.312-20.563-22.711-20.594-48.542-0.031-25.831 24.7-42.925 36.775-50.013-0.266-0.081-1.319 4.486-1.47 11.767-0.151 7.281 4.416 20.247 13.238 27.94 8.822 7.693 16.293 20.198 16.181 27.956-0.114 7.76-6.177 23.45-11.769 30.893z m0 0" p-id="2944"></path></svg>