<?xml version="1.0" standalone="no"?><!DOCTYPE svg PUBLIC "-//W3C//DTD SVG 1.1//EN" "http://www.w3.org/Graphics/SVG/1.1/DTD/svg11.dtd"><svg t="1578135332354" class="icon" viewBox="0 0 1024 1024" version="1.1" xmlns="http://www.w3.org/2000/svg" p-id="959" xmlns:xlink="http://www.w3.org/1999/xlink" width="200" height="200"><defs><style type="text/css"></style></defs><path d="M722.432 528.896H665.6c-6.144 0-10.752-5.12-10.752-10.752s5.12-10.752 10.752-10.752h55.808c-2.048-24.064-8.192-46.592-17.92-67.584h-56.832c-6.144 0-10.752-5.12-10.752-10.752 0-6.144 5.12-10.752 10.752-10.752h45.568c-27.136-45.056-71.168-79.36-123.392-93.696V373.76c0 6.144-5.12 10.752-10.752 10.752s-10.752-5.12-10.752-10.752V318.976c-11.264-2.048-23.04-3.072-35.328-3.072s-23.552 1.024-35.328 3.072v54.272c0 6.144-5.12 10.752-10.752 10.752s-10.752-5.12-10.752-10.752v-49.152c-51.712 14.848-95.744 48.64-123.392 93.696h45.056c6.144 0 10.752 5.12 10.752 10.752 0 6.144-5.12 10.752-10.752 10.752H321.024h-0.512c-9.728 20.992-15.872 43.52-17.92 67.584h54.272c6.144 0 10.752 5.12 10.752 10.752s-5.12 10.752-10.752 10.752H301.568c1.024 70.144 35.84 140.8 88.064 178.688h85.504l25.6-178.688h23.04l25.6 178.688h83.456c53.248-36.864 88.576-108.032 89.6-178.176z" p-id="960" fill="#32C8CC"></path><path d="M957.44 512c0-245.76-199.68-445.44-445.44-445.44s-445.44 199.68-445.44 445.44 199.68 445.44 445.44 445.44 445.44-199.68 445.44-445.44z m-311.808 224.256l-4.096 2.56H512 379.904l-4.096-2.56c-64-43.52-104.96-125.952-104.96-209.408 0-133.12 108.032-241.152 241.152-241.152s241.152 108.032 241.152 241.152c0 83.456-41.984 165.888-107.52 209.408z" p-id="961" fill="#32C8CC"></path></svg>