<?xml version="1.0" standalone="no"?><!DOCTYPE svg PUBLIC "-//W3C//DTD SVG 1.1//EN" "http://www.w3.org/Graphics/SVG/1.1/DTD/svg11.dtd"><svg t="1548724368606" class="icon" style="" viewBox="0 0 1024 1024" version="1.1" xmlns="http://www.w3.org/2000/svg" p-id="3306" xmlns:xlink="http://www.w3.org/1999/xlink" width="200" height="200"><defs><style type="text/css"></style></defs><path d="M72 112.197l0 0 0 799.604c0 22.215 17.987 40.198 40.198 40.198l799.604 0c22.215 0 40.198-17.987 40.198-40.198l0-799.604c0-22.215-17.987-40.198-40.198-40.198l-799.604 0c-22.215 0-40.198 17.987-40.198 40.198l0 0zM292 703.716l-70.613-70.613c-7.652-7.652-20.571-7.907-28.381-0.097-7.583 7.582-7.767 20.517 0.097 28.381l70.613 70.613-70.613 70.613c-7.652 7.652-7.907 20.571-0.097 28.381 7.582 7.583 20.517 7.767 28.381-0.097l70.613-70.613 70.613 70.613c7.652 7.652 20.571 7.907 28.381 0.097 7.582-7.582 7.767-20.517-0.097-28.381l-70.613-70.613 70.613-70.613c7.652-7.652 7.907-20.571 0.097-28.381-7.582-7.582-20.517-7.767-28.381 0.097l-70.613 70.613zM272 272l-99.863 0c-10.821 0-20.137 8.954-20.137 20 0 10.722 9.016 20 20.137 20l99.863 0 0 99.863c0 10.821 8.954 20.137 20 20.137 10.723 0 20-9.016 20-20.137l0-99.863 99.863 0c10.821 0 20.137-8.954 20.137-20 0-10.722-9.016-20-20.137-20l-99.863 0 0-99.863c0-10.821-8.954-20.137-20-20.137-10.722 0-20 9.016-20 20.137l0 99.863zM32 112.197c0-44.292 35.881-80.197 80.197-80.197l799.604 0c44.292 0 80.197 35.881 80.197 80.197l0 799.604c0 44.292-35.881 80.197-80.197 80.197l-799.604 0c-44.292 0-80.197-35.881-80.197-80.197l0-799.604zM552 292c0-11.046 9.316-20 20.137-20l239.726 0c11.122 0 20.137 9.278 20.137 20 0 11.046-9.316 20-20.137 20l-239.726 0c-11.122 0-20.137-9.278-20.137-20zM552 652c0-11.046 9.316-20 20.137-20l239.726 0c11.122 0 20.137 9.278 20.137 20 0 11.046-9.316 20-20.137 20l-239.726 0c-11.122 0-20.137-9.278-20.137-20zM552 812c0-11.046 9.316-20 20.137-20l239.726 0c11.122 0 20.137 9.278 20.137 20 0 11.046-9.316 20-20.137 20l-239.726 0c-11.122 0-20.137-9.278-20.137-20z" p-id="3307"></path></svg>