<?xml version="1.0" standalone="no"?><!DOCTYPE svg PUBLIC "-//W3C//DTD SVG 1.1//EN" "http://www.w3.org/Graphics/SVG/1.1/DTD/svg11.dtd"><svg class="icon" width="200px" height="200.00px" viewBox="0 0 1024 1024" version="1.1" xmlns="http://www.w3.org/2000/svg"><path fill="#000000" d="M892.8 112c9.6-1.6 19.2 6.4 19.2 16 0 6.4-3.2 11.2-8 14.4L652.8 393.6c-6.4 6.4-17.6 8-24 1.6-6.4-6.4-6.4-17.6 1.6-24 83.2-83.2 164.8-166.4 248-248 4.8-4.8 8-9.6 14.4-11.2z"  /><path fill="#000000" d="M124.8 144H736c9.6-1.6 17.6 6.4 17.6 16s-8 16-17.6 16H144v704h640V352c0-9.6 6.4-17.6 16-16 9.6 0 16 8 16 16v544c0 8-8 16-16 16H136c-4.8 0-11.2 0-16-1.6-6.4-3.2-9.6-9.6-8-16V160c0-8 4.8-14.4 12.8-16z"  /><path fill="#000000" d="M424 272c28.8-9.6 60.8-8 89.6 3.2 24 11.2 44.8 30.4 57.6 54.4 14.4 27.2 17.6 57.6 9.6 86.4-6.4 27.2-24 51.2-46.4 67.2 59.2 16 110.4 52.8 145.6 104 28.8 43.2 46.4 94.4 46.4 145.6v40c0 8-8 16-16 16H217.6c-8 0-16-8-16-16 0-24-1.6-48 1.6-72 8-59.2 36.8-113.6 78.4-153.6C312 518.4 350.4 496 392 484.8c-22.4-16-40-40-46.4-67.2-8-28.8-4.8-60.8 9.6-86.4 16-27.2 40-48 68.8-59.2m25.6 27.2c-33.6 4.8-60.8 30.4-70.4 62.4-6.4 24-3.2 51.2 11.2 72 16 25.6 44.8 41.6 75.2 40 25.6 1.6 52.8-11.2 68.8-32 14.4-17.6 22.4-43.2 19.2-67.2-3.2-24-16-44.8-33.6-59.2-20.8-14.4-46.4-20.8-70.4-16m-144 272c-36.8 35.2-60.8 81.6-68.8 132.8-3.2 17.6-3.2 36.8-3.2 54.4h460.8c0-28.8-1.6-57.6-9.6-84.8-17.6-59.2-59.2-110.4-113.6-139.2-32-17.6-68.8-27.2-105.6-27.2-59.2-1.6-118.4 22.4-160 64z"  /><path fill="#000000" d="M457.6 548.8c9.6-6.4 24 3.2 24 16 0 11.2-16 19.2-25.6 12.8-11.2-6.4-9.6-24 1.6-28.8z"  /></svg>