<?xml version="1.0" standalone="no"?><!DOCTYPE svg PUBLIC "-//W3C//DTD SVG 1.1//EN" "http://www.w3.org/Graphics/SVG/1.1/DTD/svg11.dtd"><svg class="icon" width="32px" height="30.60px" viewBox="0 0 1071 1024" version="1.1" xmlns="http://www.w3.org/2000/svg"><path fill="#FFFFFF" d="M940.194 0H128.327C57.617 0 0 57.616 0 128.327v576.164c0 70.711 57.616 128.327 128.327 128.327h811.867c70.711 0 128.328-57.616 128.328-128.327V128.327C1071.14 57.617 1013.524 0 940.194 0z m57.617 704.491c0 31.427-26.19 54.997-54.998 54.997H130.946c-31.427 0-54.997-26.189-54.997-54.997V128.327c0-31.427 26.19-54.997 54.997-54.997h811.867c31.427 0 54.998 26.19 54.998 54.997v576.164z m-91.663 243.56H701.872V927.1c0-18.333-13.095-31.427-31.427-31.427h-293.32c-18.332 0-31.427 13.094-31.427 31.427v20.951H144.041c-20.951 0-36.665 15.714-36.665 36.665s15.714 36.665 36.665 36.665h762.107c20.952 0 36.665-15.713 36.665-36.665s-15.713-36.665-36.665-36.665z"  /><path fill="#FFFFFF" d="M350.936 274.987c-34.046 0-60.235 26.19-60.235 60.236s26.189 60.235 60.235 60.235 60.235-26.19 60.235-60.235-26.189-60.236-60.235-60.236z m0 96.9c-20.951 0-36.665-15.713-36.665-36.664s15.714-36.665 36.665-36.665 36.665 15.713 36.665 36.665-18.332 36.664-36.665 36.664z m542.118-107.375l-20.952-2.62v-5.237l15.714-13.095c2.619-5.238 5.238-7.857 7.857-13.095 2.619-5.237 0-10.475-2.62-15.713l-13.094-23.57c-7.857-7.857-18.332-13.095-26.19-7.857l-20.95 7.857-2.62-2.62 7.857-20.95c2.62-5.239 2.62-7.858 0-13.095s-5.238-10.476-7.857-13.095l-23.57-13.095c-10.476-5.237-20.951-2.619-26.19 5.238l-13.094 15.714h-5.238l-5.237-20.952c0-10.475-10.476-18.332-18.333-18.332H709.73c-10.476 0-18.333 7.857-18.333 18.332l-2.619 20.952h-5.237l-13.095-15.714c-5.238-7.857-15.714-10.475-26.19-5.238l-23.57 13.095c-5.237 2.619-7.856 7.857-7.856 13.095v13.094l7.856 20.952-2.619 2.619-23.57-7.857h-13.094c-5.238 2.619-10.476 5.238-13.095 7.857l-13.095 23.57c-2.619 5.238-2.619 10.476-2.619 15.713 2.62 5.238 5.238 10.476 7.857 10.476l15.714 15.714v5.238l-20.952 5.237c-10.475 0-18.332 10.476-18.332 18.333v28.808c0 10.476 7.857 18.333 18.332 18.333l20.952 2.619v5.237l-15.714 13.095c-2.619 2.619-5.238 5.238-7.857 10.476-2.619 5.238 0 10.475 2.62 15.713l13.094 23.57c5.238 10.476 18.332 13.095 23.57 7.857l20.952-7.856 2.619 2.619-7.857 20.95c-2.62 5.239-2.62 7.858 0 13.096s5.238 10.475 7.857 13.094l23.57 13.095c5.238 2.619 10.476 2.619 15.713 2.619 5.238-2.62 10.476-5.238 10.476-7.857l13.095-15.714h5.238l5.237 20.952c0 10.476 10.476 18.332 18.333 18.332h28.808c10.476 0 18.333-7.856 18.333-18.332l2.619-20.952h5.237l13.095 15.714c2.619 2.619 5.238 5.238 10.476 7.857 5.238 2.619 10.475 0 15.713-2.62l23.57-13.094c10.476-5.238 13.095-18.332 7.857-23.57l-7.856-20.952 2.619-2.618 20.951 7.856c7.857 5.238 20.951 0 26.19-7.856l13.094-23.57c5.238-10.477 2.619-20.952-5.238-26.19l-15.714-13.095v-5.238l20.952-5.237c10.476 0 18.332-10.476 18.332-18.333v-28.808c5.238-13.095-2.619-20.951-13.094-20.951z m-10.476 39.283l-34.046 7.857-2.619 10.476c0 5.238-2.619 10.476-5.238 18.332l-2.619 10.476 26.19 20.951-5.238 10.476-20.952-7.857-10.475-7.856-10.476 10.475c-5.238 5.238-7.857 10.476-13.095 13.095l-10.475 7.857 7.856 10.475 7.857 20.952-10.476 5.238-15.713-15.714-5.238-10.476-13.095 5.238c-7.856 2.62-13.094 5.238-18.332 5.238l-10.476 2.62-5.238 34.045h-13.094l-7.857-34.046-7.857-2.619c-5.238 0-10.476-2.619-18.332-5.238l-13.095-5.238-5.238 10.476-13.094 15.714-10.476-5.238 7.857-20.952 7.856-10.475-13.094-5.238c-5.238-5.238-10.476-7.857-13.095-13.095l-7.857-13.094-10.475 5.237-20.952 7.857-5.238-10.475 15.714-15.714 10.476-7.857-2.62-10.475c-2.618-7.857-5.237-13.095-5.237-18.333l-2.62-10.476-34.045-5.238v-13.094l34.046-7.857 2.619-10.476c0-5.237 2.619-10.475 5.238-18.332l5.238-13.095h-13.095l-15.714-13.094 5.238-10.476 20.952 7.857 10.475 5.238 7.857-10.476c5.238-5.238 7.857-10.476 13.095-13.095l10.475-7.857-7.856-10.475-7.857-20.952 10.476-7.856 15.713 15.713 5.238 10.476 13.095-5.238c7.856-2.619 13.094-5.238 18.332-5.238l10.476-2.619 5.238-34.046h13.094l7.857 34.046 10.476 2.62c5.238 0 10.475 2.618 18.332 5.237l10.476 2.619 20.951-26.19 10.476 5.238-7.857 20.952-7.856 10.476 10.475 7.856c5.238 5.238 10.476 7.857 13.095 13.095l10.476 10.476 10.475-2.62 20.952-7.856 5.238 10.476-15.714 15.713-10.476 5.238 5.238 13.095c2.619 7.857 5.238 13.094 5.238 18.332l2.619 10.476 34.046 5.238v13.094z"  /><path fill="#FFFFFF" d="M725.442 225.228c-39.283 0-70.71 31.427-70.71 70.71s31.427 70.712 70.71 70.712 70.711-31.427 70.711-70.711-31.427-70.711-70.71-70.711z m0 115.232c-23.57 0-41.902-18.332-41.902-41.902s18.332-41.903 41.902-41.903 41.903 18.332 41.903 41.903-20.951 41.902-41.903 41.902zM591.877 531.642l-10.475-2.619v-2.619l7.856-7.857c2.62-2.619 5.238-2.619 5.238-7.856v-7.857l-7.857-13.095c-2.619-2.619-2.619-5.238-7.856-5.238h-7.857l-10.476 5.238-2.619-2.619 2.62-10.475c2.618-2.62 2.618-5.238 0-7.857 0-2.62-2.62-5.238-5.239-7.857l-13.094-7.857c-5.238-2.619-13.095 0-13.095 2.62l-7.857 10.475h-2.619l-2.619-10.476c0-5.238-5.237-10.476-10.475-10.476h-15.714c-5.238 0-10.476 5.238-10.476 10.476l-2.618 13.095h-2.62l-7.856-7.857c-2.62-5.238-10.476-7.857-15.714-5.238l-2.619 2.619v-10.476l-7.856-18.332 2.618-2.62 15.714 5.239c7.857 5.238 18.333 2.619 23.57-5.238l13.095-20.951c5.238-7.857 2.619-18.333-5.238-20.952l-13.094-10.476v-2.619l15.713-2.618c10.476 0 15.714-7.857 15.714-15.714v-23.57c0-7.857-7.857-15.714-15.714-15.714l-18.332-2.619v-2.619l13.094-10.475c2.62-2.62 7.857-5.238 7.857-10.476s0-7.857-2.619-13.095l-13.095-20.951c-2.618-2.62-5.237-7.857-10.475-7.857h-10.476l-18.332 7.857-2.62-2.62 7.857-23.57c2.62-2.618 2.62-7.856 2.62-13.094s-2.62-7.857-7.857-10.476l-20.952-13.094c-2.619-2.62-7.857-2.62-13.094-2.62s-7.857 2.62-7.857 5.239l-13.095 15.713h-2.619l-2.619-15.713c0-10.476-7.857-15.714-15.713-15.714h-23.57c-10.476 0-15.714 7.857-15.714 15.714l-5.238 15.713h-2.619l-10.476-13.095c-2.619-2.618-5.238-7.856-10.475-7.856s-7.857 0-13.095 2.619l-23.57 13.094c-7.857 5.238-10.476 15.714-5.238 20.952l7.857 18.332-2.62 2.619-18.332-5.238c-2.619-2.619-7.857-2.619-13.094-2.619s-7.857 2.62-10.476 7.857l-13.095 20.951c-2.619 7.857 0 18.333 5.238 20.952l15.714 10.476v2.618l-15.714 2.62c-10.476 0-15.713 7.856-15.713 15.713v23.57c0 7.857 7.856 15.714 15.713 15.714l18.333 2.619v2.619l-13.095 10.475c-7.857 5.238-10.476 15.714-5.238 23.57l13.095 20.952c2.619 2.62 5.238 7.857 10.475 7.857h10.476l18.333-7.857 2.619 2.62-10.476 23.57c-2.62 2.618-2.62 7.856-2.62 13.094s2.62 7.857 7.858 10.476l20.951 13.094c7.857 5.238 18.333 2.62 20.951-5.237l13.095-13.095h2.619l2.619 15.713c0 10.476 7.857 15.714 15.714 15.714h23.57c10.476 0 15.713-7.857 15.713-15.714l2.62-18.332h2.618l10.476 13.095c2.619 2.619 5.238 7.856 10.476 7.856s7.856 0 13.094-2.619l13.095-7.856v5.238l5.238 10.475-2.62 2.62-10.475-2.62c-2.619-2.619-5.238-2.619-7.857 0-2.619 0-5.237 2.62-7.856 5.238l-7.857 13.095c-2.62 2.619-2.62 5.238 0 7.856 0 2.62 2.619 5.238 5.238 5.238l10.475 7.857v2.619l-10.475 2.619c-5.238 0-10.476 5.238-10.476 10.476v15.713c0 5.238 5.238 10.476 10.476 10.476l13.094 2.619v2.619l-7.856 7.857c-2.62 2.618-5.238 2.618-5.238 7.856v7.857l7.856 13.095c2.62 2.619 2.62 5.238 7.857 5.238h7.857l10.476-5.238 2.619 2.619-2.62 10.475c-2.618 2.62-2.618 5.238 0 7.857s2.62 5.238 5.239 7.857l13.094 7.857c5.238 2.619 13.095 0 13.095-2.62l7.857-10.475h2.619l2.618 10.476c0 5.238 5.238 10.475 10.476 10.475h15.714c5.238 0 10.475-5.237 10.475-10.475l2.62-13.095h2.618l7.857 7.857c2.619 2.619 2.619 5.238 7.857 5.238h7.857l13.094-7.857c2.62-2.619 5.238-2.619 5.238-7.857v-7.857l-5.238-10.475 2.62-2.62 10.475 2.62c5.238 2.619 13.094 0 15.713-5.238l7.857-13.095c2.62-5.238 0-13.094-2.619-13.094l-10.475-7.857v-2.62l10.475-2.618c5.238 0 10.476-5.238 10.476-10.476V539.5c0-2.62-5.238-7.857-10.476-7.857z m-175.468-99.52l5.238 18.333-10.476 5.238-13.094-15.713-5.238-7.857-10.476 2.619c-5.238 2.619-10.476 2.619-15.713 5.238l-7.857 2.618-2.62 28.809h-10.475l-5.238-28.809-7.856-2.618c-5.238 0-10.476-2.62-15.714-5.238l-13.095-5.238-2.619 10.476-13.094 15.713-7.857-5.238 5.238-18.332 5.238-7.857-7.857-7.857c-5.238-2.619-7.857-7.857-13.095-13.094l-7.856-7.857-7.857 5.238-18.333 7.856-5.238-10.475 13.095-13.095 10.476-5.238-2.62-10.475c-2.618-5.238-2.618-10.476-5.237-15.714l-2.619-7.857-28.808-5.238v-10.475l28.808-5.238 2.619-7.857c0-5.238 2.619-10.476 5.238-15.714l2.619-10.475-7.857-5.238-15.714-13.095 5.238-7.856 18.333 5.237 7.857 5.238 7.856-7.857c2.62-5.237 7.857-7.856 13.095-13.094l7.857-7.857-5.238-7.857-5.238-18.332 7.857-2.62 13.094 13.095 5.238 7.857 7.857-2.619c5.238-2.619 10.476-2.619 15.714-5.238h10.475l5.238-28.808h10.476l5.238 28.808 7.857 2.62c5.237 0 10.475 2.618 15.713 5.237l10.476 2.62 5.238-7.858 13.094-15.713 10.476 5.238-5.238 18.332-5.238 7.857 5.238 7.857c5.238 2.619 7.857 7.857 13.095 13.094l7.857 7.857 7.856-5.238 18.333-7.856 5.238 10.475-13.095 13.095-13.095 2.619 2.62 10.475c2.618 5.238 2.618 10.476 5.237 15.714l2.62 7.857 28.807 5.238v10.475l-28.808 5.238-2.619 7.857c0 5.238-2.619 10.476-5.238 15.714l-2.619 10.475 7.857 5.238 15.714 13.095-5.238 10.475-18.333-7.856-7.856-5.238-7.857 7.857c-2.62 5.237-7.857 7.856-13.095 13.094l-7.857 7.857 7.857 7.857z m170.23 123.09l-18.332 2.62v5.237c0 2.619-2.619 7.857-2.619 10.476l-2.619 5.238 15.714 10.475-2.62 5.238-13.094-2.619-5.238-2.619-7.857 7.857-7.856 7.857-5.238 5.238 5.238 5.238 5.237 10.475-5.237 2.62-7.857-7.858v-7.856l-10.476 5.237c-2.619 0-7.857 2.62-10.476 2.62h-5.237l-2.62 18.332h-7.856l-2.619-18.333h-5.238c-2.619 0-7.857-2.619-10.476-2.619l-7.856-2.618-2.62 5.237-7.856 10.476-5.238-2.619 5.238-10.476 5.238-5.237-5.238-5.238-7.857-7.857-5.238-5.238-18.332 7.857-10.476-10.476 10.476-7.857 5.238-2.618-2.62-7.857c0-2.62-2.618-7.857-2.618-10.476v-5.238l-18.333-2.619v-7.857l18.333-2.618v-5.238c0-2.62 2.619-7.857 2.619-10.476l2.619-7.857-7.857-2.619-7.857-7.856 2.62-5.238 10.475 2.619 5.238 5.237 5.237-5.237 7.857-7.857 5.238-5.238-2.619-5.238-5.238-10.476 5.238-2.618 7.857 7.856v10.476l13.095-5.238c2.619 0 7.856-2.619 10.475-2.619h5.238l2.62-18.332h7.856l2.619 18.332h5.238c2.619 0 7.856 2.62 10.475 2.62l5.238 2.618 5.238-5.238 5.238-7.857 5.238 2.62-5.238 13.094-2.62 5.238 5.239 5.238 7.857 7.856 5.237 5.238 5.238-5.238 10.476-5.237 2.619 5.237-7.857 7.857-7.857 2.62 2.62 7.856c0 2.619 2.618 7.857 2.618 10.476v5.237l18.333 2.62v5.237z"  /><path fill="#FFFFFF" d="M497.596 510.69c-20.951 0-39.284 18.333-39.284 39.284s18.333 39.284 39.284 39.284 39.284-18.332 39.284-39.284-18.333-39.283-39.284-39.283z m0 65.474c-13.095 0-23.57-10.476-23.57-23.57s10.475-23.571 23.57-23.571 23.57 10.476 23.57 23.57-10.475 23.57-23.57 23.57z"  /></svg>