<?xml version="1.0" standalone="no"?><!DOCTYPE svg PUBLIC "-//W3C//DTD SVG 1.1//EN" "http://www.w3.org/Graphics/SVG/1.1/DTD/svg11.dtd"><svg class="icon" width="200px" height="190.69px" viewBox="0 0 1074 1024" version="1.1" xmlns="http://www.w3.org/2000/svg"><path fill="#000000" d="M389.473 90.983h295.783L753.523 0H321.206l68.267 90.983zM321.09 933.017h-22.717l-45.55 68.267H93.572V978.45h-45.55v-90.983H23.54c2.707-88.982 4.355-213.981 4.355-353.104 0-164.781-2.354-309.436-5.885-398.183h26.012V45.55h68.267V22.716h136.533l45.55 68.267h22.717V68.267L275.656 0H2.59v136.533h3.296C2.236 225.28 0 370.406 0 534.716c0 138.77 1.648 263.769 4.237 353.104H2.59V1024h273.067l45.433-68.267z m68.384 0L321.206 1024h432.317l-68.267-90.983H389.473z m685.138-398.3c0-164.782-2.236-309.437-5.885-398.184h3.296V0H821.79l-45.55 68.267v22.716h22.716l45.55-68.267H981.04V45.55h45.55v90.983h26.012c-3.53 88.747-5.885 233.873-5.885 398.183 0 138.77 1.648 263.769 4.355 353.104h-24.482v90.983h-45.55v22.834H844.506l-45.55-68.267h-22.717v22.363L821.79 1024h250.233V887.467h-1.648c2.472-88.982 4.237-213.981 4.237-352.75z"  /><path fill="#000000" d="M785.302 765.057H233.637a19.303 19.303 0 1 1 0-38.606h551.665a16.596 16.596 0 0 0 16.831-16.007V304.257a16.596 16.596 0 0 0-17.184-16.125H233.637a20.598 20.598 0 0 1-14.007-5.65 20.127 20.127 0 0 1-5.885-13.77 19.538 19.538 0 0 1 19.892-19.186h551.665a55.908 55.908 0 0 1 56.967 54.731v406.187a56.026 56.026 0 0 1-56.967 54.613z m0 0"  /><path fill="#000000" d="M934.783 526.595H221.984a19.303 19.303 0 1 1 0-38.488h712.799a19.303 19.303 0 1 1 0 38.488zM613.81 331.446h-203.27a63.44 63.44 0 0 1-64.147-62.263v-0.824a63.44 63.44 0 0 1 64.148-62.264h203.27a63.44 63.44 0 0 1 64.735 62.264v0.824a63.44 63.44 0 0 1-64.736 62.263z m0 0"  /><path fill="#000000" d="M613.811 570.027h-203.27a63.44 63.44 0 0 1-64.147-62.382v-0.706a63.44 63.44 0 0 1 64.148-62.264h203.27a63.44 63.44 0 0 1 64.264 62.264v0.706a63.559 63.559 0 0 1-64.265 62.382z m0 238.58h-203.27a63.44 63.44 0 0 1-64.147-62.264v-0.824a63.44 63.44 0 0 1 64.148-62.264h203.27a63.44 63.44 0 0 1 64.264 62.264v0.824a63.559 63.559 0 0 1-64.265 62.264z m0 0"  /></svg>