<?xml version="1.0" standalone="no"?><!DOCTYPE svg PUBLIC "-//W3C//DTD SVG 1.1//EN" "http://www.w3.org/Graphics/SVG/1.1/DTD/svg11.dtd"><svg class="icon" width="200px" height="200.00px" viewBox="0 0 1024 1024" version="1.1" xmlns="http://www.w3.org/2000/svg"><path fill="#000000" d="M940.383 515.252H83.544a53.552 53.552 0 0 0-53.552 53.552v401.644A53.552 53.552 0 0 0 83.544 1024h856.84a53.552 53.552 0 0 0 53.552-53.552V568.804a53.552 53.552 0 0 0-53.553-53.552zM324.53 836.566H163.873V675.91H324.53z m535.525-80.328h-428.42v-80.329h428.42z m-96.93-323.457a360.408 360.408 0 0 0-502.322 0l-74.974-76.58a467.513 467.513 0 0 1 652.27 0z"  /><path fill="#000000" d="M868.088 251.774a510.89 510.89 0 0 0-712.248 0l-72.296-76.58a617.995 617.995 0 0 1 862.195 0z"  /></svg>