<?xml version="1.0" standalone="no"?><!DOCTYPE svg PUBLIC "-//W3C//DTD SVG 1.1//EN" "http://www.w3.org/Graphics/SVG/1.1/DTD/svg11.dtd"><svg class="icon" width="32px" height="32.00px" viewBox="0 0 1024 1024" version="1.1" xmlns="http://www.w3.org/2000/svg"><path fill="#FFFFFF" d="M876.15 0H146.025A109.519 109.519 0 0 0 36.506 109.519v803.137a109.519 109.519 0 0 0 109.519 109.519H876.15a109.519 109.519 0 0 0 109.518-109.519V109.519A109.519 109.519 0 0 0 876.15 0zM146.025 74.838H876.15a36.506 36.506 0 0 1 36.506 36.506v568.037H111.344V109.52a36.506 36.506 0 0 1 34.681-34.681zM876.15 949.162H146.025a36.506 36.506 0 0 1-36.506-36.506V752.394h803.137v160.262a36.506 36.506 0 0 1-36.506 36.506z"  /><path fill="#FFFFFF" d="M408.14 552.704a39.427 39.427 0 0 0 52.934 0l284.018-284.018a36.506 36.506 0 1 0-51.473-51.839L434.424 474.581 330.747 372a36.506 36.506 0 0 0-51.474 51.473zM266.86 807.153h-73.012a36.506 36.506 0 1 0 0 73.012h73.013a36.506 36.506 0 0 0 0-73.012z m553.8 0H382.585a36.506 36.506 0 0 0 0 73.012H820.66a36.506 36.506 0 1 0 0-73.012z"  /></svg>