<?xml version="1.0" standalone="no"?><!DOCTYPE svg PUBLIC "-//W3C//DTD SVG 1.1//EN" "http://www.w3.org/Graphics/SVG/1.1/DTD/svg11.dtd"><svg class="icon" width="200px" height="200.00px" viewBox="0 0 1024 1024" version="1.1" xmlns="http://www.w3.org/2000/svg"><path fill="#000000" d="M802.586 730.88h-66.56v-43.52h66.56c10.24 0 17.92-7.68 17.92-17.92 0-10.24-7.68-17.92-17.92-17.92h-23.04l10.24-25.6c5.12-10.24 2.56-20.48-7.68-25.6-10.24-5.12-20.48-2.56-25.6 7.68v2.56l-17.92 40.96h-33.28l-17.92-40.96c-5.12-10.24-15.36-12.8-25.6-7.68-7.68 5.12-12.8 12.8-7.68 23.04l10.24 25.6h-30.72c-10.24 0-17.92 7.68-17.92 17.92 0 10.24 7.68 17.92 17.92 17.92h66.56v43.52h-66.56c-10.24 0-17.92 7.68-17.92 17.92 0 10.24 7.68 17.92 17.92 17.92h66.56v51.2c0 10.24 7.68 17.92 17.92 17.92 10.24 0 17.92-7.68 17.92-17.92v-51.2h64c10.24 0 17.92-7.68 17.92-17.92 2.56-7.68-5.12-17.92-15.36-17.92z"  /><path fill="#000000" d="M572.186 815.36h-314.88c-7.68 0-15.36-7.68-15.36-15.36V221.44c0-7.68 7.68-15.36 15.36-15.36h509.44c7.68 0 15.36 7.68 15.36 15.36v294.4c0 12.8 10.24 23.04 23.04 23.04s23.04-10.24 23.04-23.04v-294.4c0-33.28-25.6-58.88-58.88-58.88h-509.44c-33.28 0-58.88 25.6-58.88 58.88V800c0 33.28 25.6 58.88 58.88 58.88h312.32c12.8 0 23.04-10.24 23.04-23.04-2.56-10.24-10.24-20.48-23.04-20.48z"  /><path fill="#000000" d="M702.746 264.96h-389.12c-12.8 0-23.04 10.24-23.04 23.04s10.24 23.04 23.04 23.04h389.12c12.8 0 23.04-10.24 23.04-23.04s-10.24-23.04-23.04-23.04z m23.04 130.56c0-12.8-10.24-23.04-23.04-23.04h-389.12c-12.8 0-23.04 10.24-23.04 23.04s10.24 23.04 23.04 23.04h389.12c12.8-2.56 23.04-12.8 23.04-23.04z m-432.64 112.64c0 12.8 10.24 23.04 23.04 23.04s23.04-10.24 23.04-23.04-10.24-23.04-23.04-23.04-23.04 10.24-23.04 23.04z m84.48 0c0 12.8 10.24 23.04 23.04 23.04s23.04-10.24 23.04-23.04-10.24-23.04-23.04-23.04-23.04 10.24-23.04 23.04z m84.48 0c0 12.8 10.24 23.04 23.04 23.04s23.04-10.24 23.04-23.04-10.24-23.04-23.04-23.04-23.04 10.24-23.04 23.04z"  /></svg>