<?xml version="1.0" standalone="no"?><!DOCTYPE svg PUBLIC "-//W3C//DTD SVG 1.1//EN" "http://www.w3.org/Graphics/SVG/1.1/DTD/svg11.dtd"><svg t="1540979272833" class="icon" style="" viewBox="0 0 1024 1024" version="1.1" xmlns="http://www.w3.org/2000/svg" p-id="2351" xmlns:xlink="http://www.w3.org/1999/xlink" width="128" height="128"><defs><style type="text/css"></style></defs><path d="M512.0164794921875 644.123504638672c18.583099365234375 0 33.703033447265625-15.119110107421877 33.703033447265625-33.704681396484375V360.8583374023437c0-18.583099365234375-15.119110107421877-33.703033447265625-33.70385742187501-33.703033447265625-18.58145141601562 0-33.7005615234375 15.119110107421877-33.7005615234375 33.703033447265625v249.56048583984378c0.0016479492187499998 18.5855712890625 15.119110107421877 33.704681396484375 33.7005615234375 33.704681396484375zM512.0164794921875 687.743896484375c-12.51617431640625 0-24.774444580078125 5.076507568359375-33.63629150390625 13.930938720703125-8.852783203125 8.8560791015625-13.930114746093748 21.115997314453125-13.930114746093748 33.638763427734375 0 12.5211181640625 5.077331542968749 24.781036376953125 13.930938720703125 33.6346435546875 8.85443115234375 8.852783203125 21.114349365234375 13.930114746093748 33.6346435546875 13.930114746093748 12.5211181640625 0 24.780212402343754-5.077331542968749 33.6346435546875-13.930938720703125 8.8560791015625-8.856903076171875 13.934234619140627-21.11517333984375 13.934234619140627-33.6346435546875 0-12.519470214843752-5.078155517578126-24.781036376953125-13.936706542968752-33.64041137695312-8.85772705078125-8.851959228515625-21.11517333984375-13.928466796875-33.632171630859375-13.928466796875z"  p-id="2352"></path><path d="M830.261016845703 886.9249267578125H193.73733520507812c-24.309722900390625 0-46.0799560546875-13.743896484375-58.23522949218751-36.7657470703125s-12.1552734375-50.510467529296875 0-73.53231811523438L453.7647705078125 173.8408203125c12.154449462890625-23.0218505859375 33.92550659179688-36.7657470703125 58.23522949218751-36.7657470703125 24.310546875 0 46.08160400390625 13.743896484375 58.23687744140626 36.7657470703125l318.26019287109375 602.7852172851562a78.69781494140625 78.69781494140625 0 0 1 0 73.53231811523438c-12.1552734375 23.0218505859375-33.92550659179688 36.7657470703125-58.23605346679688 36.7657470703125zM511.9991760253907 193.748046875c-2.6754455566406246 0-9.334808349609375 0.8206787109375-13.352508544921875 8.429260253906252L180.38565063476562 804.9625244140625c-4.016876220703125 7.608581542968748-1.3381347656250002 14.325622558593748 0 16.858520507812504 1.338958740234375 2.535369873046875 5.318756103515625 8.430908203125 13.352508544921875 8.430908203125h636.523681640625c8.034576416015625 0 12.014373779296875-5.89471435546875 13.352508544921875-8.430084228515625 1.338958740234375-2.5345458984375 4.0177001953125-9.250762939453125 0-16.85934448242187L525.3525085449219 202.17730712890625c-4.0177001953125-7.607757568359376-10.676239013671877-8.429260253906252-13.35333251953125-8.429260253906252z"  p-id="2353"></path></svg>