<?xml version="1.0" standalone="no"?><!DOCTYPE svg PUBLIC "-//W3C//DTD SVG 1.1//EN" "http://www.w3.org/Graphics/SVG/1.1/DTD/svg11.dtd"><svg class="icon" width="200px" height="170.10px" viewBox="0 0 1204 1024" version="1.1" xmlns="http://www.w3.org/2000/svg"><path fill="#000000" d="M853.333 948.148a343.862 343.862 0 0 1-207.96-70.163 63.21 63.21 0 0 1 5.057 6.953H0V0h1074.568v334.38a346.39 346.39 0 0 1-221.235 613.768z m-31.605-60.05a783.17 783.17 0 0 1-8.217-121.362c3.16-114.41 5.057-129.58 9.482-134.637a792.652 792.652 0 0 1-134.005 10.113 869.768 869.768 0 0 1-120.1-10.113 289.501 289.501 0 0 0 252.84 256z m182.045-815.407H72.69v739.556H563.2a635.26 635.26 0 0 1-57.521-211.753A335.644 335.644 0 0 1 685.827 298.35V189.63h72.692v77.748a316.05 316.05 0 0 1 243.358 18.33zM852.7 310.361A289.501 289.501 0 0 0 568.89 568.888a869.768 869.768 0 0 1 121.363-8.217 764.84 764.84 0 0 1 151.704 13.274 20.86 20.86 0 0 1 13.906-13.274 28.444 28.444 0 0 1 18.33 22.755 30.34 30.34 0 0 1 23.388 18.963 20.86 20.86 0 0 1-13.274 13.906A764.84 764.84 0 0 1 897.58 768a869.768 869.768 0 0 1-12.642 120.099 289.501 289.501 0 0 0-33.501-577.739zM243.358 505.678h72.691v189.63h-72.691z m189.63 189.63v-442.47h72.691v442.47z m434.252 316.049V1024H189.63v-75.852h527.802a285.709 285.709 0 0 0 149.808 63.21z"  /></svg>