<?xml version="1.0" standalone="no"?><!DOCTYPE svg PUBLIC "-//W3C//DTD SVG 1.1//EN" "http://www.w3.org/Graphics/SVG/1.1/DTD/svg11.dtd"><svg class="icon" width="32px" height="28.69px" viewBox="0 0 1142 1024" version="1.1" xmlns="http://www.w3.org/2000/svg"><path fill="#FFFFFF" d="M1055.589 610.715c-15.795 0-31.589-5.265-44.751-15.795L573.861 226.386h-5.265L128.987 592.288c-28.956 23.691-71.074 18.427-94.766-7.897l-15.794-21.06c-23.692-28.956-21.06-71.074 7.897-97.398L534.375 44.751c23.692-18.427 57.913-18.427 78.972 0l152.679 128.987V65.81c0-36.854 28.956-65.81 65.81-65.81h94.766c36.853 0 65.81 28.956 65.81 65.81v300.092l126.354 102.664c28.956 26.323 31.589 68.442 7.897 97.398l-15.794 21.06c-18.427 13.161-36.854 23.69-55.28 23.69z m-484.36-450.14c15.794 0 31.588 5.266 42.118 15.795l436.977 368.535h5.265l18.426-21.06v-5.264l-123.722-100.03c-15.794-13.163-23.691-31.59-23.691-50.016V65.81h-94.767v197.43l-34.22 18.426-18.427-13.162L573.86 97.398l-44.75 34.222L65.81 515.949c-2.633 0-2.633 2.632 0 5.264l15.794 21.06h5.265L529.11 176.37c10.53-10.53 26.323-15.794 42.118-15.794z"  /><path fill="#FFFFFF" d="M923.97 1024H694.95c-39.486 0-68.442-31.589-68.442-68.442V755.496h-110.56v200.062c0 39.486-31.59 68.442-68.443 68.442h-231.65c-39.486 0-71.075-31.589-71.075-71.075v-307.99c0-23.69 10.53-44.75 26.324-57.912l347.476-292.195c28.956-23.692 71.075-23.692 100.03 0l347.476 292.195c15.795 13.162 26.324 36.854 26.324 57.913v305.357c2.633 42.118-28.956 73.707-68.442 73.707zM510.683 687.054H629.14c34.221 0 60.545 26.324 60.545 60.545v205.326c0 2.633 2.633 5.265 5.265 5.265H923.97c2.633 0 5.265-2.632 5.265-5.265V647.568c0-2.632-2.632-7.897-2.632-7.897L579.126 344.843c-5.265-5.265-13.162-5.265-15.794 0L213.224 637.04c-2.633 2.632-2.633 5.264-2.633 7.897v305.357c0 2.632 2.633 5.265 5.265 5.265h229.018c2.632 0 5.265-2.633 5.265-5.265V744.967c0-28.957 26.324-57.913 60.545-57.913z"  /></svg>