<?xml version="1.0" standalone="no"?><!DOCTYPE svg PUBLIC "-//W3C//DTD SVG 1.1//EN" "http://www.w3.org/Graphics/SVG/1.1/DTD/svg11.dtd"><svg class="icon" width="32px" height="32.00px" viewBox="0 0 1024 1024" version="1.1" xmlns="http://www.w3.org/2000/svg"><path fill="#FFFFFF" d="M943.685 62H80.315C70.202 62 62 70.202 62 80.315v863.37C62 953.798 70.202 962 80.315 962h733.881c10.113 0 18.315-8.202 18.315-18.315s-8.202-18.315-18.315-18.315H98.63V98.629h826.741v845.055c0 10.113 8.202 18.315 18.315 18.315s18.315-8.202 18.315-18.315V80.314c0-10.113-8.202-18.315-18.315-18.315zM262.9 252.539c-38.715 0-70.207 31.493-70.207 70.208s31.493 70.207 70.207 70.207 70.207-31.493 70.207-70.207-31.493-70.208-70.207-70.208z m0 103.784c-18.514 0-33.578-15.064-33.578-33.577s15.064-33.578 33.578-33.578 33.578 15.064 33.578 33.578-15.061 33.577-33.578 33.577z m552.498-51.892H388.05c-10.113 0-18.315 8.202-18.315 18.315s8.202 18.315 18.315 18.315h427.348c10.113 0 18.315-8.202 18.315-18.315s-8.199-18.315-18.315-18.315zM262.9 441.793c-10.113 0-18.315 8.202-18.315 18.315s8.202 18.315 18.315 18.315c18.514 0 33.578 15.064 33.578 33.578s-15.064 33.578-33.578 33.578-33.578-15.064-33.578-33.578c0-10.113-8.202-18.315-18.315-18.315s-18.315 8.202-18.315 18.315c0 38.715 31.492 70.207 70.207 70.207s70.207-31.493 70.207-70.207-31.492-70.207-70.207-70.207z m552.498 51.892H388.05c-10.113 0-18.315 8.202-18.315 18.315s8.202 18.315 18.315 18.315h427.348c10.113 0 18.315-8.202 18.315-18.315s-8.199-18.315-18.315-18.315zM262.9 631.047c-38.715 0-70.207 31.492-70.207 70.207s31.493 70.208 70.207 70.208 70.207-31.493 70.207-70.208-31.493-70.207-70.207-70.207z m0 103.785c-18.514 0-33.578-15.064-33.578-33.578s15.064-33.577 33.578-33.577 33.578 15.064 33.578 33.577-15.061 33.578-33.578 33.578z m552.498-51.893H388.05c-10.113 0-18.315 8.202-18.315 18.315s8.202 18.315 18.315 18.315h427.348c10.113 0 18.315-8.202 18.315-18.315s-8.199-18.315-18.315-18.315z"  /></svg>