<?xml version="1.0" standalone="no"?><!DOCTYPE svg PUBLIC "-//W3C//DTD SVG 1.1//EN" "http://www.w3.org/Graphics/SVG/1.1/DTD/svg11.dtd"><svg class="icon" width="200px" height="200.00px" viewBox="0 0 1024 1024" version="1.1" xmlns="http://www.w3.org/2000/svg"><path fill="#000000" d="M387.618 830.578h0.046c53.02 0 80.873-47.104 88.974-74.912l0.09-0.227 0.092-0.41c19.843-83.422 40.14-168.118 60.439-251.676h59.983a36.864 36.864 0 0 0 36.5-37.092 36.864 36.864 0 0 0-36.5-37.091h-41.87c5.461-21.618 7.646-29.856 8.51-32.905l2.049-6.963c3.55-12.333 9.466-32.996 17.703-50.38 8.966-19.07 17.022-25.851 21.482-25.851 10.831 0 15.291 21.345 16.02 28.763a36.91 36.91 0 0 0 39.276 34.042 36.09 36.09 0 0 0 24.894-12.88 37.228 37.228 0 0 0 8.647-26.942 130.799 130.799 0 0 0-20.48-59.938c-16.293-24.349-39.958-37.183-68.312-37.183-31.63 0-58.026 17.386-78.552 51.701-15.929 26.67-24.803 57.48-30.674 77.824l-1.912 6.508c-2.002 6.781-6.645 25.031-13.88 54.204h-73.501a35.954 35.954 0 0 0-25.76 10.922 37.137 37.137 0 0 0-10.695 26.17c0 20.434 16.384 37.045 36.5 37.045h55.342c-20.435 84.378-44.647 186.05-52.657 219.683l-2.867 11.923c-2.64 7.555-9.921 21.573-18.841 21.573-20.253 0-31.54-34.361-31.63-34.68a36.818 36.818 0 0 0-35.044-26.67 37.228 37.228 0 0 0-35.09 47.423c9.33 32.723 41.234 88.019 101.718 88.019z m283.398-299.6c-5.78-8.146-15.383-18.978-31.63-18.978-19.252 0-33.77 16.43-33.77 38.23 0 10.376 3.414 19.706 10.741 29.49l34.27 44.692-38.138 51.064a42.917 42.917 0 0 0-9.467 27.261c0 20.617 14.973 36.819 34.088 36.819 11.014 0 20.799-6.19 29.946-18.933l0.182-0.228 26.17-39.003 26.077 38.912 0.182 0.273c5.78 8.147 15.337 18.979 31.63 18.979 19.252 0 33.77-16.475 33.77-38.23 0-10.376-3.46-19.706-10.832-29.582l-37.046-48.242 35.863-47.468 0.227-0.318c3.96-5.598 9.194-14.473 9.194-26.852 0-20.662-14.974-36.864-34.043-36.864-16.293 0-26.624 14.245-29.992 18.933l-0.136 0.182-23.848 35.316-23.347-35.316-0.091-0.137z"  /><path fill="#000000" d="M902.076 56.889H121.97c-35.817 0-65.081 34.133-65.081 75.867v758.488c0 41.734 29.264 75.867 65.035 75.867H902.03c35.772 0 65.036-34.133 65.036-75.867V132.756c0.045-41.734-29.219-75.867-64.99-75.867z m0 796.444c0 18.978-12.97 37.911-32.495 37.911H154.419c-19.524 0-32.495-18.933-32.495-37.91V170.666c0-18.978 12.97-37.911 32.495-37.911h715.162c19.524 0 32.495 18.933 32.495 37.91v682.667z"  /></svg>