<?xml version="1.0" standalone="no"?><!DOCTYPE svg PUBLIC "-//W3C//DTD SVG 1.1//EN" "http://www.w3.org/Graphics/SVG/1.1/DTD/svg11.dtd"><svg class="icon" width="32px" height="32.00px" viewBox="0 0 1024 1024" version="1.1" xmlns="http://www.w3.org/2000/svg"><path fill="#FFFFFF" d="M864 64H160c-35.296 0-64 28.704-64 64v768c0 35.296 28.704 64 64 64h704c35.296 0 64-28.704 64-64V128c0-35.296-28.704-64-64-64zM160 896v-57.344h96a32 32 0 1 0 0-64h-96v-32h96a32 32 0 1 0 0-64h-96V128h704l0.032 550.656H768a32 32 0 1 0 0 64h96.064v32H768a32 32 0 1 0 0 64h96.064V896H160z"  /><path fill="#FFFFFF" d="M832 160H192v480h640V160z m-64 416H256V224h512v352z"  /></svg>