<?xml version="1.0" standalone="no"?><!DOCTYPE svg PUBLIC "-//W3C//DTD SVG 1.1//EN" "http://www.w3.org/Graphics/SVG/1.1/DTD/svg11.dtd"><svg class="icon" width="32px" height="32.00px" viewBox="0 0 1024 1024" version="1.1" xmlns="http://www.w3.org/2000/svg"><path fill="#FFFFFF" d="M895.943 58.203c0-7.487-2.497-14.982-8.326-19.974-5.83-5.827-12.487-9.16-20.807-9.16-7.498 0-14.985 3.333-19.983 9.16-5.829 4.992-9.152 12.487-9.152 19.974v75.751h-29.136V58.203c0-7.487-3.332-14.982-8.322-19.974-5.83-5.827-13.323-9.16-20.81-9.16-8.327 0-14.983 3.333-20.811 9.16-5.828 4.992-8.325 12.487-8.325 19.974v75.751h-158.99V58.203c0-7.487-2.491-14.982-8.322-19.974-5.82-5.827-13.316-9.16-20.81-9.16-7.486 0-14.983 3.333-19.972 9.16-5.83 4.992-9.163 12.487-9.163 19.974v75.751h-29.133V58.203c0-7.487-3.324-14.982-8.325-19.974-5.819-5.827-13.314-9.16-20.808-9.16-8.325 0-14.983 3.333-20.81 9.16-5.821 4.992-8.326 12.487-8.326 19.974v75.751h-159.81V58.203c0-7.487-3.333-14.982-8.323-19.974-5.829-5.827-13.323-9.16-20.81-9.16-8.324 0-14.989 3.333-20.81 9.16-5.827 4.992-8.323 12.487-8.323 19.974v75.751h-29.971V58.203c0-7.487-2.496-14.982-8.324-19.974-5.83-5.827-12.486-9.16-20.81-9.16-7.487 0-14.982 3.333-19.973 9.16-5.827 4.992-9.161 12.487-9.161 19.974v75.751H49.402c-7.494 0-14.981 3.325-19.98 9.155-5.82 4.998-9.153 12.484-9.153 19.98V981.32c0 7.496 3.333 14.982 9.152 20.812 5 4.99 12.487 8.323 19.981 8.323h928.94c7.494 0 14.99-3.333 20.811-8.323 4.998-5.83 8.323-13.315 8.323-20.812V163.089c0-7.496-3.325-14.982-8.323-19.98-5.82-5.83-13.316-9.155-20.81-9.155h-82.4V58.203z m53.266 134.018V302.1H78.535V192.221h60.763v37.458c0 7.487 3.333 14.982 9.16 20.81 4.992 4.992 12.487 8.324 19.974 8.324 8.324 0 14.98-3.332 20.81-8.323 5.827-5.829 8.324-13.323 8.324-20.811V192.22h29.97v37.458c0 7.487 2.496 14.982 8.325 20.81 5.822 4.992 12.487 8.324 20.81 8.324 7.486 0 14.98-3.332 20.81-8.323 4.989-5.829 8.323-13.323 8.323-20.811V192.22h159.811v37.458c0 7.487 2.505 14.982 8.326 20.81 5.827 4.992 12.485 8.324 20.81 8.324 7.495 0 14.99-3.332 20.808-8.323 5.002-5.829 8.325-13.323 8.325-20.811V192.22h29.133v37.458c0 7.487 3.334 14.982 9.163 20.81 4.989 4.992 12.486 8.324 19.973 8.324 7.492 0 14.99-3.332 20.81-8.323 5.83-5.829 8.321-13.323 8.321-20.811V192.22h158.992v37.458c0 7.487 2.497 14.982 8.324 20.81 5.828 4.992 12.485 8.324 20.81 8.324 7.487 0 14.981-3.332 20.812-8.323 4.99-5.829 8.322-13.323 8.322-20.811V192.22h29.135v37.458c0 7.487 3.324 14.982 9.152 20.81 4.998 4.992 12.486 8.324 19.983 8.324 8.32 0 14.977-3.332 20.808-8.323 5.828-5.829 8.325-13.323 8.325-20.811V192.22h53.262z m0 759.967H78.535V360.365H949.21v591.823z"  /><path fill="#FFFFFF" d="M513.044 413.634c-5.83 1.665-9.99 5.827-14.153 9.99L183.412 833.159c-4.161 5.829-6.656 12.487-5.818 19.972 0 7.495 3.324 13.323 9.152 19.151 5.828 4.99 12.486 7.487 19.98 7.487h652.586c8.326 0 14.985-2.496 19.981-8.324 5.827-4.991 9.153-11.648 9.153-18.315 0.838-8.322-1.664-14.982-6.66-20.809L544.673 423.624c-4.16-4.992-9.154-8.325-14.153-9.99-5.826-1.668-11.645-1.668-17.475 0z m284.678 407.87h-531.9L523.034 487.72l274.689 333.784z"  /><path fill="#FFFFFF" d="M543.004 693.32l7.495-77.418c0-7.487 0.83-14.145 0.83-21.639-0.83-11.659-2.496-20.811-4.991-27.468-3.334-5.828-9.16-9.161-18.313-9.161-7.498 0-13.315 2.502-17.478 7.492-5 4.992-7.494 11.659-7.494 20.813 0 5.827 0 16.646 1.666 31.629l4.99 75.753c0.838 9.152 2.497 16.646 5 21.639 1.659 4.989 5.818 7.491 11.65 7.491 5.827 0 9.989-2.502 11.656-7.491 2.496-4.993 4.162-12.487 4.989-21.64z m8.326 80.734c0-6.657-2.495-12.486-7.486-16.648-4.998-4.99-10.83-7.485-16.648-7.485-6.668 0-12.486 2.493-16.648 7.485-5 4.163-7.494 9.991-7.494 16.648 0 6.665 2.495 12.486 7.494 17.484 4.99 4.164 10.82 5.83 16.648 5.83 6.657 0 11.65-1.666 16.648-6.666 4.99-4.162 7.486-9.983 7.486-16.648z"  /></svg>