<svg t="1573832830066" class="icon" viewBox="0 0 1024 1024" version="1.1" xmlns="http://www.w3.org/2000/svg" p-id="4932" width="64" height="64"><path d="M921.251035 301.117522 102.748965 301.117522c-33.797764 0-61.292783 27.393281-61.292783 61.06387l0 600.759825c0 33.67059 27.49502 61.058783 61.292783 61.058783l818.502069 0c33.80285 0 61.292783-27.388194 61.292783-61.058783L982.543818 362.181392C982.543818 328.510802 955.053885 301.117522 921.251035 301.117522zM907.053329 376.608011l0 248.208049L116.941584 624.81606 116.941584 376.608011 907.053329 376.608011zM116.941584 948.509511l0-248.208049L907.053329 700.301462l0 248.208049L116.941584 948.509511z" p-id="4933" fill="#ffffff"></path><path d="M168.945578 226.471468l674.363052 0c20.85145 0 37.745245-16.893795 37.745245-37.745245 0-20.846363-16.893795-37.740158-37.745245-37.740158L168.945578 150.986066c-20.846363 0-37.745245 16.893795-37.745245 37.740158C131.200334 209.577673 148.099216 226.471468 168.945578 226.471468z" p-id="4934" fill="#ffffff"></path><path d="M292.238233 75.495576l427.777744 0c20.85145 0 37.745245-16.898882 37.745245-37.745245s-16.893795-37.745245-37.745245-37.745245L292.238233 0.005087c-20.846363 0-37.740158 16.898882-37.740158 37.745245S271.39187 75.495576 292.238233 75.495576z" p-id="4935" fill="#ffffff"></path><path d="M625.434125 540.626868l154.17559 0c21.288928 0 38.53881-17.275317 38.53881-38.548984s-17.265143-38.53881-38.53881-38.53881l-154.17559 0c-21.273668 0-38.528637 17.27023-38.528637 38.53881C586.905489 523.356639 604.170632 540.626868 625.434125 540.626868z" p-id="4936" fill="#ffffff"></path><path d="M779.604628 775.557951l-150.980979 0-3.194611 0L474.458234 775.557951c-21.268581 0-38.528637 17.27023-38.528637 38.53881 0 21.278754 17.27023 38.548984 38.528637 38.548984l150.975892 0 3.194611 0 150.980979 0c21.288928 0 38.53881-17.280404 38.53881-38.548984C818.148525 792.823094 800.883382 775.557951 779.604628 775.557951z" p-id="4937" fill="#ffffff"></path></svg>