<?xml version="1.0" standalone="no"?><!DOCTYPE svg PUBLIC "-//W3C//DTD SVG 1.1//EN" "http://www.w3.org/Graphics/SVG/1.1/DTD/svg11.dtd"><svg class="icon" width="32px" height="32.00px" viewBox="0 0 1024 1024" version="1.1" xmlns="http://www.w3.org/2000/svg"><path fill="#FFFFFF" d="M381.6 48H108.8C77.6 48 52 73.6 52 104.8v272.8c0 31.2 25.6 56.8 56.8 56.8h272.8c31.2 0 56.8-25.6 56.8-56.8v-272c0-32-25.6-57.6-56.8-57.6z m-12 318.4H120V116.8h249.6v249.6z m544 175.2h-320c-31.2 0-56.8 25.6-56.8 56.8v320c0 31.2 25.6 56.8 56.8 56.8h320c31.2 0 56.8-25.6 56.8-56.8v-320c0-31.2-25.6-56.8-56.8-56.8z m-12 365.6H604.8V610.4h297.6v296.8z m-530.4 0c-84.8 0-154.4-68.8-154.4-153.6v-76h94.4l-128.8-128-128.8 128H148v76c0 122.4 100 221.6 223.2 221.6 19.2 0 34.4-15.2 34.4-34.4s-15.2-33.6-34.4-33.6z m287.2-790.4c84.8 0 154.4 68.8 154.4 153.6v76h-93.6L848 475.2l128-128.8h-94.4v-76C881.6 148 781.6 48 658.4 48 639.2 48 624 63.2 624 82.4s16 34.4 34.4 34.4z"  /></svg>