<?xml version="1.0" standalone="no"?><!DOCTYPE svg PUBLIC "-//W3C//DTD SVG 1.1//EN" "http://www.w3.org/Graphics/SVG/1.1/DTD/svg11.dtd"><svg class="icon" width="200px" height="200.00px" viewBox="0 0 1024 1024" version="1.1" xmlns="http://www.w3.org/2000/svg"><path fill="#000000" d="M611.084 498.134a9.887 9.887 0 0 0-8.931-5.65h-65.556l62.17-103.62c2.807-4.675 1.297-10.747-3.386-13.558a9.894 9.894 0 0 0-5.091-1.41h-94.872a9.895 9.895 0 0 0-9.18 6.215l-71.153 177.884c-2.027 5.071 0.44 10.821 5.509 12.843a9.851 9.851 0 0 0 3.671 0.708h45.03l-54.28 144.762c-1.921 5.11 0.662 10.81 5.768 12.728a9.886 9.886 0 0 0 11.143-3.003L609.81 508.616a9.869 9.869 0 0 0 1.273-10.482z"  /><path fill="#000000" d="M788.353 951.932H235.647c-69.265 0-125.613-56.352-125.613-125.617v-226.11H97.47c-48.486 0-87.93-39.436-87.93-87.93 0-24.197 9.72-46.782 27.406-63.613l396.191-344.74c20.021-20.124 48.364-31.854 78.51-31.854 30.146 0 58.49 11.728 79.795 33.036L988.063 449.69c17.548 17.967 26.397 39.698 26.397 62.585 0 48.458-39.437 87.932-87.936 87.932h-12.558v226.109c0.001 69.264-56.35 125.616-125.613 125.616zM511.644 118.349c-16.9 0-32.763 6.571-44.718 18.502L66.268 485.553c-6.85 6.55-11.088 16.32-11.088 26.726 0 20.987 17.077 38.07 38.067 38.07h63.447v279.167c0 41.976 34.16 76.134 76.133 76.134H791.16c41.978 0 76.133-34.155 76.133-76.134V550.348h63.45c20.999 0 38.074-17.08 38.074-38.068 0-9.871-3.81-19.237-10.785-26.421l-400.38-347.795c-13.247-13.143-29.115-19.715-46.008-19.715z"  /></svg>