<?xml version="1.0" standalone="no"?><!DOCTYPE svg PUBLIC "-//W3C//DTD SVG 1.1//EN" "http://www.w3.org/Graphics/SVG/1.1/DTD/svg11.dtd"><svg class="icon" width="32px" height="32.00px" viewBox="0 0 1024 1024" version="1.1" xmlns="http://www.w3.org/2000/svg"><path fill="#FFFFFF" d="M833.024 190.464c61.952 0 113.664 46.08 118.784 105.984 5.12 60.416-38.4 113.664-100.352 123.392-14.336 2.56-28.672 2.048-42.496-1.024-5.632-1.024-7.68 0.512-9.728 4.608-43.52 73.728-87.552 147.456-131.584 220.672-4.608 7.68 1.024 8.704 4.608 11.776 30.208 23.552 44.544 54.272 39.424 91.136-5.12 38.912-27.648 66.048-65.536 80.384-40.448 14.848-85.504 2.56-113.152-29.696-27.648-32.256-31.232-77.312-8.704-113.664 3.584-6.144 4.096-8.704-2.56-13.312-61.952-44.544-123.392-89.6-184.832-134.144-5.12-3.584-9.216-4.608-14.848-1.536-13.824 6.656-29.184 9.216-44.544 6.656-6.656-1.024-9.216 1.024-12.288 6.144-18.432 31.232-36.864 62.464-55.808 93.184-3.584 5.632-3.584 9.216 1.024 14.848 20.48 26.112 23.552 54.272 7.68 83.456-14.336 26.624-46.08 43.008-76.8 38.912-32.768-4.096-55.808-22.016-66.048-52.736-17.92-54.272 30.72-107.52 88.064-97.28 6.656 1.024 9.216-0.512 12.288-5.632 17.408-29.696 34.816-59.392 52.736-89.088 4.096-6.144 3.584-9.728-2.048-14.848-28.672-25.088-36.864-64-21.504-97.792 14.848-33.792 50.176-54.272 88.576-51.712 36.352 2.56 68.096 27.648 78.336 62.464 7.168 23.552 4.096 46.08-8.704 67.072-3.584 5.632-2.56 8.192 2.56 11.264 62.464 45.056 124.416 90.112 186.368 135.68 4.096 3.072 7.168 4.096 12.288 1.024 17.408-9.216 35.84-13.312 55.296-11.264 7.168 0.512 9.728-2.048 13.312-7.168C675.84 555.52 719.36 482.816 762.88 410.112c4.096-6.656 4.096-9.728-2.56-14.848-39.424-30.208-54.784-81.408-38.4-128 15.872-45.568 60.928-76.8 111.104-76.8z"  /></svg>