<?xml version="1.0" standalone="no"?><!DOCTYPE svg PUBLIC "-//W3C//DTD SVG 1.1//EN" "http://www.w3.org/Graphics/SVG/1.1/DTD/svg11.dtd"><svg class="icon" width="32px" height="32.00px" viewBox="0 0 1024 1024" version="1.1" xmlns="http://www.w3.org/2000/svg"><path fill="#FFFFFF" d="M752.128 86.528h-501.76c-58.368 0-102.912 45.056-102.912 102.912v645.12c0 58.368 44.544 102.912 102.912 102.912h349.696c13.312 0 23.552-15.872 23.552-29.184s-9.728-29.696-23.552-29.696H265.216c-31.232 0-58.368-12.8-58.368-44.032V189.44c0-31.232 26.112-44.032 57.344-44.032h486.912c31.232 0 44.544 13.312 44.544 44.544v242.176c0 13.312 16.384 21.504 29.696 21.504s29.696-8.192 29.696-21.504V189.44c0-58.368-45.056-102.912-102.912-102.912z"  /><path fill="#FFFFFF" d="M456.704 722.432H290.816c-13.312 0-22.528 9.216-22.528 22.528s9.216 22.528 22.528 22.528h165.888c13.312 0 22.528-9.216 22.528-22.528s-9.216-22.528-22.528-22.528z m16.384-156.672H290.816c-13.312 0-22.528 9.216-22.528 22.528s9.216 22.528 22.528 22.528H532.48c13.312 0 22.528-9.216 22.528-22.528 0-10.752-5.632-18.432-14.848-21.504-9.216 5.632-20.48 9.216-32.256 9.216-13.312 0-25.088-3.584-34.816-10.24zM290.816 301.568H711.68c13.312 0 22.528-9.216 22.528-22.528s-9.216-22.528-22.528-22.528H290.816c-13.312 0-22.528 9.216-22.528 22.528s8.704 22.528 22.528 22.528zM711.68 413.184H290.816c-13.312 0-22.528 9.216-22.528 22.528s9.216 22.528 22.528 22.528h192.512c7.168-3.072 15.36-5.12 24.064-5.12s16.896 1.536 24.064 5.12H711.68c13.312 0 22.528-9.216 22.528-22.528s-8.704-22.528-22.528-22.528z"  /><path fill="#FFFFFF" d="M483.328 458.24h48.128c-7.168-3.072-15.36-5.12-24.064-5.12s-16.384 2.048-24.064 5.12z m-10.24 107.52c9.728 6.656 21.504 10.24 34.304 10.24 11.776 0 23.04-3.584 32.256-9.216-2.048-0.512-4.608-1.024-7.68-1.024h-58.88z m441.344 64c-2.048-4.096-6.656-6.656-11.264-6.656h-85.504l60.928-118.784c3.584-5.632 1.536-12.288-4.096-15.872-2.048-1.024-4.096-1.536-6.656-1.536H738.304c-5.12 0-9.728 3.072-11.776 7.168L637.44 701.44c-2.56 6.144 0.512 12.8 7.168 14.848 1.536 0.512 3.072 1.024 4.608 1.024h46.592l-57.856 168.96c-2.56 6.144 6.144 12.8 12.288 14.848 8.704 2.56 14.336 1.024 18.944-3.584l244.224-256c2.56-3.072 3.072-7.68 1.024-11.776z m-222.208 192l43.008-133.12c2.56-6.144-1.024-12.8-7.168-14.848-1.536-0.512-3.072-0.512-4.608-0.512h-31.232l61.952-145.408h74.24l-50.688 103.424c-3.584 5.632-1.536 12.288 4.096 15.872 2.048 1.024 4.096 1.536 6.656 1.536h71.168L692.224 821.76z"  /></svg>