<?xml version="1.0" standalone="no"?><!DOCTYPE svg PUBLIC "-//W3C//DTD SVG 1.1//EN" "http://www.w3.org/Graphics/SVG/1.1/DTD/svg11.dtd"><svg t="1545964834976" class="icon" style="" viewBox="0 0 1024 1024" version="1.1" xmlns="http://www.w3.org/2000/svg" p-id="1621" xmlns:xlink="http://www.w3.org/1999/xlink" width="200" height="200"><defs><style type="text/css"></style></defs><path d="M948.906667 426.666667a39.253333 39.253333 0 0 0-39.253334 39.253333V896H128V114.346667h429.653333a39.253333 39.253333 0 1 0 0-78.08h-469.333333a39.253333 39.253333 0 0 0-39.253333 38.826666v860.586667a39.68 39.68 0 0 0 39.253333 39.253333h860.586667a39.253333 39.253333 0 0 0 38.826666-39.253333v-469.333333a39.253333 39.253333 0 0 0-38.826666-39.68z" p-id="1622"></path><path d="M413.44 512a136.533333 136.533333 0 0 0-152.746667 180.48l85.333334-85.333333a58.88 58.88 0 0 1 83.2 82.773333l-85.333334 85.333333a135.68 135.68 0 0 0 180.053334-152.32l256-256a136.106667 136.106667 0 0 0 152.32-180.053333l-58.88 59.733333a58.453333 58.453333 0 1 1-82.773334-82.773333l59.306667-59.733333A136.106667 136.106667 0 0 0 669.866667 256z" p-id="1623"></path></svg>