<?xml version="1.0" standalone="no"?><!DOCTYPE svg PUBLIC "-//W3C//DTD SVG 1.1//EN" "http://www.w3.org/Graphics/SVG/1.1/DTD/svg11.dtd"><svg class="icon" width="32px" height="32.00px" viewBox="0 0 1024 1024" version="1.1" xmlns="http://www.w3.org/2000/svg"><path fill="#FFFFFF" d="M152.166 858.624h438.592a227.52 227.52 0 0 1-47.008-67.168H152.166a84.96 84.96 0 0 1-85.024-84.992V176.576a84.992 84.992 0 0 1 85.024-85.056h606.4a84.992 84.992 0 0 1 85.024 85.056v310.592c24.576 11.2 46.976 26.88 67.104 47.008v-357.6c0-82.816-67.104-152.16-152.128-152.16h-606.4A150.88 150.88 0 0 0 0.006 176.576v532.128c0 82.752 67.136 149.92 152.16 149.92z m635.456 54.144c-13.44 2.208-24.608 4.48-38.016 4.48-13.408 0-26.848-2.24-40.256-4.48H33.574c-17.952 0-33.568 15.68-33.568 33.568s15.616 33.568 33.568 33.568h843.552l-67.104-67.136h-22.4z m0 0"  /><path fill="#FFFFFF" d="M572.806 590.08a214.048 214.048 0 0 0-29.056 107.392c0 118.592 96.224 212.608 212.576 212.608 38.016 0 73.824-8.96 102.944-33.088l107.36 107.392c6.72 12.96 15.712 15.2 24.64 15.2 8.96 0 17.952-2.208 24.64-8.928 11.2-11.2 11.2-33.6-2.24-44.736L910.726 842.944c35.808-38.016 55.936-89.504 55.936-143.2 0-118.592-96.192-212.608-212.544-212.608a214.08 214.08 0 0 0-176.768 94.016m31.296 118.592a145.12 145.12 0 0 1 145.472-145.44 145.12 145.12 0 0 1 145.408 145.44 145.12 145.12 0 0 1-145.408 145.44 145.152 145.152 0 0 1-145.472-145.44z m0 0M401.926 546.016c-26.72 0-48.064 21.344-48.064 48.064s21.344 48.096 48.064 48.096S449.99 620.8 449.99 594.08s-21.344-48.064-48.064-48.064zM391.238 209.44c-21.344 5.344-37.376 26.72-37.376 53.44 0 16 0 32.032 5.344 48.064 5.344 58.784 5.344 112.192 10.688 170.944 0 21.376 16.032 32.064 37.376 32.064 21.376 0 37.408-16.032 37.408-37.408v-37.376c0-37.408 5.312-74.784 5.312-112.192 0-26.72 5.376-48.096 5.376-74.784 0-10.688 0-16.032-5.376-26.72-10.656-10.688-37.376-21.376-58.752-16.032z m0 0"  /></svg>