<?xml version="1.0" standalone="no"?><!DOCTYPE svg PUBLIC "-//W3C//DTD SVG 1.1//EN" "http://www.w3.org/Graphics/SVG/1.1/DTD/svg11.dtd"><svg class="icon" width="200px" height="200.00px" viewBox="0 0 1024 1024" version="1.1" xmlns="http://www.w3.org/2000/svg"><path fill="#000000" d="M176.3 1024c-16.712 0-27.1-10.389-27.1-27.1s10.388-27.101 27.1-27.101h671.4c16.712 0 27.1 10.388 27.1 27.1S864.412 1024 847.7 1024zM64.4 874.8C25.28 874.8 0 849.52 0 810.4v-746C0 24.625 33.512 0 64.459 0h895.199c39.12 0 64.4 25.28 64.4 64.4v746c0 39.12-25.28 64.4-64.4 64.4z m37.3-820.599c-27.96 0-47.499 19.54-47.499 47.5V773.1c0 27.96 19.54 47.499 47.5 47.499h820.598c27.975 0 47.5-19.539 47.5-47.5V101.702c0-27.96-19.525-47.5-47.5-47.5z"  /><path fill="#000000" d="M773.158 725.6c-16.712 0-27.1-10.388-27.1-27.1V474.7c0-16.712 10.388-27.1 27.1-27.1s27.1 10.388 27.1 27.1v223.8c0 16.712-10.388 27.1-27.1 27.1z m-223.858 0c-16.712 0-27.1-10.388-27.1-27.1V250.9c0-16.712 10.388-27.1 27.1-27.1s27.1 10.388 27.1 27.1v447.6c0.059 16.712-10.33 27.1-27.1 27.1z m-149.2 0c-16.712 0-27.1-10.388-27.1-27.1V549.3c0-16.712 10.388-27.1 27.1-27.1s27.1 10.388 27.1 27.1v149.2c0.06 16.712-10.33 27.1-27.042 27.1z m-149.2 0c-16.712 0-27.1-10.388-27.1-27.1v-373c0-16.712 10.388-27.1 27.1-27.1s27.101 10.388 27.101 27.1v373c0.058 16.712-10.33 27.1-27.042 27.1z m522.2-372.999c-16.713 0-27.101-10.389-27.101-27.1s10.388-27.101 27.1-27.101 27.101 10.388 27.101 27.1-10.33 27.101-27.042 27.101z m0-149.2c-16.713 0-27.101-10.388-27.101-27.1s10.388-27.101 27.1-27.101 27.101 10.388 27.101 27.1-10.33 27.101-27.042 27.101z"  /></svg>