<?xml version="1.0" standalone="no"?><!DOCTYPE svg PUBLIC "-//W3C//DTD SVG 1.1//EN" "http://www.w3.org/Graphics/SVG/1.1/DTD/svg11.dtd"><svg class="icon" width="32px" height="32.00px" viewBox="0 0 1024 1024" version="1.1" xmlns="http://www.w3.org/2000/svg"><path fill="#FFFFFF" d="M694.857 438.857H512V256c0-21.943-14.629-36.571-36.571-36.571S438.857 234.057 438.857 256v219.429c0 21.942 14.629 36.571 36.572 36.571h219.428c21.943 0 36.572-14.629 36.572-36.571s-14.629-36.572-36.572-36.572z m256 256c0 21.943-14.628 36.572-36.571 36.572H109.714c-21.943 0-36.571-14.629-36.571-36.572V109.714c0-21.943 14.628-36.571 36.571-36.571h804.572c21.943 0 36.571 14.628 36.571 36.571v585.143zM914.286 0H109.714C51.2 0 0 51.2 0 109.714v585.143c0 58.514 51.2 109.714 109.714 109.714h804.572c58.514 0 109.714-51.2 109.714-109.714V109.714C1024 51.2 972.8 0 914.286 0zM694.857 950.857H329.143c-21.943 0-36.572 14.629-36.572 36.572S307.2 1024 329.143 1024h365.714c21.943 0 36.572-14.629 36.572-36.571s-14.629-36.572-36.572-36.572z"  /></svg>