<svg t="1573832513520" class="icon" viewBox="0 0 1024 1024" version="1.1" xmlns="http://www.w3.org/2000/svg" p-id="3182" width="128" height="128"><path d="M654.848 318.976H369.152c-7.68 0-14.336 6.144-14.336 14.336v358.4c0 7.68 6.144 14.336 14.336 14.336h285.696c7.68 0 14.336-6.144 14.336-14.336V332.8c-0.512-7.68-6.656-13.824-14.336-13.824zM512 653.312c-33.28 0-60.416-27.136-60.416-60.416S478.72 532.48 512 532.48c33.28 0 60.416 27.136 60.416 60.416s-27.136 60.416-60.416 60.416z m107.52-171.008H404.48c-9.728 0-17.408-7.68-17.408-17.408s7.68-17.408 17.408-17.408h215.04c9.728 0 17.408 7.68 17.408 17.408 0 9.216-7.68 17.408-17.408 17.408z m0-85.504H404.48c-9.728 0-17.408-7.68-17.408-17.408s7.68-17.408 17.408-17.408h215.04c9.728 0 17.408 7.68 17.408 17.408s-7.68 17.408-17.408 17.408z" p-id="3183" fill="#ffffff"></path><path d="M512 592.896m-29.696 0a29.696 29.696 0 1 0 59.392 0 29.696 29.696 0 1 0-59.392 0Z" p-id="3184" fill="#ffffff"></path><path d="M512 66.56c-245.76 0-445.44 199.68-445.44 445.44s199.68 445.44 445.44 445.44 445.44-199.68 445.44-445.44-199.68-445.44-445.44-445.44z m189.952 624.64c0 26.112-20.992 47.616-47.616 47.616H369.152c-26.112 0-47.616-20.992-47.616-47.616V332.8c0-26.112 20.992-47.616 47.616-47.616h285.696c26.112 0 47.616 20.992 47.616 47.616v358.4z" p-id="3185" fill="#ffffff"></path></svg>