<?xml version="1.0" standalone="no"?><!DOCTYPE svg PUBLIC "-//W3C//DTD SVG 1.1//EN" "http://www.w3.org/Graphics/SVG/1.1/DTD/svg11.dtd"><svg class="icon" width="32px" height="28.25px" viewBox="0 0 1160 1024" version="1.1" xmlns="http://www.w3.org/2000/svg"><path fill="#FFFFFF" d="M768 943.304H183.652c-16.695 0-30.609 16.696-30.609 38.957 0 22.26 13.914 38.956 30.61 38.956H768c16.696 0 30.609-16.695 30.609-38.956 0-19.478-13.913-38.957-30.609-38.957zM620.522 692.87H114.087c-22.26 0-38.957-19.479-38.957-41.74V119.652c0-22.26 16.696-41.739 38.957-41.739h865.391c22.261 0 38.957 19.478 38.957 41.74v267.13c27.826 8.347 52.87 22.26 75.13 38.956V119.652C1093.565 52.87 1043.478 0 979.478 0H114.087C50.087 0 0 52.87 0 119.652V651.13c0 66.783 50.087 119.653 114.087 119.653h517.565c-8.348-25.044-11.13-50.087-11.13-77.913z"  /><path fill="#FFFFFF" d="M918.26 434.087c-133.564 0-242.086 108.522-242.086 242.087S784.696 918.26 918.26 918.26s242.087-108.522 242.087-242.087-108.522-242.087-242.087-242.087z m133.566 203.13c-5.565 0-8.348-2.782-13.913-2.782l-50.087 94.608c11.13 8.348 16.696 22.261 16.696 36.174 0 27.826-22.261 50.087-50.087 50.087s-50.087-22.26-50.087-50.087c0-8.347 2.782-13.913 5.565-22.26l-64-44.522c-5.565 5.565-13.913 8.348-25.043 8.348-2.783 0-5.566 0-8.348-2.783l-33.392 47.304c2.783 5.566 2.783 8.348 2.783 13.913 0 19.479-13.913 33.392-33.391 33.392s-33.392-13.913-33.392-33.392 13.913-33.39 33.392-33.39c5.565 0 8.348 0 13.913 2.782l30.608-41.74c-5.565-5.565-11.13-16.695-11.13-25.043 0-22.26 16.696-38.956 38.957-38.956 22.26 0 38.956 16.695 38.956 38.956 0 5.565 0 8.348-2.783 11.13l64 47.305c8.348-8.348 19.479-11.13 30.61-11.13 5.564 0 8.347 2.782 13.912 2.782l50.087-91.826c-16.695-11.13-25.043-27.826-25.043-47.304 0-33.392 27.826-58.435 58.434-58.435 33.392 0 58.435 27.826 58.435 58.435 2.783 30.608-22.26 58.434-55.652 58.434zM667.826 320H553.74l64-147.478H523.13L422.957 400.696h94.608l-64 197.565z"  /></svg>