<?xml version="1.0" standalone="no"?><!DOCTYPE svg PUBLIC "-//W3C//DTD SVG 1.1//EN" "http://www.w3.org/Graphics/SVG/1.1/DTD/svg11.dtd"><svg class="icon" width="200px" height="200.00px" viewBox="0 0 1024 1024" version="1.1" xmlns="http://www.w3.org/2000/svg"><path fill="#000000" d="M995.639778 759.040652L844.733847 608.133721l76.784965-75.759965 65.52297-65.31897a44.02298 44.02298 0 0 0 0-61.426972l-87.02296-87.02296a45.251979 45.251979 0 0 0-61.426972 0l-142.307935 140.259935-151.93093-151.72693a31.941985 31.941985 0 0 0-44.22798 0L395.287054 412.793811a31.122986 31.122986 0 0 0 0 44.227979l150.90793 151.111931L436.649035 717.679671a8.394996 8.394996 0 0 0-1.024 1.842999 7.370997 7.370997 0 0 0 0 1.842999l-27.642987 159.916927a9.827995 9.827995 0 0 0 2.866998 9.008995 10.442995 10.442995 0 0 0 7.370997 3.070999h1.637999l162.169926-25.389988h3.070998l1.638-1.024h1.023999l108.52195-109.33995 151.111931 150.906931a30.918986 30.918986 0 0 0 22.11399 9.213996 31.122986 31.122986 0 0 0 22.11399-9.213996L996.459778 803.678631a31.327986 31.327986 0 0 0 0-44.432979zM852.309844 331.504848a23.137989 23.137989 0 0 1 32.759985 0l87.02296 87.02196a23.137989 23.137989 0 0 1 0 32.761985l-58.150973 57.946973-119.783946-120.193945zM517.526997 549.982748l68.389969-68.389969a10.442995 10.442995 0 0 0-14.742993-14.742993l-68.389969 68.389968-35.626983-35.832983 68.389968-68.389969a10.237995 10.237995 0 0 0 0-14.536993 10.442995 10.442995 0 0 0-14.742993 0l-68.389969 68.183969-42.79398-42.384981a10.442995 10.442995 0 0 1 0-14.741993l104.835952-105.041952a10.442995 10.442995 0 0 1 14.742993 0l151.111931 151.111931-119.374945 120.193944z m261.88688-145.583934L899.199822 523.97876l-76.579965 76.578964-134.525938 134.526939L578.546969 844.629612 458.763024 725.049667zM450.572028 746.550657l105.655952 105.859952-126.131942 19.861991z m530.120757 42.179981L875.651833 893.56859a10.442995 10.442995 0 0 1-14.742993 0l-50.984977-50.779977 68.389969-68.389968a10.442995 10.442995 0 0 0-14.742993-14.741994l-68.389969 68.389969-32.146985-32.147985 68.389968-68.389969a10.442995 10.442995 0 0 0-14.742993-14.741993l-68.389968 68.389968-38.493983-38.494982 119.783945-119.783945 151.111931 150.906931a11.056995 11.056995 0 0 1 0.41 14.947993z"  /><path fill="#000000" d="M813.814861 1003.318539H39.825217V274.786874h214.587901a10.442995 10.442995 0 0 0 10.442995-10.442995l1.433-243.867888h537.082753v151.52193a10.442995 10.442995 0 1 0 20.475991 0V10.442995A10.442995 10.442995 0 0 0 813.814861 0H251.13712L249.50012 2.047999a4.913998 4.913998 0 0 0-1.637999 1.227999L22.626225 257.381882l-2.047999 1.637999a11.466995 11.466995 0 0 0-1.023 1.637999v752.693655a10.442995 10.442995 0 0 0 10.441995 10.442995h784.22664a10.442995 10.442995 0 1 0 0-20.475991zM52.725211 254.105883L245.814122 37.879983v216.4299z"  /></svg>