<?xml version="1.0" standalone="no"?><!DOCTYPE svg PUBLIC "-//W3C//DTD SVG 1.1//EN" "http://www.w3.org/Graphics/SVG/1.1/DTD/svg11.dtd"><svg class="icon" width="200px" height="200.00px" viewBox="0 0 1024 1024" version="1.1" xmlns="http://www.w3.org/2000/svg"><path fill="#000000" d="M846.5 990h-669c-40.3 0-73-32.7-73-73V107c0-40.3 32.7-73 73-73h669c40.3 0 73 32.7 73 73v810c0 40.3-32.7 73-73 73z m-669-900c-9.4 0-17 7.6-17 17v810c0 9.4 7.6 17 17 17h669c9.4 0 17-7.6 17-17V107c0-9.4-7.6-17-17-17h-669z"  /><path fill="#000000" d="M316.2 356.7h192v56h-192z m0.4-127.9h256v56h-256zM225 62.9h56v898.2h-56z m501 834.2h-50c-40.3 0-73-32.7-73-73V357.5l98-98 98 98v466.6c0 40.2-32.7 73-73 73z m-67-516.4v443.4c0 9.4 7.6 17 17 17h50c9.4 0 17-7.6 17-17V380.7l-42-42-42 42z"  /></svg>