<?xml version="1.0" standalone="no"?><!DOCTYPE svg PUBLIC "-//W3C//DTD SVG 1.1//EN" "http://www.w3.org/Graphics/SVG/1.1/DTD/svg11.dtd"><svg class="icon" width="32px" height="32.00px" viewBox="0 0 1024 1024" version="1.1" xmlns="http://www.w3.org/2000/svg"><path fill="#FFFFFF" d="M220.16 0H71.68C30.72 0 0 35.84 0 71.68V947.2c0 46.08 30.72 76.8 71.68 76.8h148.48c40.96 0 71.68-30.72 71.68-71.68V71.68C291.84 35.84 261.12 0 220.16 0z m25.6 952.32c0 15.36-10.24 25.6-25.6 25.6H71.68c-10.24-5.12-20.48-15.36-20.48-25.6V71.68c0-10.24 10.24-20.48 20.48-20.48h148.48c15.36 0 25.6 10.24 25.6 25.6v875.52z m0 0"  /><path fill="#FFFFFF" d="M184.32 122.88h-76.8c-15.36 0-25.6 10.24-25.6 25.6s10.24 25.6 25.6 25.6h71.68c15.36-5.12 25.6-15.36 25.6-25.6 0-15.36-10.24-25.6-20.48-25.6z m0 122.88h-76.8c-10.24 0-20.48 10.24-20.48 25.6s10.24 25.6 25.6 25.6h71.68c10.24-5.12 20.48-15.36 20.48-25.6 0-15.36-10.24-25.6-20.48-25.6z m0 122.88h-76.8c-15.36 0-25.6 10.24-25.6 25.6s10.24 25.6 25.6 25.6h71.68c15.36-5.12 25.6-15.36 25.6-30.72 0-10.24-10.24-20.48-20.48-20.48zM583.68 0H440.32c-40.96 0-76.8 35.84-76.8 71.68V947.2c0 40.96 30.72 71.68 71.68 71.68h148.48c40.96 0 71.68-30.72 71.68-71.68V71.68C655.36 35.84 624.64 0 583.68 0z m25.6 952.32c0 15.36-10.24 25.6-25.6 25.6H440.32c-15.36 0-25.6-10.24-25.6-25.6V71.68c0-10.24 10.24-20.48 25.6-20.48H588.8c15.36 0 25.6 10.24 25.6 25.6v875.52z m0 0"  /><path fill="#FFFFFF" d="M547.84 122.88h-71.68c-15.36 0-25.6 10.24-25.6 25.6s10.24 25.6 25.6 25.6h71.68c15.36 0 25.6-10.24 25.6-25.6s-10.24-25.6-25.6-25.6z m0 122.88h-71.68c-15.36 0-25.6 10.24-25.6 25.6s10.24 25.6 25.6 25.6h71.68c15.36 0 25.6-10.24 25.6-25.6s-10.24-25.6-25.6-25.6z m0 122.88h-71.68c-15.36 0-25.6 10.24-25.6 20.48 0 15.36 10.24 25.6 25.6 25.6h71.68c15.36 0 25.6-10.24 25.6-25.6 0-10.24-10.24-20.48-25.6-20.48zM952.32 0H803.84c-40.96 0-71.68 30.72-71.68 71.68V947.2c0 40.96 30.72 71.68 71.68 71.68h148.48c40.96 0 71.68-30.72 71.68-71.68V71.68C1024 35.84 988.16 0 952.32 0z m20.48 952.32c0 15.36-10.24 25.6-25.6 25.6H798.72c-15.36 0-25.6-10.24-25.6-25.6V71.68c0-15.36 10.24-25.6 25.6-25.6H947.2c15.36 5.12 25.6 15.36 25.6 25.6v880.64z m0 0"  /><path fill="#FFFFFF" d="M911.36 122.88h-71.68c-15.36 0-25.6 10.24-25.6 25.6s10.24 25.6 25.6 25.6h71.68c15.36 0 25.6-10.24 25.6-25.6s-10.24-25.6-25.6-25.6z m0 122.88h-71.68c-15.36 0-25.6 10.24-25.6 25.6s10.24 25.6 25.6 25.6h71.68c15.36 0 25.6-10.24 25.6-25.6s-10.24-25.6-25.6-25.6z m0 122.88h-71.68c-15.36 0-25.6 10.24-25.6 25.6s10.24 25.6 25.6 25.6h71.68c15.36 0 25.6-10.24 25.6-25.6s-10.24-25.6-25.6-25.6z m0 0"  /></svg>