<?xml version="1.0" standalone="no"?><!DOCTYPE svg PUBLIC "-//W3C//DTD SVG 1.1//EN" "http://www.w3.org/Graphics/SVG/1.1/DTD/svg11.dtd"><svg class="icon" width="32px" height="32.00px" viewBox="0 0 1024 1024" version="1.1" xmlns="http://www.w3.org/2000/svg"><path fill="#FFFFFF" d="M678.4 754.176c38.912 0 70.656-31.744 70.656-70.656 0-38.912-31.744-70.656-70.656-70.656s-70.656 31.744-70.656 70.656 31.744 70.656 70.656 70.656z m-31.232-70.656c0-17.408 14.336-31.232 31.232-31.232 17.408 0 31.232 14.336 31.232 31.232 0 17.408-14.336 31.232-31.232 31.232-17.408 0.512-31.232-13.824-31.232-31.232z"  /><path fill="#FFFFFF" d="M642.048 477.184H375.296m-73.216 0h-65.024c-36.864 0-71.68 14.336-97.792 40.448s-40.448 60.928-40.448 97.792v136.192c0 36.864 14.336 71.68 40.448 97.792s60.928 40.448 97.792 40.448H780.8c36.864 0 71.68-14.336 97.792-40.448 26.112-26.112 40.448-60.928 40.448-97.792V615.424c0-36.864-14.336-71.68-40.96-97.792-26.112-26.112-60.928-40.448-97.792-40.448h-65.536m-557.568 135.68c0-35.84 26.112-77.312 61.952-77.312l571.904 3.072c35.84 0 68.608 40.96 68.608 77.312v136.192c0 35.84-29.184 82.432-65.536 82.432l-571.904-3.072c-35.84 0-65.536-46.08-65.536-82.432 0.512 0 0.512-136.192 0.512-136.192z"  /><path fill="#FFFFFF" d="M338.944 754.176c38.912 0 70.656-31.744 70.656-70.656 0-38.912-31.744-70.656-70.656-70.656s-70.656 31.744-70.656 70.656c0 38.912 31.744 70.656 70.656 70.656z m0-101.888c17.408 0 31.232 14.336 31.232 31.232 0 17.408-14.336 31.232-31.232 31.232-17.408 0-31.232-14.336-31.232-31.232-0.512-16.896 13.824-31.232 31.232-31.232z m-7.168-138.752c-16.384 0-29.696-13.312-29.696-29.184v-330.24c0-16.384 13.312-29.184 29.184-29.184 16.384 0 29.184 13.312 29.184 29.184v330.24c0.512 15.872-12.8 29.184-28.672 29.184z m353.792 0c-16.384 0-29.696-13.312-29.696-29.184v-330.24c0-16.384 13.312-29.184 29.696-29.184s29.184 13.312 29.184 29.184v330.24c0.512 15.872-12.8 29.184-29.184 29.184z"  /></svg>