<?xml version="1.0" standalone="no"?><!DOCTYPE svg PUBLIC "-//W3C//DTD SVG 1.1//EN" "http://www.w3.org/Graphics/SVG/1.1/DTD/svg11.dtd"><svg class="icon" width="200px" height="200.00px" viewBox="0 0 1024 1024" version="1.1" xmlns="http://www.w3.org/2000/svg"><path fill="#000000" d="M289.28 148.992c-1.536 0.512-2.56 1.536-3.584 2.048 1.024-1.024 2.048-1.536 3.584-2.048z"  /><path fill="#000000" d="M925.184 497.152C925.696 724.992 739.84 910.336 512 910.336S98.304 724.992 98.304 496.64c0-139.776 69.632-268.288 186.368-345.6 0 0 0.512 0 0.512-0.512 1.024-1.024 2.56-1.536 3.584-2.048 4.096-2.048 8.192-3.072 12.8-3.072 16.384 0 29.696 13.312 29.696 29.696 0 12.288-7.168 22.528-17.92 27.136-97.792 66.56-156.16 175.616-156.16 294.4 0 195.584 159.232 354.816 354.816 354.816S866.304 692.224 866.304 496.64a354.477 354.477 0 0 0-156.16-293.888v-0.512c-9.728-5.12-15.872-14.848-15.872-26.112 0-16.384 13.312-29.696 29.696-29.696 8.704 0 16.384 3.584 22.016 9.728 112.64 77.312 179.2 204.288 179.2 340.992z"  /><path fill="#000000" d="M453.12 134.144l174.08-20.48-99.84 286.72 163.84 5.12-309.76 363.52 107.52-268.8-140.8-2.56z"  /></svg>