<?xml version="1.0" standalone="no"?><!DOCTYPE svg PUBLIC "-//W3C//DTD SVG 1.1//EN" "http://www.w3.org/Graphics/SVG/1.1/DTD/svg11.dtd"><svg t="1575209596132" class="icon" viewBox="0 0 1024 1024" version="1.1" xmlns="http://www.w3.org/2000/svg" p-id="2483" xmlns:xlink="http://www.w3.org/1999/xlink" width="128" height="128"><defs><style type="text/css"></style></defs><path d="M512 1021.72444445C230.51377778 1021.72444445 2.27555555 793.48622222 2.27555555 512S230.51377778 2.27555555 512 2.27555555s509.72444445 228.23822222 509.72444445 509.72444445-228.23822222 509.72444445-509.72444445 509.72444445z m0-67.92533334c243.93955555 0 441.79911111-197.74577778 441.79911111-441.79911111S755.93955555 70.20088889 512 70.20088889 70.20088889 268.06044445 70.20088889 512 268.06044445 953.79911111 512 953.79911111z" p-id="2484" fill="#ffffff"></path><path d="M525.19822222 262.82666667c46.42133333 0 84.08177778 12.288 113.09511111 38.45688888 29.01333333 25.37244445 43.46311111 60.18844445 43.46311112 103.65155556 0 35.49866667-9.44355555 65.19466667-27.53422223 88.40533334-6.48533333 7.96444445-26.85155555 26.85155555-60.87111111 56.54755555-13.76711111 11.60533333-23.89333333 24.68977778-30.49244444 37.66044445-7.96444445 14.44977778-11.60533333 30.49244445-11.60533334 47.90044444v12.288h-77.59644444v-12.288c0-26.85155555 4.32355555-50.06222222 14.44977778-68.83555556 9.44355555-20.25244445 36.97777778-50.06222222 81.92-89.88444444l12.288-13.76711111c13.08444445-16.72533333 20.25244445-34.01955555 20.25244444-52.90666667 0-25.37244445-7.28177778-44.94222222-21.04888889-59.392-14.44977778-14.44977778-35.49866667-21.73155555-61.66755555-21.73155556-32.65422222 0-56.54755555 10.12622222-70.99733334 31.17511112-13.08444445 17.408-19.56977778 42.09777778-19.56977778 73.95555555h-76.11733333c0-52.90666667 15.24622222-94.208 45.62488889-124.70044444 30.72-31.28888889 72.81777778-46.53511111 126.40711111-46.53511111z m-12.97066667 424.04977778c15.24622222 0 28.21688889 4.32355555 38.4568889 14.44977777 10.12622222 9.44355555 15.24622222 21.73155555 15.24622222 36.97777778 0 15.24622222-5.80266667 27.53422222-15.92888889 37.66044445-10.12622222 9.44355555-23.21066667 14.44977778-37.66044445 14.44977777-14.44977778 0-27.53422222-5.12-37.66044444-15.24622222-10.12622222-10.12622222-15.24622222-22.528-15.24622222-36.97777778 0-15.24622222 5.12-27.53422222 15.24622222-36.97777777 9.89866667-10.01244445 22.98311111-14.336 37.54666666-14.336z" p-id="2485" fill="#ffffff"></path></svg>