<?xml version="1.0" standalone="no"?><!DOCTYPE svg PUBLIC "-//W3C//DTD SVG 1.1//EN" "http://www.w3.org/Graphics/SVG/1.1/DTD/svg11.dtd"><svg t="1532077793966" class="icon" style="" viewBox="0 0 1024 1024" version="1.1" xmlns="http://www.w3.org/2000/svg" p-id="1055" xmlns:xlink="http://www.w3.org/1999/xlink" width="64" height="64"><defs><style type="text/css"></style></defs><path d="M906.591017 215.451537v363.120567h67.782505v-363.120567C974.373522 137.985816 911.432624 72.624113 831.546099 72.624113h-48.416075v67.782506h50.836879c38.732861 2.420804 72.624113 33.891253 72.624114 75.044918zM100.463357 697.191489V215.451537c0-41.153664 31.470449-72.624113 72.624113-72.624114h50.83688V72.624113h-48.416076C95.621749 72.624113 32.680851 137.985816 32.680851 215.451537v481.739952c0 77.465721 62.940898 142.827423 142.827423 142.827424h324.387707v-67.782506H175.508274c-41.153664-2.420804-75.044917-33.891253-75.044917-75.044918zM976.794326 961.059102l-108.93617-84.728133c16.945626-29.049645 26.628842-60.520095 26.628842-96.832151 0-101.673759-84.728132-186.401891-186.401892-186.401891s-186.401891 84.728132-186.401891 186.401891 84.728132 186.401891 186.401891 186.401891c41.153664 0 82.307329-14.524823 113.777778-38.73286l111.356974 89.56974c7.262411 4.841608 14.524823 7.262411 21.787234 7.262411 9.683215 0 19.36643-4.841608 26.628842-12.104019 12.104019-16.945626 9.683215-38.732861-4.841608-50.836879z m-384.907801-181.560284c0-65.361702 53.257683-116.198582 116.198581-116.198582s116.198582 53.257683 116.198582 116.198582-48.416076 116.198582-113.777778 116.198582-118.619385-50.836879-118.619385-116.198582z"  p-id="1056"></path><path d="M700.822695 675.404255c-45.995272 7.262411-94.411348 53.257683-89.56974 111.356974 0 7.262411 4.841608 9.683215 12.104019 9.683215s12.104019-4.841608 9.683215-12.104018c-2.420804-41.153664 36.312057-79.886525 70.20331-87.148937 7.262411 0 9.683215-7.262411 9.683215-12.104019 2.420804-7.262411-4.841608-12.104019-12.104019-9.683215zM550.732861 658.458629V556.78487H686.297872c14.524823 0 26.628842-12.104019 26.628842-26.628842s-12.104019-26.628842-26.628842-26.628841h-135.565011v-87.148936H686.297872c14.524823 0 26.628842-12.104019 26.628842-26.628842S700.822695 363.120567 686.297872 363.120567h-133.144208l118.619386-118.619385c9.683215-9.683215 9.683215-29.049645 0-38.73286-9.683215-9.683215-29.049645-9.683215-38.732861 0l-111.356974 111.356974-106.515366-106.515367c-9.683215-9.683215-29.049645-9.683215-38.732861 0-9.683215 9.683215-9.683215 29.049645 0 38.732861l113.777778 113.777777h-128.302601c-14.524823 0-26.628842 12.104019-26.628841 26.628842s12.104019 26.628842 26.628841 26.628842h135.565012v87.148936h-135.565012c-14.524823 0-26.628842 12.104019-26.628841 26.628841S347.385343 556.78487 361.910165 556.78487h135.565012v101.673759c0 14.524823 12.104019 26.628842 26.628842 26.628841s26.628842-12.104019 26.628842-26.628841zM274.761229 147.669031h462.373523c12.104019 0 21.787234-9.683215 21.787234-21.787234V21.787234c0-12.104019-9.683215-21.787234-21.787234-21.787234H274.761229c-12.104019 0-24.208038 9.683215-24.208038 21.787234v104.094563c0 12.104019 12.104019 21.787234 24.208038 21.787234z m21.787234-104.094563h418.799055v60.520095H296.548463V43.574468z"  p-id="1057"></path></svg>