<?xml version="1.0" standalone="no"?><!DOCTYPE svg PUBLIC "-//W3C//DTD SVG 1.1//EN" "http://www.w3.org/Graphics/SVG/1.1/DTD/svg11.dtd"><svg t="1532079558266" class="icon" style="" viewBox="0 0 1566 1024" version="1.1" xmlns="http://www.w3.org/2000/svg" p-id="2851" xmlns:xlink="http://www.w3.org/1999/xlink" width="97.875" height="64"><defs><style type="text/css"></style></defs><path d="M1445.691447 1024H120.448394A120.492783 120.492783 0 0 1 0 903.529412V120.448394A120.492783 120.492783 0 0 1 120.448394 0h1325.243053a120.492783 120.492783 0 0 1 120.470589 120.448394V903.529412a120.492783 120.492783 0 0 1-120.470589 120.470588z m60.146517-843.205341a120.492783 120.492783 0 0 0-120.448394-120.470588H180.772465a120.492783 120.492783 0 0 0-120.470588 120.470588v662.61043a120.492783 120.492783 0 0 0 120.470588 120.470588h1204.772465a120.492783 120.492783 0 0 0 120.448394-120.470588V180.772465zM1325.243053 903.529412H240.918982a120.492783 120.492783 0 0 1-120.470588-120.470588V240.918982a120.492783 120.492783 0 0 1 120.470588-120.470588h1084.324071a120.492783 120.492783 0 0 1 120.448394 120.470588v542.162036a120.492783 120.492783 0 0 1-120.448394 120.470588zM301.243053 240.918982a60.279683 60.279683 0 0 0-60.324071 60.324071 60.279683 60.279683 0 0 0 60.324071 60.346266 60.168711 60.168711 0 0 0 60.324072-60.346266 60.52382 60.52382 0 0 0-60.324072-60.324071z m0 421.691448a60.279683 60.279683 0 0 0-60.324071 60.324071 60.279683 60.279683 0 0 0 60.324071 60.346265 60.168711 60.168711 0 0 0 60.324072-60.324071 60.412848 60.412848 0 0 0-60.324072-60.324071z m963.675929 120.448394a60.324071 60.324071 0 1 0-60.324071-60.324072 60.279683 60.279683 0 0 0 60.324071 60.324072z m0-542.162036a60.279683 60.279683 0 0 0-60.324071 60.324071 60.279683 60.279683 0 0 0 60.324071 60.36846 60.168711 60.168711 0 0 0 60.324071-60.324071 60.412848 60.412848 0 0 0-60.324071-60.324072z" p-id="2852" ></path></svg>