<?xml version="1.0" standalone="no"?><!DOCTYPE svg PUBLIC "-//W3C//DTD SVG 1.1//EN" "http://www.w3.org/Graphics/SVG/1.1/DTD/svg11.dtd"><svg class="icon" width="200px" height="190.16px" viewBox="0 0 1077 1024" version="1.1" xmlns="http://www.w3.org/2000/svg"><path d="M118.154 64.869h838.429v732.554h-838.43z"  /><path d="M174.914 120.702h724.677V532.62H174.914z" fill="#FFFFFF" /><path d="M204.105 784.217h687.377v174.914H204.105z m63.015-575.71h546.751v99.851h-546.75zM73.904 397.09h54.907v102.168H73.904z m876.424 0h54.906v102.168h-54.906z"  /><path d="M501.575 614.168h72.745L540.496 722.36l89.658-33.824L513.39 908.858s-6.255-7.182 11.12-143.175l-64.405-0.231 41.47-151.284z" fill="#FFFFFF" /><path d="M269.205 480.26h92.67v22.705h-92.67z" fill="#FF0000" /><path d="M345.658 491.613l81.086-111.899 15.522 11.352-81.086 111.899z m62.552-11.352h92.67v22.704h-92.67z" fill="#FF0000" /></svg>