<?xml version="1.0" standalone="no"?><!DOCTYPE svg PUBLIC "-//W3C//DTD SVG 1.1//EN" "http://www.w3.org/Graphics/SVG/1.1/DTD/svg11.dtd"><svg class="icon" width="200px" height="185.84px" viewBox="0 0 1102 1024" version="1.1" xmlns="http://www.w3.org/2000/svg"><path fill="#000000" d="M554.252237 608.170163c-23.609967-2.343997-47.052935-5.357993-68.653906-5.357993C321.667557 602.81217 0 683.354059 0 845.443836v122.069832h561.285227a332.216543 332.216543 0 0 1-7.03299-359.343505z m-68.653906-124.413829a241.794667 241.794667 0 1 0-241.459667-241.961667A241.459668 241.459668 0 0 0 485.599331 483.756334z m612.859156 364.031499l-56.429922-39.851945c0-7.03299 2.343997-14.065981 2.343997-23.442968a72.3379 72.3379 0 0 0-2.343997-23.442968l51.740929-42.196942a11.051985 11.051985 0 0 0 2.343997-14.06498l-51.739929-86.905881a13.227982 13.227982 0 0 0-14.066981-2.343997L969.188665 638.97912a244.473663 244.473663 0 0 0-42.196941-23.441968l-8.874988-62.959913a9.376987 9.376987 0 0 0-9.376987-11.721984h-98.626864c-4.687994 0-11.720984 4.688994-11.720984 9.376987l-11.385985 64.969911a190.387738 190.387738 0 0 0-42.196942 23.442968l-58.774919-23.442968a14.56798 14.56798 0 0 0-16.241977 4.353994l-49.396932 83.723885c-2.343997 2.343997 0 9.376987 4.687993 14.06498l51.741929 39.852945c0 7.03299-2.344997 14.064981-2.344997 23.441968a72.5049 72.5049 0 0 0 2.344997 23.442968l-54.085925 44.540938a11.051985 11.051985 0 0 0-2.343997 14.065981l49.396932 83.723885a13.227982 13.227982 0 0 0 14.06598 2.343997l61.117916-23.441968a244.808663 244.808663 0 0 0 42.029942 25.786964l9.376987 63.461913a10.716985 10.716985 0 0 0 11.720984 9.376987h98.626864c4.687994 0 11.720984-4.687994 11.720984-9.376987l9.376987-63.461913a244.975663 244.975663 0 0 0 42.196942-23.442967l61.118916 23.442967a11.218985 11.218985 0 0 0 14.064981-4.688993l49.396932-83.723885c9.377987-4.688994 9.377987-11.720984 4.688993-14.065981z m-241.292667 21.098971a87.742879 87.742879 0 0 1-86.904881-83.723885 86.235881 86.235881 0 0 1 86.904881-83.723885 84.560884 84.560884 0 1 1 0 169.121767z m0 0" /></svg>