<?xml version="1.0" standalone="no"?><!DOCTYPE svg PUBLIC "-//W3C//DTD SVG 1.1//EN" "http://www.w3.org/Graphics/SVG/1.1/DTD/svg11.dtd"><svg t="1531795041325" class="icon" style="" viewBox="0 0 1024 1024" version="1.1" xmlns="http://www.w3.org/2000/svg" p-id="6975" xmlns:xlink="http://www.w3.org/1999/xlink" width="48" height="48"><defs><style type="text/css"></style></defs><path d="M785.772 592.127 241.228 592.127c-18.075 0-32.728 14.135-32.728 31.572l0 185.602c0 17.437 14.653 31.572 32.728 31.572l544.544 0c18.075 0 32.728-14.135 32.728-31.572L818.5 623.699C818.5 606.262 803.847 592.127 785.772 592.127zM794.5 722.5 677.372 722.5c-8.92 23.651-79.775 42.058-165.864 42.058-86.098 0-156.954-18.405-165.873-42.058L224.5 722.5l0-9 120.771 0c7.114-24.147 78.818-43.131 166.237-43.131 87.411 0 159.115 18.981 166.228 43.131L794.5 713.5 794.5 722.5z" p-id="6976"></path><path d="M131.113 118.333l0 797.501 761.231 0L892.344 118.333 131.113 118.333zM775.967 174.06l19.896 0c18.258 0 33.065 14.787 33.065 33.065 0 18.278-14.807 33.075-33.065 33.065l-19.896 0c-18.258 0-33.065-14.787-33.065-33.065C742.902 188.867 757.688 174.06 775.967 174.06zM701.5 362.5l90.984 0c18.786 0 34.016 15.229 34.016 34.016l0 49.969c0 18.786-15.229 34.016-34.016 34.016L701.5 480.501 701.5 362.5zM454.892 174.06l19.896 0c18.258 0 33.065 14.787 33.065 33.065 0 18.278-14.807 33.075-33.065 33.065l-19.896 0c-18.258 0-33.065-14.787-33.065-33.065C421.827 188.867 436.613 174.06 454.892 174.06zM343.962 174.06l19.917 0c18.258 0 33.065 14.787 33.065 33.065 0 18.278-14.807 33.075-33.085 33.065l-19.896 0c-18.258 0-33.065-14.787-33.065-33.065C310.897 188.867 325.683 174.06 343.962 174.06zM225.638 174.039l19.896 0c18.258 0 33.065 14.797 33.065 33.106 0 18.268-14.797 33.065-33.065 33.065l-19.896 0c-18.258 0-33.065-14.787-33.065-33.065C192.573 188.846 207.36 174.039 225.638 174.039zM192.5 396.516c0-18.786 15.229-34.016 34.016-34.016L692.5 362.5l0 118L226.516 480.5c-18.786 0-34.016-15.229-34.016-34.016L192.5 396.516zM830.5 816.484c0 18.786-15.229 34.016-34.016 34.016L230.516 850.5c-18.786 0-34.016-15.229-34.016-34.016L196.5 616.516c0-18.786 15.229-34.016 34.016-34.016l565.969 0c18.786 0 34.016 15.229 34.016 34.016L830.501 816.484z" p-id="6977"></path><path d="M648.136 716.5c0 3.038-2.032 5.5-4.539 5.5L375.403 722c-2.507 0-4.539-2.462-4.539-5.5l0 0c0-3.038 2.032-5.5 4.539-5.5l268.194 0C646.104 711 648.136 713.462 648.136 716.5L648.136 716.5z" p-id="6978"></path><path d="M249.11 423.733c0-14.457 2.496-25.439 7.489-32.949 4.992-7.508 12.301-11.263 21.926-11.263 9.665 0 17.014 3.744 22.046 11.233 5.032 7.488 7.548 18.481 7.548 32.979 0 14.419-2.506 25.362-7.518 32.83-5.013 7.469-12.371 11.202-22.076 11.202-9.625 0-16.935-3.733-21.926-11.202C251.605 449.096 249.11 438.152 249.11 423.733zM260.852 423.733c0 11.823 1.417 20.439 4.253 25.851 2.835 5.412 7.309 8.117 13.419 8.117 6.15 0 10.634-2.686 13.449-8.058 2.816-5.371 4.224-14.008 4.224-25.91 0-11.941-1.408-20.617-4.224-26.029-2.815-5.412-7.299-8.118-13.449-8.118-6.111 0-10.584 2.727-13.419 8.178C262.269 403.215 260.852 411.872 260.852 423.733z" p-id="6979"></path><path d="M360.615 423.733c0-14.457 2.496-25.439 7.489-32.949 4.992-7.508 12.301-11.263 21.926-11.263 9.665 0 17.014 3.744 22.046 11.233 5.032 7.488 7.548 18.481 7.548 32.979 0 14.419-2.506 25.362-7.518 32.83-5.013 7.469-12.371 11.202-22.076 11.202-9.625 0-16.935-3.733-21.926-11.202C363.111 449.096 360.615 438.152 360.615 423.733zM372.357 423.733c0 11.823 1.417 20.439 4.253 25.851 2.835 5.412 7.309 8.117 13.419 8.117 6.15 0 10.634-2.686 13.449-8.058 2.816-5.371 4.224-14.008 4.224-25.91 0-11.941-1.408-20.617-4.224-26.029-2.815-5.412-7.299-8.118-13.449-8.118-6.111 0-10.584 2.727-13.419 8.178C373.774 403.215 372.357 411.872 372.357 423.733z" p-id="6980"></path><path d="M472.12 423.733c0-14.457 2.496-25.439 7.489-32.949 4.992-7.508 12.301-11.263 21.926-11.263 9.665 0 17.013 3.744 22.046 11.233 5.031 7.488 7.549 18.481 7.549 32.979 0 14.419-2.508 25.362-7.52 32.83-5.012 7.469-12.371 11.202-22.076 11.202-9.625 0-16.935-3.733-21.926-11.202C474.616 449.096 472.12 438.152 472.12 423.733zM483.863 423.733c0 11.823 1.417 20.439 4.253 25.851 2.835 5.412 7.309 8.117 13.419 8.117 6.15 0 10.634-2.686 13.449-8.058 2.816-5.371 4.225-14.008 4.225-25.91 0-11.941-1.408-20.617-4.225-26.029-2.815-5.412-7.299-8.118-13.449-8.118-6.111 0-10.584 2.727-13.419 8.178C485.28 403.215 483.863 411.872 483.863 423.733z" p-id="6981"></path><path d="M583.626 423.733c0-14.457 2.496-25.439 7.488-32.949 4.992-7.508 12.301-11.263 21.927-11.263 9.665 0 17.014 3.744 22.046 11.233 5.032 7.488 7.549 18.481 7.549 32.979 0 14.419-2.507 25.362-7.519 32.83-5.013 7.469-12.371 11.202-22.076 11.202-9.626 0-16.935-3.733-21.927-11.202C586.122 449.096 583.626 438.152 583.626 423.733zM595.368 423.733c0 11.823 1.417 20.439 4.253 25.851 2.836 5.412 7.31 8.117 13.42 8.117 6.149 0 10.634-2.686 13.449-8.058 2.815-5.371 4.224-14.008 4.224-25.91 0-11.941-1.408-20.617-4.224-26.029s-7.3-8.118-13.449-8.118c-6.11 0-10.584 2.727-13.42 8.178S595.368 411.872 595.368 423.733z" p-id="6982"></path><path d="M744.719 419.42c-3.795-1.716-6.62-4.053-8.478-7.009-1.856-2.955-2.785-6.59-2.785-10.903 0-6.55 2.416-11.852 7.249-15.905 4.832-4.054 11.202-6.081 19.11-6.081 7.947 0 14.357 2.037 19.23 6.11 4.872 4.074 7.309 9.367 7.309 15.876 0 4.313-0.938 7.948-2.815 10.903-1.878 2.956-4.713 5.293-8.507 7.009 4.712 1.838 8.267 4.563 10.663 8.178 2.396 3.615 3.595 8.038 3.595 13.27 0 8.188-2.666 14.718-7.998 19.59-5.331 4.872-12.49 7.309-21.477 7.309s-16.115-2.437-21.387-7.309c-5.272-4.872-7.908-11.402-7.908-19.59 0-5.231 1.198-9.654 3.595-13.27C736.511 423.983 740.046 421.258 744.719 419.42zM742.382 440.628c0 5.232 1.558 9.346 4.673 12.341s7.369 4.493 12.761 4.493c5.431 0 9.715-1.507 12.851-4.523 3.135-3.015 4.702-7.118 4.702-12.311 0-4.832-1.567-8.657-4.702-11.473-3.136-2.815-7.42-4.224-12.851-4.224-5.432 0-9.695 1.398-12.79 4.193C743.93 431.922 742.382 435.756 742.382 440.628zM744.958 402.467c0 4.073 1.357 7.349 4.074 9.824 2.715 2.478 6.31 3.715 10.783 3.715 4.473 0 8.067-1.237 10.783-3.715 2.716-2.476 4.074-5.751 4.074-9.824 0-4.113-1.309-7.329-3.924-9.646-2.617-2.315-6.261-3.475-10.934-3.475-4.634 0-8.268 1.159-10.903 3.475C746.276 395.138 744.958 398.354 744.958 402.467z" p-id="6983"></path></svg>