<?xml version="1.0" standalone="no"?><!DOCTYPE svg PUBLIC "-//W3C//DTD SVG 1.1//EN" "http://www.w3.org/Graphics/SVG/1.1/DTD/svg11.dtd"><svg t="1591888145715" class="icon" viewBox="0 0 1024 1024" version="1.1" xmlns="http://www.w3.org/2000/svg" p-id="4844" xmlns:xlink="http://www.w3.org/1999/xlink" width="200" height="200"><defs><style type="text/css"></style></defs><path d="M763.252 580.794H263.866a29.556 29.556 0 0 0-30.022 29.091v170.17c0 16.012 13.405 28.998 30.022 28.998h499.386a29.556 29.556 0 0 0 30.069-28.998v-170.17a29.51 29.51 0 0 0-30.069-29.09z m8.1 119.622H663.877c-8.192 21.737-73.077 38.54-152.11 38.54-78.942 0-143.966-16.803-152.158-38.54H248.553v-8.285h110.731c6.563-22.11 72.332-39.564 152.483-39.564 80.198 0 145.92 17.455 152.483 39.564h107.101v8.285z m-608.443-554.17V877.8h698.182V146.246H162.909z m591.453 51.153h18.293a30.255 30.255 0 1 1 0 60.602h-18.293a30.348 30.348 0 0 1 0-60.602z m-68.375 172.824h83.549a31.185 31.185 0 0 1 31.092 31.185v45.8a31.185 31.185 0 0 1-31.092 31.28h-83.55V370.222zM459.869 197.399h18.246a30.255 30.255 0 1 1 0 60.602h-18.246a30.348 30.348 0 0 1 0-60.602z m-101.748 0h18.292a30.348 30.348 0 1 1-0.046 60.649H358.12a30.394 30.394 0 0 1 0-60.649z m-108.544 0h18.292a30.301 30.301 0 0 1 0 60.602h-18.292a30.255 30.255 0 1 1 0-60.602z m-30.441 204.009c0-17.175 13.964-31.185 31.232-31.185h427.427v108.264H250.368a31.232 31.232 0 0 1-31.232-31.278v-45.801z m585.216 385.164a31.279 31.279 0 0 1-31.185 31.278H254.045a31.232 31.232 0 0 1-31.185-31.278V603.229c0-17.268 13.963-31.278 31.185-31.278h519.122c17.175 0 31.185 14.01 31.185 31.278v183.343zM637.114 694.97c0 2.746-1.815 4.98-4.189 4.98H386.932c-2.28 0-4.189-2.28-4.189-4.98 0-2.84 1.909-5.073 4.19-5.073h245.992c2.327-0.047 4.19 2.234 4.19 5.073zM271.127 426.403c0-13.266 2.328-23.366 6.842-30.255 4.608-6.842 11.264-10.286 20.155-10.286s15.592 3.351 20.154 10.286c4.654 6.796 6.935 16.896 6.935 30.255 0 13.172-2.327 23.273-6.889 30.068s-11.31 10.287-20.247 10.287a22.807 22.807 0 0 1-20.154-10.287c-4.468-6.795-6.796-16.896-6.796-30.068z m10.752 0c0 10.798 1.304 18.711 3.91 23.738 2.56 4.887 6.703 7.354 12.335 7.354s9.774-2.467 12.288-7.354c2.606-4.887 3.91-12.8 3.91-23.738 0-10.985-1.304-18.898-3.91-23.924-2.514-4.888-6.656-7.448-12.288-7.448s-9.775 2.56-12.335 7.54c-2.606 5.028-3.91 12.94-3.91 23.832z m91.509 0c0-13.266 2.28-23.366 6.842-30.255a22.76 22.76 0 0 1 20.107-10.286 22.807 22.807 0 0 1 20.248 10.286c4.654 6.796 6.935 16.896 6.935 30.255 0 13.172-2.327 23.273-6.889 30.068s-11.357 10.287-20.294 10.287c-8.797 0-15.5-3.445-20.107-10.287s-6.842-16.896-6.842-30.068z m10.752 0c0 10.798 1.256 18.711 3.863 23.738a13.219 13.219 0 0 0 12.334 7.354c5.679 0 9.775-2.467 12.382-7.354s3.863-12.8 3.863-23.738c0-10.985-1.257-18.898-3.863-23.924a13.126 13.126 0 0 0-12.382-7.448 13.219 13.219 0 0 0-12.334 7.54c-2.56 5.028-3.863 12.94-3.863 23.832z m91.508 0c0-13.266 2.28-23.366 6.842-30.255 4.608-6.795 11.264-10.286 20.154-10.286s15.593 3.351 20.201 10.286c4.655 6.796 6.935 16.896 6.935 30.255 0 13.172-2.327 23.273-6.888 30.068s-11.31 10.287-20.248 10.287c-8.843 0-15.546-3.445-20.154-10.287s-6.842-16.896-6.842-30.068z m10.799 0c0 10.798 1.303 18.711 3.863 23.738 2.653 4.887 6.749 7.354 12.38 7.354s9.775-2.467 12.335-7.354c2.607-4.887 3.864-12.8 3.864-23.738 0-10.985-1.257-18.898-3.864-23.924-2.56-4.888-6.702-7.448-12.334-7.448s-9.728 2.56-12.381 7.54c-2.56 5.028-3.863 12.94-3.863 23.832z m91.461 0c0-13.266 2.281-23.366 6.89-30.255 4.56-6.795 11.263-10.286 20.107-10.286s15.639 3.351 20.2 10.286c4.655 6.796 6.982 16.896 6.982 30.255 0 13.172-2.374 23.273-6.888 30.068a23.087 23.087 0 0 1-20.294 10.287 22.714 22.714 0 0 1-20.108-10.287c-4.608-6.795-6.889-16.896-6.889-30.068z m10.799 0c0 10.798 1.257 18.711 3.817 23.738a13.312 13.312 0 0 0 12.38 7.354 13.172 13.172 0 0 0 12.382-7.354c2.56-4.887 3.817-12.8 3.817-23.738 0-10.985-1.257-18.898-3.817-23.924a13.219 13.219 0 0 0-12.381-7.448 13.359 13.359 0 0 0-12.381 7.54c-2.514 5.028-3.817 12.94-3.817 23.832z m137.03-4.003a16.756 16.756 0 0 1-7.82-6.47 17.967 17.967 0 0 1-2.56-9.914c0-6.097 2.188-10.892 6.656-14.615s10.287-5.54 17.548-5.54 13.172 1.816 17.64 5.54a18.385 18.385 0 0 1 6.75 14.615c0 3.91-0.931 7.261-2.654 9.914a17.082 17.082 0 0 1-7.82 6.47c4.376 1.722 7.634 4.19 9.822 7.54 2.188 3.259 3.258 7.355 3.258 12.195 0 7.448-2.467 13.452-7.354 17.92-4.84 4.562-11.357 6.75-19.642 6.75s-14.802-2.188-19.642-6.75a23.273 23.273 0 0 1-7.262-17.92c0-4.84 1.071-8.89 3.352-12.195a20.108 20.108 0 0 1 9.728-7.54z m-2.188 19.456c0 4.84 1.443 8.564 4.282 11.357 2.84 2.746 6.75 4.096 11.73 4.096s8.89-1.35 11.822-4.189a14.895 14.895 0 0 0 4.282-11.264 13.359 13.359 0 0 0-4.282-10.473c-2.932-2.653-6.795-3.91-11.822-3.91s-8.89 1.257-11.73 3.817-4.282 6.098-4.282 10.566z m2.374-35.002c0 3.723 1.164 6.749 3.724 8.983a13.964 13.964 0 0 0 9.914 3.444 14.29 14.29 0 0 0 9.914-3.444c2.467-2.28 3.724-5.26 3.724-8.983s-1.164-6.75-3.631-8.797c-2.374-2.095-5.725-3.165-10.007-3.165s-7.634 1.07-10.008 3.165a10.938 10.938 0 0 0-3.63 8.797z" fill="#2c2c2c" p-id="4845"></path></svg>