<?xml version="1.0" standalone="no"?><!DOCTYPE svg PUBLIC "-//W3C//DTD SVG 1.1//EN" "http://www.w3.org/Graphics/SVG/1.1/DTD/svg11.dtd"><svg t="1531795305688" class="icon" style="" viewBox="0 0 1024 1024" version="1.1" xmlns="http://www.w3.org/2000/svg" p-id="10333" xmlns:xlink="http://www.w3.org/1999/xlink" width="48" height="48"><defs><style type="text/css"></style></defs><path d="M1024.508-150.803h-1024.999c-83.012 0-150.313 67.122-150.313 149.908v1025.807c0 82.786 67.3 149.908 150.313 149.908h1024.999c83.012 0 150.313-67.122 150.313-149.908v-1025.809c-0.017-82.786-67.3-149.908-150.313-149.908zM1064.589 1024.895c0 22.039-17.979 39.969-40.082 39.969h-1024.999c-22.103 0-40.083-17.93-40.083-39.969v-1025.809c0-22.039 17.979-39.969 40.083-39.969h1025.001c22.103 0 40.082 17.93 40.082 26.164v1039.613z" p-id="10334"></path><path d="M781.49 340.507l-225.394 303.796 156.784 48.998-48.981 274.378 225.396-323.392-156.784-48.998 48.981-254.783zM614.898 389.505h-431.178c-19.595 0-39.191-9.807-39.191-39.191 0-19.595 19.595-39.191 39.191-39.191h431.178c19.596 0 39.191 19.595 39.191 39.191 0 29.402-19.595 39.191-39.191 39.191v0zM428.714 654.093h-244.992c-19.595 0-39.191-19.596-39.191-39.191s19.595-39.191 39.191-39.191h244.992c19.595 0 39.191 19.596 39.191 39.191 0 29.402-19.595 39.191-39.191 39.191v0zM291.508 918.679h-107.804c-19.595 0-39.191-19.596-39.191-39.191s19.595-39.191 39.191-39.191h107.804c19.595 0 39.191 19.596 39.191 39.191 0.017 29.402-19.595 39.191-39.191 39.191v0zM840.278 134.723h-666.364c-19.595 0-39.191-9.807-39.191-39.191 0-19.596 19.595-39.191 39.191-39.191h666.364c19.596 0 39.191 19.595 39.191 39.191 0.017 29.386-19.58 39.191-39.191 39.191v0z" p-id="10335"></path></svg>