<?xml version="1.0" standalone="no"?><!DOCTYPE svg PUBLIC "-//W3C//DTD SVG 1.1//EN" "http://www.w3.org/Graphics/SVG/1.1/DTD/svg11.dtd"><svg t="1531795385671" class="icon" style="" viewBox="0 0 1024 1024" version="1.1" xmlns="http://www.w3.org/2000/svg" p-id="11112" xmlns:xlink="http://www.w3.org/1999/xlink" width="48" height="48"><defs><style type="text/css"></style></defs><path d="M899.844817 498.566036l-86.278016 0c-14.625092 0-26.467815 11.812023-26.467815 26.561959l0 472.358141c0 14.687514 11.842723 26.499537 26.467815 26.499537l86.278016 0c14.718213 0 26.561959-11.812023 26.561959-26.499537l0-472.358141C926.281933 510.37806 914.469909 498.566036 899.844817 498.566036z" p-id="11113"></path><path d="M335.9591 631.061676l-86.246293 0c-14.655791 0-26.467815 11.842723-26.467815 26.467815l0 339.956645c0 14.687514 11.812023 26.499537 26.467815 26.499537l86.278016 0c14.625092 0 26.467815-11.812023 26.467815-26.499537L362.458637 657.529491C362.457614 642.904399 350.614891 631.061676 335.9591 631.061676z" p-id="11114"></path><path d="M617.854375 238.138702l-86.152149 0c-14.59337 0-26.592658 11.812023-26.592658 26.530236l0 732.817198c0 14.687514 11.936867 26.499537 26.592658 26.499537l86.152149 0c14.687514 0 26.499537-11.812023 26.499537-26.499537L644.353912 264.668938C644.353912 249.950725 632.541889 238.138702 617.854375 238.138702z" p-id="11115"></path><path d="M292.866652 611.749842c-107.683535 0-195.274452-87.590917-195.274452-195.274452 0-98.464569 157.399843-374.642632 175.337377-405.891334 8.218172-14.092973 31.530111-14.092973 39.811728 0 17.968234 31.248701 175.368076 307.426765 175.368076 405.891334C488.109382 524.158924 400.581909 611.749842 292.866652 611.749842zM292.866652 68.925812c-54.779627 99.027387-149.369959 283.33302-149.369959 347.549577 0 82.340333 66.997903 149.369959 149.369959 149.369959s149.369959-67.029626 149.369959-149.369959C442.236612 352.259856 347.614557 167.9532 292.866652 68.925812z" p-id="11116"></path><path d="M292.866652 519.877411c-12.68695 0-22.99983-10.311857-22.99983-22.99983 0-12.685927 10.311857-22.967084 22.99983-22.967084 31.654954 0 57.372685-25.624611 57.372685-57.217143 0-12.68695 10.280134-22.998807 22.998807-22.998807 12.749372 0 23.030529 10.311857 23.030529 22.998807C396.268674 473.630111 349.863784 519.877411 292.866652 519.877411z" p-id="11117"></path></svg>