<?xml version="1.0" standalone="no"?><!DOCTYPE svg PUBLIC "-//W3C//DTD SVG 1.1//EN" "http://www.w3.org/Graphics/SVG/1.1/DTD/svg11.dtd"><svg class="icon" width="200px" height="200.00px" viewBox="0 0 1024 1024" version="1.1" xmlns="http://www.w3.org/2000/svg"><path fill="#000000" d="M512 0a512 512 0 1 0 512 512A512 512 0 0 0 512 0z m0 727.91a48.23 48.23 0 1 1 48.23-48.23A48.282 48.282 0 0 1 512 727.91z m140.8-117.35a17.51 17.51 0 0 1-11.264 4.045 17.766 17.766 0 0 1-13.722-6.503 149.453 149.453 0 0 0-231.628 0 17.766 17.766 0 1 1-27.444-22.528 185.088 185.088 0 0 1 286.72 0 17.869 17.869 0 0 1-2.662 24.935z m86.426-70.554a17.766 17.766 0 0 1-24.935-2.508 261.12 261.12 0 0 0-404.48 0 17.715 17.715 0 1 1-27.494-22.426 296.96 296.96 0 0 1 459.571 0 17.766 17.766 0 0 1-2.662 24.883z m86.272-70.656a17.869 17.869 0 0 1-24.935-2.508 372.429 372.429 0 0 0-577.126 0 17.562 17.562 0 0 1-13.517 6.502 17.766 17.766 0 0 1-13.722-28.98 407.91 407.91 0 0 1 632.013 0 17.715 17.715 0 0 1-2.713 24.935z" /></svg>