<svg t="1573832600695" class="icon" viewBox="0 0 1024 1024" version="1.1" xmlns="http://www.w3.org/2000/svg" p-id="4202" width="128" height="128"><path d="M726.764308 170.692923h165.218461a32.531692 32.531692 0 0 1 23.394462 10.043077 34.737231 34.737231 0 0 1 9.688615 24.182154v648.507077a34.776615 34.776615 0 0 1-9.688615 24.182154 32.571077 32.571077 0 0 1-23.394462 10.003692h-165.218461a32.571077 32.571077 0 0 1-23.394462-10.003692 34.776615 34.776615 0 0 1-9.688615-24.182154V204.8a33.752615 33.752615 0 0 1 33.122461-34.107077z m-311.138462 170.692923h165.218462a32.571077 32.571077 0 0 1 23.394461 10.003692 34.776615 34.776615 0 0 1 9.688616 24.182154V853.464615a34.776615 34.776615 0 0 1-9.688616 24.182154 32.531692 32.531692 0 0 1-23.394461 10.043077h-165.218462a32.531692 32.531692 0 0 1-23.394461-10.043077 34.737231 34.737231 0 0 1-9.688616-24.182154V375.492923a33.634462 33.634462 0 0 1 33.083077-34.107077zM99.249231 0h165.218461a32.531692 32.531692 0 0 1 23.394462 10.043077 34.737231 34.737231 0 0 1 9.688615 24.182154v819.2a34.776615 34.776615 0 0 1-9.688615 24.182154 32.571077 32.571077 0 0 1-23.394462 10.003692H99.249231a32.571077 32.571077 0 0 1-23.394462-10.003692 34.776615 34.776615 0 0 1-9.688615-24.182154V34.225231a34.776615 34.776615 0 0 1 9.688615-24.182154A32.531692 32.531692 0 0 1 99.249231 0zM33.122462 1024a33.595077 33.595077 0 0 1-33.004308-34.107077 33.595077 33.595077 0 0 1 33.004308-34.107077h957.87323a33.595077 33.595077 0 0 1 33.004308 34.107077 33.595077 33.595077 0 0 1-33.004308 34.107077z m0 0" p-id="4203" fill="#ffffff"></path></svg>