<?xml version="1.0" standalone="no"?><!DOCTYPE svg PUBLIC "-//W3C//DTD SVG 1.1//EN" "http://www.w3.org/Graphics/SVG/1.1/DTD/svg11.dtd"><svg t="1592793060733" class="icon" viewBox="0 0 1024 1024" version="1.1" xmlns="http://www.w3.org/2000/svg" p-id="2769" xmlns:xlink="http://www.w3.org/1999/xlink" width="32" height="32"><defs><style type="text/css"></style></defs><path d="M970.105263 951.242105h-175.157895L668.294737 538.947368h121.263158v56.589474c0 10.778947 8.084211 18.863158 18.863158 18.863158s18.863158-8.084211 18.863158-18.863158V538.947368h18.863157v56.589474c0 10.778947 8.084211 18.863158 18.863158 18.863158s18.863158-8.084211 18.863158-18.863158v-75.452631-2.694737-2.694737-2.694737s0-2.694737-2.694737-2.694737l-2.694736-2.694737-172.463158-126.652631h83.536842v24.252631c0 10.778947 8.084211 18.863158 18.863158 18.863158s18.863158-8.084211 18.863158-18.863158v-24.252631h18.863157v24.252631c0 10.778947 8.084211 18.863158 18.863158 18.863158s18.863158-8.084211 18.863158-18.863158v-43.115789-2.694737-2.694737s0-2.694737-2.694737-2.694737l-2.694736-2.694737-218.273685-164.378947-78.147368-134.736842-2.694737-2.694737-2.694737-2.694737-2.694737-2.694737s-2.694737 0-2.694736-2.694736h-2.694737H463.494737h-2.694737-2.694737s-2.694737 0-2.694737 2.694736c0 0-2.694737 0-2.694737 2.694737l-2.694736 2.694737-2.694737 2.694737-78.147369 134.736842L150.905263 350.315789l-2.694737 2.694737-2.694737 2.694737V404.210526c0 10.778947 8.084211 18.863158 18.863158 18.863158s18.863158-8.084211 18.863158-18.863158v-24.252631h18.863158v24.252631c0 10.778947 8.084211 18.863158 18.863158 18.863158s18.863158-8.084211 18.863158-18.863158v-24.252631H323.368421l-172.463158 126.652631-2.694737 2.694737-2.694737 2.694737V595.536842c0 10.778947 8.084211 18.863158 18.863158 18.863158s18.863158-8.084211 18.863158-18.863158V538.947368h18.863158v56.589474c0 10.778947 8.084211 18.863158 18.863158 18.863158s18.863158-8.084211 18.863158-18.863158V538.947368h121.263158L229.052632 951.242105H53.894737c-10.778947 0-18.863158 8.084211-18.863158 18.863158s8.084211 18.863158 18.863158 18.863158h916.210526c10.778947 0 18.863158-8.084211 18.863158-18.863158s-8.084211-18.863158-18.863158-18.863158z m-458.105263 0h-188.631579l185.936842-91.621052 185.936842 91.621052H512zM218.273684 501.221053l145.51579-107.789474v107.789474H218.273684zM215.578947 342.231579l145.51579-110.484211v110.484211H215.578947z m258.694737-269.473684h75.452632l59.28421 102.4h-194.021052l59.28421-102.4z m185.936842 269.473684V231.747368l145.51579 110.484211h-145.51579z m0 158.989474v-107.789474l145.51579 107.789474h-145.51579zM512 212.884211h64.673684L512 256l-64.673684-43.115789H512z m0 288.336842h-64.673684l64.673684-40.421053 64.673684 40.421053H512z m0-202.105264l67.368421 43.11579h-134.736842l67.368421-43.11579z m0 80.842106h61.978947L512 417.684211l-61.978947-37.726316H512z m35.031579 59.28421l75.452632-48.505263V485.052632l-75.452632-45.810527z m0-161.68421l75.452632-48.505263V323.368421l-75.452632-45.810526z m-70.063158 0L401.515789 323.368421V229.052632l75.452632 48.505263z m0 161.68421L401.515789 485.052632v-94.31579l75.452632 48.505263zM512 538.947368h70.063158L512 587.452632 441.936842 538.947368H512z m0 94.31579l161.684211 107.789474-161.684211 75.452631-161.684211-75.452631 161.684211-107.789474z m188.631579 137.431579l51.2 161.68421-194.021053-94.315789 142.821053-67.368421z m-156.294737-161.684211l86.231579-59.28421 45.810526 148.210526-132.042105-88.926316z m-64.673684 0L347.621053 700.631579l45.810526-148.210526 86.231579 56.589473z m-156.294737 161.684211l142.821053 67.368421-194.021053 94.315789 51.2-161.68421z" fill="#FFFFFF" p-id="2770"></path></svg>