<?xml version="1.0" standalone="no"?><!DOCTYPE svg PUBLIC "-//W3C//DTD SVG 1.1//EN" "http://www.w3.org/Graphics/SVG/1.1/DTD/svg11.dtd"><svg t="1531795140337" class="icon" style="" viewBox="0 0 1024 1024" version="1.1" xmlns="http://www.w3.org/2000/svg" p-id="7371" xmlns:xlink="http://www.w3.org/1999/xlink" width="48" height="48"><defs><style type="text/css"></style></defs><path d="M944 1024H80A80 80 0 0 1 0 944V80A80 80 0 0 1 80 0h864A80 80 0 0 1 1024 80v864A80 80 0 0 1 944 1024zM80 32A48 48 0 0 0 32 80v864a48 48 0 0 0 48 48h864a48 48 0 0 0 48-48V80a48 48 0 0 0-48-48z" p-id="7372"></path><path d="M325.76 341.333333a39.466667 39.466667 0 0 0 42.666667-42.666666 39.466667 39.466667 0 0 0-42.666667-42.666667 38.613333 38.613333 0 0 0-41.6 42.666667 38.613333 38.613333 0 0 0 41.6 42.666666z m0-68.48c17.066667 0 17.493333 15.146667 17.493333 26.026667s0 26.026667-17.493333 26.026667-17.28-15.36-17.28-26.026667 1.493333-26.453333 18.133333-26.453333zM438.826667 341.333333a39.466667 39.466667 0 0 0 42.666666-42.666666 39.466667 39.466667 0 0 0-42.666666-42.666667 38.613333 38.613333 0 0 0-41.6 42.666667 38.613333 38.613333 0 0 0 41.6 42.666666z m0-68.48c17.066667 0 17.493333 15.146667 17.493333 26.026667s0 26.026667-17.493333 26.026667-17.28-15.36-17.28-26.026667 1.706667-26.453333 18.133333-26.453333zM580.266667 341.333333a39.466667 39.466667 0 0 0 42.666666-42.666666 39.466667 39.466667 0 0 0-42.666666-42.666667 38.613333 38.613333 0 0 0-41.6 42.666667 38.613333 38.613333 0 0 0 41.6 42.666666z m0-68.48c17.066667 0 17.493333 15.146667 17.493333 26.026667s0 26.026667-17.493333 26.026667-17.28-15.36-17.28-26.026667 1.493333-26.453333 17.92-26.453333zM693.333333 341.333333a39.466667 39.466667 0 0 0 42.666667-42.666666 39.466667 39.466667 0 0 0-42.666667-42.666667 38.613333 38.613333 0 0 0-41.6 42.666667 38.613333 38.613333 0 0 0 41.6 42.666666z m0-68.48c17.066667 0 17.493333 15.146667 17.493334 26.026667s0 26.026667-17.493334 26.026667-17.28-15.36-17.28-26.026667 1.706667-26.453333 18.133334-26.453333z" p-id="7373"></path><path d="M771.626667 399.146667H252.373333A60.16 60.16 0 0 1 192 339.84v-88.96A60.16 60.16 0 0 1 252.373333 192h519.253334A60.16 60.16 0 0 1 832 250.88v88.96a60.16 60.16 0 0 1-60.373333 59.306667zM252.373333 202.24a49.493333 49.493333 0 0 0-50.133333 48.64v88.96a49.493333 49.493333 0 0 0 50.133333 48.64h519.253334a49.493333 49.493333 0 0 0 50.133333-48.64v-88.96a49.493333 49.493333 0 0 0-50.133333-48.64z" p-id="7374"></path><path d="M581.12 630.613333h-49.066667l21.333334-87.466666s2.56-8.106667 0-10.88-9.813333 5.546667-9.813334 5.546666l-106.666666 114.773334s-7.466667 8.106667-4.906667 10.88 4.906667 5.546667 7.466667 5.546666h53.333333l-17.28 87.466667s-2.56 8.106667 2.56 10.88 7.466667-2.773333 9.813333-5.546667l100.693334-114.773333a8.106667 8.106667 0 0 0 0-10.88c-2.56-8.32-7.466667-5.546667-7.466667-5.546667z" p-id="7375"></path><path d="M373.12 623.573333c1.28-3.84 1.28-9.6-1.28-11.52a4.48 4.48 0 0 0-6.613333 0 71.04 71.04 0 0 0 0 75.306667 4.906667 4.906667 0 0 0 7.893333 0 12.373333 12.373333 0 0 0 0-9.6 50.346667 50.346667 0 0 1 0-54.186667z" p-id="7376"></path><path d="M343.68 601.173333a9.173333 9.173333 0 0 0 0-9.173333 6.613333 6.613333 0 0 0-8.106667 0 90.453333 90.453333 0 0 0 0 114.986667 7.253333 7.253333 0 0 0 9.6 0 9.173333 9.173333 0 0 0 0-9.173334 75.306667 75.306667 0 0 1-1.493333-96.64z" p-id="7377"></path><path d="M286.933333 649.6a104.746667 104.746667 0 0 1 25.386667-68.266667 8.96 8.96 0 0 0 0-8.96 6.613333 6.613333 0 0 0-7.893333 0 118.4 118.4 0 0 0 0 154.453334 7.253333 7.253333 0 0 0 9.6 0 8.96 8.96 0 0 0 0-8.96 89.173333 89.173333 0 0 1-27.093334-68.266667z" p-id="7378"></path><path d="M650.88 623.573333c-1.28-3.84-1.28-9.6 1.28-11.52a4.48 4.48 0 0 1 6.613333 0 71.04 71.04 0 0 1 0 75.306667 4.906667 4.906667 0 0 1-7.893333 0 12.373333 12.373333 0 0 1 0-9.6 50.346667 50.346667 0 0 0 0-54.186667z" p-id="7379"></path><path d="M680.32 601.173333a9.173333 9.173333 0 0 1 0-9.173333 6.613333 6.613333 0 0 1 8.106667 0 90.453333 90.453333 0 0 1 0 114.986667 7.253333 7.253333 0 0 1-9.6 0 9.173333 9.173333 0 0 1 0-9.173334 75.306667 75.306667 0 0 0 1.493333-96.64z" p-id="7380"></path><path d="M737.066667 649.6a104.746667 104.746667 0 0 0-25.386667-68.266667 8.96 8.96 0 0 1 0-8.96 6.613333 6.613333 0 0 1 7.893333 0 118.4 118.4 0 0 1 0 154.453334 7.253333 7.253333 0 0 1-9.6 0 8.96 8.96 0 0 1 0-8.96 89.173333 89.173333 0 0 0 27.093334-68.266667z" p-id="7381"></path><path d="M680.533333 995.2H344.533333v-10.24c-1.493333-46.72 2.56-72.533333 13.226667-83.413333a19.84 19.84 0 0 1 14.72-6.4h275.626667c20.266667 0 29.44 25.813333 32 88.96z m-325.76-10.666667h314.666667c-2.133333-52.906667-9.173333-78.72-21.333333-78.72H372.053333a9.386667 9.386667 0 0 0-7.04 2.986667c-8.32 8.533333-11.52 33.28-10.24 75.733333z" p-id="7382"></path></svg>